<?xml version="1.0" encoding="UTF-8"?>
<svg width="28px" height="28px" viewBox="0 0 28 28" version="1.1" xmlns="http://www.w3.org/2000/svg" xmlns:xlink="http://www.w3.org/1999/xlink">
    <!-- Generator: Sketch 46.2 (44496) - http://www.bohemiancoding.com/sketch -->
    <title>add-segment</title>
    <desc>Created with Sketch.</desc>
    <defs></defs>
    <g id="Icons" stroke="none" stroke-width="1" fill="none" fill-rule="evenodd">
        <g id="add-segment">
            <g transform="translate(1.000000, 1.000000)">
                <path d="M14.4377482,1.08333554 C14.0121691,1.66648032 13.668689,2.31335498 13.4243086,3.00695877 C10.4537021,2.88333054 7.51115566,4.09191647 5.49081488,6.39313096 L5.50725295,6.3646594 L14.8813781,11.7768131 L16.0248545,22.547395 L16.0091122,22.5383062 C18.357718,21.7982343 20.3844028,20.2098392 21.660254,18 C22.6470031,16.2909004 23.0719062,14.4115967 22.9922706,12.5759629 C23.6852919,12.3318732 24.3316735,11.9888538 24.9144599,11.5638601 C25.216591,14.0543366 24.7432483,16.6600973 23.3923048,19 C21.3989823,22.452536 17.949084,24.5398148 14.2669682,24.9337705 L13,13 L2.60769515,7 C5.08483924,2.70946058 9.81145448,0.527364078 14.4377482,1.08333554 Z M7,23.3923048 C1.55212537,20.246973 -0.496427584,13.4749477 2.14326609,7.88656229 L12.0543543,13.6087317 L13.2682466,24.998747 C11.1422734,25.0482971 8.97630923,24.5333275 7,23.3923048 Z" id="Combined-Shape" fill="#63666A" fill-rule="nonzero"></path>
                <path d="M20.5,11 C17.4624339,11 15,8.53756612 15,5.5 C15,2.46243388 17.4624339,0 20.5,0 C23.5375661,0 26,2.46243388 26,5.5 C26,8.53756612 23.5375661,11 20.5,11 Z M19.625,6.375 L19.625,9 L21.375,9 L21.375,6.375 L24,6.375 L24,4.625 L21.375,4.625 L21.375,2 L19.625,2 L19.625,4.625 L17,4.625 L17,6.375 L19.625,6.375 Z" id="plus-11" fill="#00A7E1"></path>
            </g>
        </g>
    </g>
</svg>