<?xml version="1.0" encoding="UTF-8"?>
<svg width="28px" height="28px" viewBox="0 0 28 28" version="1.1" xmlns="http://www.w3.org/2000/svg" xmlns:xlink="http://www.w3.org/1999/xlink">
    <!-- Generator: Sketch 46.2 (44496) - http://www.bohemiancoding.com/sketch -->
    <title>add-report</title>
    <desc>Created with Sketch.</desc>
    <defs></defs>
    <g id="Icons" stroke="none" stroke-width="1" fill="none" fill-rule="evenodd">
        <g id="add-report">
            <g transform="translate(2.000000, 1.000000)">
                <path d="M17,12.5732357 L17,20.0059397 C17,21.1072288 16.1122704,22 15,22 C13.8954305,22 13,21.1054862 13,20.0059397 L13,9.24417435 C13.8870883,10.7808679 15.3034623,11.9735957 17,12.5732357 Z M22,12.5732357 L22,20.0092049 C22,21.1086907 21.1122704,22 20,22 C18.8954305,22 18,21.1017876 18,20.0092049 L18,12.8499728 C18.4846649,12.9483546 18.9863012,13 19.5,13 C20.3765886,13 21.2180527,12.8496144 22,12.5732357 Z M0,1 L0,2 C0,1.44771525 0.44771525,1 1,1 C1.55228475,1 2,1.44771525 2,2 L2,23 L23,23 C23.5522847,23 24,23.4477153 24,24 C24,24.5522847 23.5522847,25 23,25 L1,25 C0.44771525,25 0,24.5522847 0,24 L0,1 Z M3,15.9981014 C3,14.8945804 3.88772964,14 5,14 C6.1045695,14 7,14.8867064 7,15.9981014 L7,20.0018986 C7,21.1054196 6.11227036,22 5,22 C3.8954305,22 3,21.1132936 3,20.0018986 L3,15.9981014 Z M8,12.0085302 C8,10.8992496 8.88772964,10 10,10 C11.1045695,10 12,10.9019504 12,12.0085302 L12,19.9914698 C12,21.1007504 11.1122704,22 10,22 C8.8954305,22 8,21.0980496 8,19.9914698 L8,12.0085302 Z" id="reports" fill="#63666A"></path>
                <path d="M19.5,11 C16.4624339,11 14,8.53756612 14,5.5 C14,2.46243388 16.4624339,0 19.5,0 C22.5375661,0 25,2.46243388 25,5.5 C25,8.53756612 22.5375661,11 19.5,11 Z M18.625,6.375 L18.625,9 L20.375,9 L20.375,6.375 L23,6.375 L23,4.625 L20.375,4.625 L20.375,2 L18.625,2 L18.625,4.625 L16,4.625 L16,6.375 L18.625,6.375 Z" id="plus-11" fill="#00A7E1"></path>
            </g>
        </g>
    </g>
</svg>