<?xml version="1.0" encoding="UTF-8"?>
<svg width="28px" height="28px" viewBox="0 0 28 28" version="1.1" xmlns="http://www.w3.org/2000/svg" xmlns:xlink="http://www.w3.org/1999/xlink">
    <!-- Generator: Sketch 46.2 (44496) - http://www.bohemiancoding.com/sketch -->
    <title>add-campaign</title>
    <desc>Created with Sketch.</desc>
    <defs></defs>
    <g id="Icons" stroke="none" stroke-width="1" fill="none" fill-rule="evenodd">
        <g id="add-campaign">
            <g transform="translate(2.000000, 1.000000)">
                <path d="M12.0164023,6 L9.89008578,6 L9.13841881,3.94794416 C8.9479892,3.42807007 8.33968401,3 7.78272639,3 L1.00846097,3 C0.448042438,3 2.03337055e-17,3.44762906 2.03337055e-17,3.99980749 L2.03337055e-17,7.00019251 L5.57761237e-08,7.0005321 L0,7.00087166 L0,20.9991283 C0,21.5553691 0.449089982,22 1.00307055,22 L1.07062505,22 L1.92754837,9.93392081 C2.00419021,8.85475019 2.87846622,8 3.92446502,8 L12.4267643,8 C12.2033586,7.36792723 12.0622769,6.69696617 12.0164023,6 L12.0164023,6 Z M13.4994507,10 L4.86320345,10 C4.3483387,10 3.91602832,10.3909238 3.87849456,10.8731528 L3.00257563,22.1268472 C2.96489712,22.6109358 3.3450568,23 3.85136274,23 L22.1367965,23 C22.6516613,23 23.0839717,22.6090762 23.1215054,22.1268472 L23.9454313,11.5411531 C22.7014203,12.4581016 21.1639937,13 19.5,13 C17.0462733,13 14.8677602,11.8216701 13.4994507,10 L13.4994507,10 Z" id="campaign-notched" fill="#63666A"></path>
                <path d="M19.5,11 C16.4624339,11 14,8.53756612 14,5.5 C14,2.46243388 16.4624339,0 19.5,0 C22.5375661,0 25,2.46243388 25,5.5 C25,8.53756612 22.5375661,11 19.5,11 Z M18.625,6.375 L18.625,9 L20.375,9 L20.375,6.375 L23,6.375 L23,4.625 L20.375,4.625 L20.375,2 L18.625,2 L18.625,4.625 L16,4.625 L16,6.375 L18.625,6.375 Z" id="plus-11" fill="#00A7E1"></path>
            </g>
        </g>
    </g>
</svg>