<?xml version="1.0" encoding="UTF-8"?>
<svg width="28px" height="28px" viewBox="0 0 28 28" version="1.1" xmlns="http://www.w3.org/2000/svg" xmlns:xlink="http://www.w3.org/1999/xlink">
    <!-- Generator: Sketch 46.2 (44496) - http://www.bohemiancoding.com/sketch -->
    <title>advanced-settings-alerted</title>
    <desc>Created with Sketch.</desc>
    <defs></defs>
    <g id="Icons" stroke="none" stroke-width="1" fill="none" fill-rule="evenodd">
        <g id="advanced-settings-alerted">
            <g transform="translate(2.000000, 1.000000)">
                <path d="M21.8541029,22.8025176 C21.3525368,23.3132578 20.7149475,23.6899677 20,23.8739825 L20,24.4903505 C20,24.7718221 19.785965,25 19.4953156,25 L18.5046844,25 C18.2259549,25 18,24.7723472 18,24.4903505 L18,23.8739825 C17.2850525,23.6899677 16.6474632,23.3132578 16.1458971,22.8025176 L15.6112424,23.1112006 C15.3674808,23.2519365 15.0628555,23.1806656 14.9175308,22.9289559 L14.4222152,22.0710441 C14.2828504,21.8296573 14.3670261,21.5201482 14.6112424,21.3791498 L15.1449912,21.0709898 C15.0504967,20.73012 15,20.370957 15,20 C15,19.629043 15.0504967,19.26988 15.1449912,18.9290102 L14.6112424,18.6208502 C14.3674808,18.4801143 14.2768905,18.1806656 14.4222152,17.9289559 L14.9175308,17.0710441 C15.0568955,16.8296573 15.3670261,16.747801 15.6112424,16.8887994 L16.1458971,17.1974824 C16.6474632,16.6867422 17.2850525,16.3100323 18,16.1260175 L18,15.5096495 C18,15.2281779 18.214035,15 18.5046844,15 L19.4953156,15 C19.7740451,15 20,15.2276528 20,15.5096495 L20,16.1260175 C20.7149475,16.3100323 21.3525368,16.6867422 21.8541029,17.1974824 L22.3887576,16.8887994 C22.6325192,16.7480635 22.9371445,16.8193344 23.0824692,17.0710441 L23.5777848,17.9289559 C23.7171496,18.1703427 23.6329739,18.4798518 23.3887576,18.6208502 L22.8550088,18.9290102 C22.9495033,19.26988 23,19.629043 23,20 C23,20.370957 22.9495033,20.73012 22.8550088,21.0709898 L23.3887576,21.3791498 C23.6325192,21.5198857 23.7231095,21.8193344 23.5777848,22.0710441 L23.0824692,22.9289559 C22.9431045,23.1703427 22.6329739,23.252199 22.3887576,23.1112006 L21.8541029,22.8025176 Z M19,22 C20.1045695,22 21,21.1045695 21,20 C21,18.8954305 20.1045695,18 19,18 C17.8954305,18 17,18.8954305 17,20 C17,21.1045695 17.8954305,22 19,22 Z M14.0780709,4.75877331 L13.8094904,4.91383834 C13.0232786,4.17013553 12.0647215,3.60675528 11,3.28987868 L11,1.99339768 C11,1.44494629 10.5480902,1 9.9906311,1 L8.0093689,1 C7.44335318,1 7,1.44475929 7,1.99339768 L7,3.28987868 C5.93527855,3.60675528 4.97672138,4.17013553 4.1905096,4.91383834 L3.066079,4.26464803 C2.59110616,3.99042234 1.97981644,4.1593146 1.70108692,4.6420883 L0.710455814,6.3579117 C0.427447954,6.84809569 0.590944212,7.45443045 1.066079,7.72874965 L2.18908653,8.37711835 C2.06544497,8.89796115 2,9.44133783 2,10 C2,10.5586622 2.06544497,11.1020388 2.18908653,11.6228817 L1.066079,12.2712504 C0.591106156,12.545476 0.43172629,13.1593146 0.710455814,13.6420883 L1.70108692,15.3579117 C1.98409478,15.8480957 2.59094421,16.0096712 3.066079,15.735352 L4.1905096,15.0861617 C4.97672138,15.8298645 5.93527855,16.3932447 7,16.7101213 L7,18.0066023 C7,18.5550537 7.45190985,19 8.0093689,19 L9.9906311,19 C10.5566468,19 11,18.5552407 11,18.0066023 L11,16.7101213 C12.0647215,16.3932447 13.0232786,15.8298645 13.8094904,15.0861617 L14.933921,15.735352 C15.4088938,16.0095777 16.0201836,15.8406854 16.2989131,15.3579117 L17.2895442,13.6420883 C17.572552,13.1519043 17.4090558,12.5455695 16.933921,12.2712504 L16.4641016,12 L14.7596487,12 C13.9677992,12 13.2994392,11.6839021 12.8189186,11.193487 C12.3112281,12.8196923 10.7934519,14 9,14 C6.790861,14 5,12.209139 5,10 C5,7.790861 6.790861,6 9,6 C10.4010179,6 11.6338046,6.72028296 12.3482535,7.8107421 C12.3563728,7.79582169 12.364641,7.78093683 12.373059,7.7660891 L14.0780709,4.75877331 Z" id="advanced-settings-copy-3" fill="#63666A"></path>
                <path d="M24.8871116,8.75249357 C25.1966854,9.29852261 24.8330097,10 24.2403513,10 L14.7596487,10 C14.1669903,10 13.8033146,9.29852261 14.1128884,8.75249357 L18.8532397,0.391418027 C19.1491281,-0.130472676 19.8508719,-0.130472676 20.1467603,0.391418027 L24.8871116,8.75249357 Z M18.5,3.0093689 L18.5,4.9906311 C18.5,5.55664682 18.9477153,6 19.5,6 C20.0561352,6 20.5,5.54809015 20.5,4.9906311 L20.5,3.0093689 C20.5,2.44335318 20.0522847,2 19.5,2 C18.9438648,2 18.5,2.45190985 18.5,3.0093689 Z M19.5,9 C20.0522847,9 20.5,8.55228475 20.5,8 C20.5,7.44771525 20.0522847,7 19.5,7 C18.9477153,7 18.5,7.44771525 18.5,8 C18.5,8.55228475 18.9477153,9 19.5,9 Z" id="alert-copy-2" fill="#FFC842"></path>
            </g>
        </g>
    </g>
</svg>