<?xml version="1.0" encoding="UTF-8"?>
<svg width="28px" height="28px" viewBox="0 0 28 28" version="1.1" xmlns="http://www.w3.org/2000/svg" xmlns:xlink="http://www.w3.org/1999/xlink">
    <!-- Generator: Sketch 46.2 (44496) - http://www.bohemiancoding.com/sketch -->
    <title>advanced-settings</title>
    <desc>Created with Sketch.</desc>
    <defs></defs>
    <g id="Icons" stroke="none" stroke-width="1" fill="none" fill-rule="evenodd">
        <g id="advanced-settings" fill="#63666A">
            <path d="M24.2182534,23.7965945 C23.7174666,24.3103454 23.0798296,24.6892571 22.3644934,24.8739825 L22.3644934,25.4903505 C22.3644934,25.7718221 22.1358263,26 21.8614772,26 L20.8741205,26 C20.5963122,26 20.3711042,25.7723472 20.3711042,25.4903505 L20.3711042,24.8739825 C19.655768,24.6892571 19.018131,24.3103454 18.5173443,23.7965945 L17.9773885,24.1083381 C17.7336269,24.2490739 17.4216856,24.1651314 17.284511,23.927538 L16.7908326,23.072462 C16.6519285,22.831873 16.7364776,22.5230107 16.9806939,22.3820124 L17.5246898,22.0679362 C17.43105,21.7279752 17.3810203,21.3698495 17.3810203,21 C17.3810203,20.6301505 17.43105,20.2720248 17.5246898,19.9320638 L16.9806939,19.6179876 C16.7369323,19.4772518 16.653658,19.1651314 16.7908326,18.927538 L17.284511,18.072462 C17.4234151,17.831873 17.7331722,17.7506635 17.9773885,17.8916619 L18.5173443,18.2034055 C19.018131,17.6896546 19.655768,17.3107429 20.3711042,17.1260175 L20.3711042,16.5096495 C20.3711042,16.2281779 20.5997713,16 20.8741205,16 L21.8614772,16 C22.1392854,16 22.3644934,16.2276528 22.3644934,16.5096495 L22.3644934,17.1260175 C23.0798296,17.3107429 23.7174666,17.6896546 24.2182534,18.2034055 L24.7582091,17.8916619 C25.0019707,17.7509261 25.3139121,17.8348686 25.4510867,18.072462 L25.944765,18.927538 C26.0836691,19.168127 25.99912,19.4769893 25.7549037,19.6179876 L25.2109078,19.9320638 C25.3045476,20.2720248 25.3545773,20.6301505 25.3545773,21 C25.3545773,21.3698495 25.3045476,21.7279752 25.2109078,22.0679362 L25.7549037,22.3820124 C25.9986653,22.5227482 26.0819396,22.8348686 25.944765,23.072462 L25.4510867,23.927538 C25.3121825,24.168127 25.0024254,24.2493365 24.7582091,24.1083381 L24.2182534,23.7965945 Z M21.3677988,23 C22.4687173,23 23.3611881,22.1045695 23.3611881,21 C23.3611881,19.8954305 22.4687173,19 21.3677988,19 C20.2668803,19 19.3744096,19.8954305 19.3744096,21 C19.3744096,22.1045695 20.2668803,23 21.3677988,23 Z M16.2054448,16.0757003 C15.4197796,16.8245818 14.4604141,17.3917606 13.3942418,17.7101213 L13.3942418,19.0066023 C13.3942418,19.5552407 12.9369076,20 12.3882092,20 L10.4134958,20 C9.85787939,20 9.40746327,19.5550537 9.40746327,19.0066023 L9.40746327,17.7101213 C8.34129092,17.3917606 7.38192542,16.8245818 6.5962603,16.0757003 L5.46362615,16.7296269 C4.98849137,17.0039461 4.37465143,16.8302627 4.10030225,16.355076 L3.11294555,14.644924 C2.83513733,14.1637461 2.99526406,13.5512011 3.4702369,13.2769754 L4.61133653,12.6181612 C4.48882532,12.098756 4.42399013,11.5569747 4.42399013,11 C4.42399013,10.4430253 4.48882532,9.90124395 4.61133653,9.38183876 L3.4702369,8.72302458 C2.99510211,8.44870538 2.83859636,7.83026271 3.11294555,7.35507598 L4.10030225,5.64492402 C4.37811047,5.16374606 4.98865331,4.99614741 5.46362615,5.27037311 L6.5962603,5.92429973 C7.38192542,5.17541819 8.34129092,4.60823939 9.40746327,4.28987868 L9.40746327,2.99339768 C9.40746327,2.44475929 9.86479746,2 10.4134958,2 L12.3882092,2 C12.9438257,2 13.3942418,2.44494629 13.3942418,2.99339768 L13.3942418,4.28987868 C14.4604141,4.60823939 15.4197796,5.17541819 16.2054448,5.92429973 L17.3380789,5.27037311 C17.8132137,4.99605391 18.4270536,5.16973729 18.7014028,5.64492402 L19.6887595,7.35507598 C19.9665677,7.83625394 19.806441,8.44879888 19.3314682,8.72302458 L18.1903685,9.38183876 C18.3128797,9.90124395 18.3777149,10.4430253 18.3777149,11 C18.3777149,11.5569747 18.3128797,12.098756 18.1903685,12.6181612 L19.3314682,13.2769754 C19.8066029,13.5512946 19.9631087,14.1697373 19.6887595,14.644924 L18.7014028,16.355076 C18.4235946,16.8362539 17.8130517,17.0038526 17.3380789,16.7296269 L16.2054448,16.0757003 Z M11.4008525,15 C13.6026895,15 15.387631,13.209139 15.387631,11 C15.387631,8.790861 13.6026895,7 11.4008525,7 C9.19901556,7 7.41407402,8.790861 7.41407402,11 C7.41407402,13.209139 9.19901556,15 11.4008525,15 Z"></path>
        </g>
    </g>
</svg>