<?xml version="1.0" encoding="UTF-8"?>
<svg width="28px" height="28px" viewBox="0 0 28 28" version="1.1" xmlns="http://www.w3.org/2000/svg" xmlns:xlink="http://www.w3.org/1999/xlink">
    <!-- Generator: Sketch 46.2 (44496) - http://www.bohemiancoding.com/sketch -->
    <title>as run</title>
    <desc>Created with Sketch.</desc>
    <defs></defs>
    <g id="Icons" stroke="none" stroke-width="1" fill="none" fill-rule="evenodd">
        <g id="as-run" fill="#63666A">
            <path d="M20.077113,11.0514637 C20.53685,10.540013 20.8441719,9.90003637 20.954545,9.20523287 C23.9103989,10.4099243 26,13.3675773 26,16.8139535 C26,21.3349821 22.4138323,25 18.0008939,25 L14.618034,25 L15.618034,22.9534884 L18.0064359,22.9534884 C21.3062995,22.9534884 24,20.204725 24,16.8139535 C24,14.1741022 22.3668798,11.9165781 20.077113,11.0514637 Z M19.2647791,10.810262 C19.2004321,10.7961493 19.1357025,10.7830964 19.0706083,10.771122 L18.9998534,10.6747186 L19.2647791,10.810262 Z M14.6272304,10.6744186 L13.2466084,10.6744186 L5.35623714,10.6744186 L3.00247329,10.6744186 C2.44882258,10.6744186 2,10.2202313 2,9.65116279 C2,9.08603421 2.45576096,8.62790698 3.00247329,8.62790698 L12.9975267,8.62790698 C12.99779,8.62790698 12.9980532,8.62790708 12.9991061,8.62790698 L14,8.62790698 C14,9.37520845 14.2257327,10.0849429 14.6272304,10.6744186 Z M19.5034192,11.9322349 C21.5286163,12.5850631 23,14.5263617 23,16.8139535 C23,19.6359344 20.7575938,21.9302326 18.0064359,21.9302326 L16.3727696,21.9302326 C16.7742673,21.3407569 17,20.6310224 17,19.8837209 L17.9942017,19.8837209 C19.6511841,19.8837209 21,18.5093392 21,16.8139535 C21,15.3294281 19.9639776,14.0867168 18.5886388,13.8043435 L19.5034192,11.9322349 Z M15.381966,11.6976744 L16.381966,13.744186 L13.0057983,13.744186 C12.8830642,13.744186 12.7620209,13.7517266 12.6430912,13.7663796 C12.5973881,13.7519815 12.5489394,13.744186 12.4987692,13.744186 L10.7501259,13.744186 L3.00247329,13.744186 C2.44882258,13.744186 2,13.2899988 2,12.7209302 C2,12.1558017 2.45576096,11.6976744 3.00247329,11.6976744 L12.9955454,11.6976744 L12.9955454,11.6976744 L15.381966,11.6976744 Z M11.2532706,22.6901118 L12.3697374,24.974974 C8.24613732,24.6457495 5,21.1094605 5,16.8139535 C5,16.1072939 5.08761462,15.4215477 5.25230647,14.7674419 L5.25230647,14.7674419 L7.34213521,14.7674419 C7.12064026,15.4075476 7,16.096374 7,16.8139535 C7,19.5791048 8.79183084,21.9247734 11.2532706,22.6901118 Z M11.3687021,22.7246998 C11.3820758,22.728557 11.3954684,22.7323678 11.4088798,22.736132 L11.3996274,22.7487385 C11.3892699,22.740779 11.3789614,22.7327659 11.3687021,22.7246998 Z M10.1886056,21.0454907 C8.86815492,20.1239746 8,18.5711251 8,16.8139535 C8,16.0866514 8.14894836,15.3943999 8.4171664,14.7674419 L10.7664335,14.7674419 C10.290073,15.3105415 10,16.0277303 10,16.8139535 C10,17.3462524 10.1332003,17.8474616 10.3674824,18.2844569 C10.1323172,18.7658189 10,19.3089584 10,19.8837209 C10,20.2861786 10.0654701,20.6777406 10.1886056,21.0454907 Z M6.38196601,10.6744186 L8.61803399,10.6744186 L9.61803399,8.62790698 L5.38196601,8.62790698 L6.38196601,10.6744186 Z M16,19.8837209 C16,18.4708995 14.8807119,17.3255814 13.5,17.3255814 C12.1192881,17.3255814 11,18.4708995 11,19.8837209 C11,20.7207183 11.3928399,21.4638293 12.0001466,21.9305326 L13.5,25 L14.9998534,21.9305326 C15.6071601,21.4638293 16,20.7207183 16,19.8837209 Z M8.9998534,7.60495118 L7.5,10.6744186 L6.0001466,7.60495118 C5.39283987,7.13824789 5,6.39513694 5,5.55813953 C5,4.14531808 6.11928813,3 7.5,3 C8.88071187,3 10,4.14531808 10,5.55813953 C10,6.39513694 9.60716013,7.13824789 8.9998534,7.60495118 L8.9998534,7.60495118 Z M20,8.62790698 C20,7.21508552 18.8807119,6.06976744 17.5,6.06976744 C16.1192881,6.06976744 15,7.21508552 15,8.62790698 C15,9.46490438 15.3928399,10.2080153 16.0001466,10.6747186 L17.5,13.744186 L18.9998534,10.6747186 C19.6071601,10.2080153 20,9.46490438 20,8.62790698 Z"></path>
        </g>
    </g>
</svg>