<?xml version="1.0" encoding="UTF-8"?>
<svg width="28px" height="28px" viewBox="0 0 28 28" version="1.1" xmlns="http://www.w3.org/2000/svg" xmlns:xlink="http://www.w3.org/1999/xlink">
    <!-- Generator: Sketch 46.2 (44496) - http://www.bohemiancoding.com/sketch -->
    <title>calendar</title>
    <desc>Created with Sketch.</desc>
    <defs></defs>
    <g id="Icons" stroke="none" stroke-width="1" fill="none" fill-rule="evenodd">
        <g id="calendar" fill="#63666A">
            <path d="M9,5 L19,5 L19,5.49069965 C19,6.88763428 20.1192881,8 21.5,8 C22.8903379,8 24,6.87654797 24,5.49069965 L24,5.00000557 C25.1050269,5.00268851 26,5.90397061 26,6.99456145 L26,24.0054385 C26,25.1070044 25.1029738,26 23.9950534,26 L4.00494659,26 C2.89764516,26 2,25.0976562 2,24.0054385 L2,6.99456145 C2,5.89463545 2.89435746,5.00265922 4,5.00000593 L4,5.49069965 C4,6.88763428 5.11928813,8 6.5,8 C7.89033794,8 9,6.87654797 9,5.49069965 L9,5 Z M4,11.0068455 L4,22.9931545 C4,23.5500512 4.44404538,24 4.99180311,24 L23.0081969,24 C23.5446944,24 24,23.5492199 24,22.9931545 L24,11.0068455 C24,10.4499488 23.5559546,10 23.0081969,10 L4.99180311,10 C4.45530558,10 4,10.4507801 4,11.0068455 Z M5,3.50016487 C5,2.67164669 5.66579723,2 6.5,2 C7.32842712,2 8,2.67432225 8,3.50016487 L8,5.49983513 C8,6.32835331 7.33420277,7 6.5,7 C5.67157288,7 5,6.32567775 5,5.49983513 L5,3.50016487 Z M20,3.50016487 C20,2.67164669 20.6657972,2 21.5,2 C22.3284271,2 23,2.67432225 23,3.50016487 L23,5.49983513 C23,6.32835331 22.3342028,7 21.5,7 C20.6715729,7 20,6.32567775 20,5.49983513 L20,3.50016487 Z M18,18.4904785 C18,18.2195947 18.2150574,18 18.4904785,18 L21.5095215,18 C21.7804053,18 22,18.2150574 22,18.4904785 L22,21.5095215 C22,21.7804053 21.7849426,22 21.5095215,22 L18.4904785,22 C18.2195947,22 18,21.7849426 18,21.5095215 L18,18.4904785 Z M12,18.4904785 C12,18.2195947 12.2150574,18 12.4904785,18 L15.5095215,18 C15.7804053,18 16,18.2150574 16,18.4904785 L16,21.5095215 C16,21.7804053 15.7849426,22 15.5095215,22 L12.4904785,22 C12.2195947,22 12,21.7849426 12,21.5095215 L12,18.4904785 Z M6,18.4904785 C6,18.2195947 6.21505737,18 6.49047852,18 L9.50952148,18 C9.78040529,18 10,18.2150574 10,18.4904785 L10,21.5095215 C10,21.7804053 9.78494263,22 9.50952148,22 L6.49047852,22 C6.21959471,22 6,21.7849426 6,21.5095215 L6,18.4904785 Z M18,12.4904785 C18,12.2195947 18.2150574,12 18.4904785,12 L21.5095215,12 C21.7804053,12 22,12.2150574 22,12.4904785 L22,15.5095215 C22,15.7804053 21.7849426,16 21.5095215,16 L18.4904785,16 C18.2195947,16 18,15.7849426 18,15.5095215 L18,12.4904785 Z M12,12.4904785 C12,12.2195947 12.2150574,12 12.4904785,12 L15.5095215,12 C15.7804053,12 16,12.2150574 16,12.4904785 L16,15.5095215 C16,15.7804053 15.7849426,16 15.5095215,16 L12.4904785,16 C12.2195947,16 12,15.7849426 12,15.5095215 L12,12.4904785 Z M6,12.4904785 C6,12.2195947 6.21505737,12 6.49047852,12 L9.50952148,12 C9.78040529,12 10,12.2150574 10,12.4904785 L10,15.5095215 C10,15.7804053 9.78494263,16 9.50952148,16 L6.49047852,16 C6.21959471,16 6,15.7849426 6,15.5095215 L6,12.4904785 Z"></path>
        </g>
    </g>
</svg>