<?xml version="1.0" encoding="UTF-8"?>
<svg width="28px" height="28px" viewBox="0 0 28 28" version="1.1" xmlns="http://www.w3.org/2000/svg" xmlns:xlink="http://www.w3.org/1999/xlink">
    <!-- Generator: Sketch 46.2 (44496) - http://www.bohemiancoding.com/sketch -->
    <title>constraints</title>
    <desc>Created with Sketch.</desc>
    <defs></defs>
    <g id="Icons" stroke="none" stroke-width="1" fill="none" fill-rule="evenodd">
        <g id="constraints" fill="#63666A">
            <path d="M11.9499909,17 L19.4996527,17 C19.7759869,17 20,17.2319336 20,17.5 C20,17.7761424 19.7709994,18 19.4996527,18 L11.9499909,18 C11.7183558,19.1411202 10.709479,20 9.5,20 C8.11928813,20 7,18.8807119 7,17.5 C7,16.1192881 8.11928813,15 9.5,15 C10.709479,15 11.7183558,15.8588798 11.9499909,17 Z M16.0500091,11 L8.50034732,11 C8.22401312,11 8,10.7680664 8,10.5 C8,10.2238576 8.22900057,10 8.50034732,10 L16.0500091,10 C16.2816442,8.85887984 17.290521,8 18.5,8 C19.8807119,8 21,9.11928813 21,10.5 C21,11.8807119 19.8807119,13 18.5,13 C17.290521,13 16.2816442,12.1411202 16.0500091,11 Z M10.5127563,26 L5,26 C3.34325,26 2,24.65675 2,23 L2,5 C2,3.34325 3.34325,2 5,2 L10.5127563,2 L10.5127563,2.00005311 C11.3353102,2.00690493 12,2.67582915 12,3.5 C12,4.32417085 11.3353102,4.99309507 10.5127563,5 L6.5,5 C5.672,5 5,5.672 5,6.5 L5,21.5 C5,22.328 5.672,23 6.5,23 L10.5127563,23 C11.3353102,23.0069049 12,23.6758292 12,24.5 C12,25.3241708 11.3353102,25.9930951 10.5127563,25.9999469 L10.5127563,26 Z M17.4872437,26 L17.4872437,25.9999469 C16.6646898,25.9930951 16,25.3241708 16,24.5 C16,23.6758292 16.6646898,23.0069049 17.4872437,23 L21.5,23 C22.328,23 23,22.328 23,21.5 L23,6.5 C23,5.672 22.328,5 21.5,5 L17.4872437,5 C16.6646898,4.99309507 16,4.32417085 16,3.5 C16,2.67582915 16.6646898,2.00690493 17.4872437,2.00005311 L17.4872437,2 L23,2 C24.65675,2 26,3.34325 26,5 L26,23 C26,24.65675 24.65675,26 23,26 L17.4872437,26 Z"></path>
        </g>
    </g>
</svg>