<?xml version="1.0" encoding="UTF-8"?>
<svg width="28px" height="28px" viewBox="0 0 28 28" version="1.1" xmlns="http://www.w3.org/2000/svg" xmlns:xlink="http://www.w3.org/1999/xlink">
    <!-- Generator: Sketch 46.2 (44496) - http://www.bohemiancoding.com/sketch -->
    <title>constraints-alerted</title>
    <desc>Created with Sketch.</desc>
    <defs></defs>
    <g id="Icons" stroke="none" stroke-width="1" fill="none" fill-rule="evenodd">
        <g id="constraints-alerted">
            <g transform="translate(2.000000, 1.000000)">
                <path d="M12.0056888,9 C11.9848838,9.34093886 12.0256567,9.67963803 12.1207011,10 L6.50034732,10 C6.22401312,10 6,9.76806641 6,9.5 C6,9.22385763 6.22900057,9 6.50034732,9 L12.0056888,9 Z M21,12 L24,12 L24,22 C24,23.65675 22.65675,25 21,25 L15.4872437,25 L15.4872437,24.9999469 C14.6646898,24.9930951 14,24.3241708 14,23.5 C14,22.6758292 14.6646898,22.0069049 15.4872437,22 L19.5,22 C20.328,22 21,21.328 21,20.5 L21,12 Z M14.6556735,3.73999244 C14.2598532,3.4699356 14,3.01531378 14,2.5 C14,1.67582915 14.6646898,1.00690493 15.4872437,1.00005311 L15.4872437,1 L16.2091252,1 L14.6556735,3.73999244 Z M9.94999094,16 L17.4996527,16 C17.7759869,16 18,16.2319336 18,16.5 C18,16.7761424 17.7709994,17 17.4996527,17 L9.94999094,17 C9.71835578,18.1411202 8.70947896,19 7.5,19 C6.11928813,19 5,17.8807119 5,16.5 C5,15.1192881 6.11928813,14 7.5,14 C8.70947896,14 9.71835578,14.8588798 9.94999094,16 Z M8.51275635,25 L3,25 C1.34325,25 0,23.65675 0,22 L0,4 C0,2.34325 1.34325,1 3,1 L8.51275635,1 L8.51275635,1.00005311 C9.33531019,1.00690493 10,1.67582915 10,2.5 C10,3.32417085 9.33531019,3.99309507 8.51275635,4 L4.5,4 C3.672,4 3,4.672 3,5.5 L3,20.5 C3,21.328 3.672,22 4.5,22 L8.51275635,22 C9.33531019,22.0069049 10,22.6758292 10,23.5 C10,24.3241708 9.33531019,24.9930951 8.51275635,24.9999469 L8.51275635,25 Z" id="constraints-notched" fill="#63666A"></path>
                <path d="M24.8871116,8.75249357 C25.1966854,9.29852261 24.8330097,10 24.2403513,10 L14.7596487,10 C14.1669903,10 13.8033146,9.29852261 14.1128884,8.75249357 L18.8532397,0.391418027 C19.1491281,-0.130472676 19.8508719,-0.130472676 20.1467603,0.391418027 L24.8871116,8.75249357 Z M18.5,3.0093689 L18.5,4.9906311 C18.5,5.55664682 18.9477153,6 19.5,6 C20.0561352,6 20.5,5.54809015 20.5,4.9906311 L20.5,3.0093689 C20.5,2.44335318 20.0522847,2 19.5,2 C18.9438648,2 18.5,2.45190985 18.5,3.0093689 Z M19.5,9 C20.0522847,9 20.5,8.55228475 20.5,8 C20.5,7.44771525 20.0522847,7 19.5,7 C18.9477153,7 18.5,7.44771525 18.5,8 C18.5,8.55228475 18.9477153,9 19.5,9 Z" id="alert-copy-2" fill="#FFC842"></path>
            </g>
        </g>
    </g>
</svg>