<?xml version="1.0" encoding="UTF-8"?>
<svg width="28px" height="28px" viewBox="0 0 28 28" version="1.1" xmlns="http://www.w3.org/2000/svg" xmlns:xlink="http://www.w3.org/1999/xlink">
    <!-- Generator: Sketch 46.2 (44496) - http://www.bohemiancoding.com/sketch -->
    <title>creative-lengths</title>
    <desc>Created with Sketch.</desc>
    <defs></defs>
    <g id="Icons" stroke="none" stroke-width="1" fill="none" fill-rule="evenodd">
        <g id="creative-lengths" fill="#63666A">
            <path d="M7.00386218,2 L2.99077797,2 C2.45097518,2 2,2.44358641 2,2.99077797 L2,7.00922203 C2,7.54902482 2.44358641,8 2.99077797,8 L7.00386218,8 L18.0014977,8 C18.5525106,8 19,7.55641359 19,7.00922203 L19,2.99077797 C19,2.45097518 18.5529553,2 18.0014977,2 L7.00386218,2 Z M20.9961378,20 L25.009222,20 C25.5564136,20 26,20.4509752 26,20.990778 L26,25.009222 C26,25.5564136 25.5490248,26 25.009222,26 L20.9961378,26 L9.99850233,26 C9.44704472,26 9,25.5490248 9,25.009222 L9,20.990778 C9,20.4435864 9.44748943,20 9.99850233,20 L20.9961378,20 Z M21.9966167,11 L15.9975446,11 C15.4463114,11 15,11.4435864 15,11.990778 L15,16.009222 C15,16.5490248 15.446616,17 15.9975446,17 L21.9966167,17 L25.009222,17 C25.5490248,17 26,16.5564136 26,16.009222 L26,11.990778 C26,11.4509752 25.5564136,11 25.009222,11 L21.9966167,11 Z M6.50338334,11 L2.99077797,11 C2.45097518,11 2,11.4435864 2,11.990778 L2,16.009222 C2,16.5490248 2.44358641,17 2.99077797,17 L6.50338334,17 L13.0024554,17 C13.5536886,17 14,16.5564136 14,16.009222 L14,11.990778 C14,11.4509752 13.553384,11 13.0024554,11 L6.50338334,11 Z M20,2.99077797 C20,2.44358641 20.4509752,2 20.990778,2 L25.009222,2 C25.5564136,2 26,2.45097518 26,2.99077797 L26,7.00922203 C26,7.55641359 25.5490248,8 25.009222,8 L20.990778,8 C20.4435864,8 20,7.54902482 20,7.00922203 L20,2.99077797 Z M2,20.990778 C2,20.4435864 2.45097518,20 2.99077797,20 L7.00922203,20 C7.55641359,20 8,20.4509752 8,20.990778 L8,25.009222 C8,25.5564136 7.54902482,26 7.00922203,26 L2.99077797,26 C2.44358641,26 2,25.5490248 2,25.009222 L2,20.990778 Z"></path>
        </g>
    </g>
</svg>