<?xml version="1.0" encoding="UTF-8"?>
<svg width="28px" height="28px" viewBox="0 0 28 28" version="1.1" xmlns="http://www.w3.org/2000/svg" xmlns:xlink="http://www.w3.org/1999/xlink">
    <!-- Generator: Sketch 46.2 (44496) - http://www.bohemiancoding.com/sketch -->
    <title>customize-view</title>
    <desc>Created with Sketch.</desc>
    <defs></defs>
    <g id="Icons" stroke="none" stroke-width="1" fill="none" fill-rule="evenodd">
        <g id="customize-view" fill="#63666A">
            <path d="M2,2.99077797 C2,2.44358641 2.45097518,2 2.99077797,2 L7.00922203,2 C7.55641359,2 8,2.45097518 8,2.99077797 L8,7.00922203 C8,7.55641359 7.54902482,8 7.00922203,8 L2.99077797,8 C2.44358641,8 2,7.54902482 2,7.00922203 L2,2.99077797 Z M20,2.99077797 C20,2.44358641 20.4509752,2 20.990778,2 L25.009222,2 C25.5564136,2 26,2.45097518 26,2.99077797 L26,7.00922203 C26,7.55641359 25.5490248,8 25.009222,8 L20.990778,8 C20.4435864,8 20,7.54902482 20,7.00922203 L20,2.99077797 Z M2,11.990778 C2,11.4435864 2.45097518,11 2.99077797,11 L7.00922203,11 C7.55641359,11 8,11.4509752 8,11.990778 L8,16.009222 C8,16.5564136 7.54902482,17 7.00922203,17 L2.99077797,17 C2.44358641,17 2,16.5490248 2,16.009222 L2,11.990778 Z M11,11.990778 C11,11.4435864 11.4509752,11 11.990778,11 L16.009222,11 C16.5564136,11 17,11.4509752 17,11.990778 L17,16.009222 C17,16.5564136 16.5490248,17 16.009222,17 L11.990778,17 C11.4435864,17 11,16.5490248 11,16.009222 L11,11.990778 Z M2,20.990778 C2,20.4435864 2.45097518,20 2.99077797,20 L7.00922203,20 C7.55641359,20 8,20.4509752 8,20.990778 L8,25.009222 C8,25.5564136 7.54902482,26 7.00922203,26 L2.99077797,26 C2.44358641,26 2,25.5490248 2,25.009222 L2,20.990778 Z M20,20.990778 C20,20.4435864 20.4509752,20 20.990778,20 L25.009222,20 C25.5564136,20 26,20.4509752 26,20.990778 L26,25.009222 C26,25.5564136 25.5490248,26 25.009222,26 L20.990778,26 C20.4435864,26 20,25.5490248 20,25.009222 L20,20.990778 Z M11,20.990778 C11,20.4435864 11.4509752,20 11.990778,20 L16.009222,20 C16.5564136,20 17,20.4509752 17,20.990778 L17,25.009222 C17,25.5564136 16.5490248,26 16.009222,26 L11.990778,26 C11.4435864,26 11,25.5490248 11,25.009222 L11,20.990778 Z M11,2.99077797 C11,2.44358641 11.4509752,2 11.990778,2 L16.009222,2 C16.5564136,2 17,2.45097518 17,2.99077797 L17,7.00922203 C17,7.55641359 16.5490248,8 16.009222,8 L11.990778,8 C11.4435864,8 11,7.54902482 11,7.00922203 L11,2.99077797 Z"></path>
        </g>
    </g>
</svg>