<?xml version="1.0" encoding="UTF-8"?>
<svg width="28px" height="28px" viewBox="0 0 28 28" version="1.1" xmlns="http://www.w3.org/2000/svg" xmlns:xlink="http://www.w3.org/1999/xlink">
    <!-- Generator: Sketch 46.2 (44496) - http://www.bohemiancoding.com/sketch -->
    <title>duplicate</title>
    <desc>Created with Sketch.</desc>
    <defs></defs>
    <g id="Icons" stroke="none" stroke-width="1" fill="none" fill-rule="evenodd">
        <g id="duplicate" fill="#63666A" fill-rule="nonzero">
            <path d="M20,18 L22.9905224,18 C24.6633689,18 26,16.652611 26,14.9905224 L26,5.00947762 C26,3.33663106 24.652611,2 22.9905224,2 L13.0094776,2 C11.3366311,2 10,3.34738902 10,5.00947762 L10,8 L13,8 L13,5.84123135 C13,5.37260707 13.371687,5 13.8412313,5 L22.1587687,5 C22.6273929,5 23,5.37168703 23,5.84123135 L23,14.1587687 C23,14.6273929 22.628313,15 22.1587687,15 L20,15 L20,18 Z M2,13.0094776 C2,11.347389 3.33663106,10 5.00947762,10 L14.9905224,10 C16.652611,10 18,11.3366311 18,13.0094776 L18,22.9905224 C18,24.652611 16.6633689,26 14.9905224,26 L5.00947762,26 C3.34738902,26 2,24.6633689 2,22.9905224 L2,13.0094776 Z M5,13.8412313 L5,22.1587687 C5,22.628313 5.37260707,23 5.84123135,23 L14.1587687,23 C14.628313,23 15,22.6273929 15,22.1587687 L15,13.8412313 C15,13.371687 14.6273929,13 14.1587687,13 L5.84123135,13 C5.37168703,13 5,13.3726071 5,13.8412313 Z"></path>
        </g>
    </g>
</svg>