<?xml version="1.0" encoding="UTF-8"?>
<svg width="28px" height="28px" viewBox="0 0 28 28" version="1.1" xmlns="http://www.w3.org/2000/svg" xmlns:xlink="http://www.w3.org/1999/xlink">
    <!-- Generator: Sketch 46.2 (44496) - http://www.bohemiancoding.com/sketch -->
    <title>glossary</title>
    <desc>Created with Sketch.</desc>
    <defs></defs>
    <g id="Icons" stroke="none" stroke-width="1" fill="none" fill-rule="evenodd">
        <g id="glossary" fill="#63666A">
            <path d="M21.8629289,4.31141049 C23.1025481,4.66352748 24,5.6934823 24,6.90909091 L24,23.2727273 C24,24.7788636 22.6223077,26 20.9230769,26 L14,26 L7.07692308,26 C5.37769231,26 4,24.7788636 4,23.2727273 L4,14 L4,4.72727273 C4,3.22113636 5.23267206,2 6.75303644,2 L12.9473684,2.01507177 L19.1417004,2 C20.5193386,2 21.660764,3.00262637 21.8629289,4.31141049 L21.8629289,4.31141049 Z M12.3305037,17.1554252 L13.7679683,17.1554252 L10.672326,8.54545455 L9.20090549,8.54545455 L6.10526316,17.1554252 L7.53140917,17.1554252 L8.34069044,14.7741935 L11.5042445,14.7741935 L12.3305037,17.1554252 Z M11.147708,13.5659824 L8.73684211,13.5659824 L9.48387097,11.3313783 C9.68006135,10.7605055 9.82908834,10.2346065 9.93095642,9.75366569 C9.96868534,9.91006921 10.0375396,10.1564011 10.1375212,10.4926686 C10.2375029,10.8289362 10.3157892,11.075268 10.3723826,11.2316716 L11.147708,13.5659824 Z M18.6349745,17.1554252 L18.368987,16.2521994 L18.3237125,16.2521994 C18.0218812,16.6471183 17.7181679,16.9159328 17.4125637,17.058651 C17.1069594,17.2013692 16.7145846,17.2727273 16.2354273,17.2727273 C15.6204459,17.2727273 15.1403526,17.100686 14.795133,16.7565982 C14.4499134,16.4125105 14.2773062,15.9257118 14.2773062,15.2961877 C14.2773062,14.6275626 14.5168812,14.1231689 14.9960385,13.7829912 C15.4751958,13.4428135 16.2052394,13.2570872 17.1861913,13.2258065 L18.2671194,13.1906158 L18.2671194,12.8445748 C18.2671194,12.4301055 18.1737417,12.1202356 17.9869836,11.914956 C17.8002254,11.7096764 17.5106603,11.6070381 17.1182796,11.6070381 C16.7975838,11.6070381 16.4900977,11.6559135 16.1958121,11.7536657 C15.9015265,11.8514179 15.6185639,11.9667638 15.3469157,12.0997067 L14.9168081,11.1143695 C15.2563684,10.9305954 15.6279927,10.7908118 16.0316921,10.6950147 C16.4353916,10.5992175 16.8164479,10.5513196 17.1748727,10.5513196 C17.9709529,10.5513196 18.5717769,10.731181 18.9773628,11.0909091 C19.3829486,11.4506372 19.5857385,12.0156364 19.5857385,12.7859238 L19.5857385,17.1554252 L18.6349745,17.1554252 Z M16.6542162,16.2170088 C17.1371463,16.2170088 17.5248052,16.0772252 17.8172043,15.797654 C18.1096034,15.5180827 18.2558008,15.1261022 18.2558008,14.6217009 L18.2558008,14.058651 L17.4521788,14.0938416 C16.8258788,14.1173022 16.3703089,14.2258055 16.0854556,14.4193548 C15.8006022,14.6129042 15.6581777,14.9090889 15.6581777,15.3079179 C15.6581777,15.5972644 15.7411801,15.8211136 15.9071873,15.9794721 C16.0731946,16.1378307 16.3222017,16.2170088 16.6542162,16.2170088 Z M5.05263158,23.2358742 L5.05263158,23.2727275 C5.05263158,24.1352274 5.9257085,24.9090909 7.07692308,24.9090909 L14,24.9090909 L20.9230769,24.9090909 C22.0742915,24.9090909 22.9473684,24.1352274 22.9473684,23.2727275 L22.9473684,6.90909312 C22.9473684,6.31341085 22.5309176,5.76000743 21.8947368,5.47461838 L21.8947368,21.0909091 C21.8947368,22.5970455 20.6620648,23.8181818 19.1417004,23.8181818 L12.9473684,23.8181818 L6.75303644,23.8181818 C6.11128717,23.8181818 5.52079613,23.6006115 5.05263158,23.2358742 L5.05263158,23.2358742 Z"></path>
        </g>
    </g>
</svg>