<?xml version="1.0" encoding="UTF-8"?>
<svg width="28px" height="28px" viewBox="0 0 28 28" version="1.1" xmlns="http://www.w3.org/2000/svg" xmlns:xlink="http://www.w3.org/1999/xlink">
    <!-- Generator: Sketch 46.2 (44496) - http://www.bohemiancoding.com/sketch -->
    <title>media-plan-details-alerted</title>
    <desc>Created with Sketch.</desc>
    <defs></defs>
    <g id="Icons" stroke="none" stroke-width="1" fill="none" fill-rule="evenodd">
        <g id="media-plan-details-alerted">
            <g transform="translate(4.000000, 1.000000)">
                <path d="M20,12 L20,22 C20,23.65675 18.6223077,25 16.9230769,25 L3.07692308,25 C1.37769231,25 0,23.65675 0,22 L0,4 C0,2.34325 1.37769231,1 3.07692308,1 L11,1.01897368 L11,6.6602848 L10.373059,7.7660891 C9.33337315,9.5998967 10.5776887,12 12.7596487,12 L20,12 Z M12,4.89647552 L12,1 L13.4098207,2.4098207 L12,4.89647552 Z M3,17.5 C3,17.7680664 3.22308192,18 3.49826741,18 L16.5017326,18 C16.7800934,18 17,17.7761424 17,17.5 C17,17.2319336 16.7769181,17 16.5017326,17 L3.49826741,17 C3.21990657,17 3,17.2238576 3,17.5 Z M3,20.5 C3,20.7680664 3.22539004,21 3.50342274,21 L9.49657726,21 C9.76709747,21 10,20.7761424 10,20.5 C10,20.2319336 9.77460996,20 9.49657726,20 L3.50342274,20 C3.23290253,20 3,20.2238576 3,20.5 Z M3,14.5 C3,14.7680664 3.22308192,15 3.49826741,15 L16.5017326,15 C16.7800934,15 17,14.7761424 17,14.5 C17,14.2319336 16.7769181,14 16.5017326,14 L3.49826741,14 C3.21990657,14 3,14.2238576 3,14.5 Z" id="media-plan-details-notched" fill="#63666A"></path>
                <path d="M22.8871116,8.75249357 C23.1966854,9.29852261 22.8330097,10 22.2403513,10 L12.7596487,10 C12.1669903,10 11.8033146,9.29852261 12.1128884,8.75249357 L16.8532397,0.391418027 C17.1491281,-0.130472676 17.8508719,-0.130472676 18.1467603,0.391418027 L22.8871116,8.75249357 Z M16.5,3.0093689 L16.5,4.9906311 C16.5,5.55664682 16.9477153,6 17.5,6 C18.0561352,6 18.5,5.54809015 18.5,4.9906311 L18.5,3.0093689 C18.5,2.44335318 18.0522847,2 17.5,2 C16.9438648,2 16.5,2.45190985 16.5,3.0093689 Z M17.5,9 C18.0522847,9 18.5,8.55228475 18.5,8 C18.5,7.44771525 18.0522847,7 17.5,7 C16.9477153,7 16.5,7.44771525 16.5,8 C16.5,8.55228475 16.9477153,9 17.5,9 Z" id="alert-copy" fill="#FFC842"></path>
            </g>
        </g>
    </g>
</svg>