<?xml version="1.0" encoding="UTF-8"?>
<svg width="28px" height="28px" viewBox="0 0 28 28" version="1.1" xmlns="http://www.w3.org/2000/svg" xmlns:xlink="http://www.w3.org/1999/xlink">
    <!-- Generator: Sketch 46.2 (44496) - http://www.bohemiancoding.com/sketch -->
    <title>move</title>
    <desc>Created with Sketch.</desc>
    <defs></defs>
    <g id="Icons" stroke="none" stroke-width="1" fill="none" fill-rule="evenodd">
        <g id="move" fill="#63666A" fill-rule="nonzero">
            <path d="M7,16 L12,16 L12,21 L10.4452363,21 C10.0493667,21 9.85111455,21.538571 10.1310366,21.8535534 L12,23.9566056 L12,24 L12.0385642,24 L13.6858003,25.8535534 C13.859328,26.0488155 14.140672,26.0488155 14.3141997,25.8535534 L15.9614358,24 L16,24 L16,23.9566056 L17.8689634,21.8535534 C18.1488855,21.538571 17.9506333,21 17.5547637,21 L16,21 L16,16 L21,16 L21,17.5547637 C21,17.9506333 21.538571,18.1488855 21.8535534,17.8689634 L23.9566056,16 L24,16 L24,15.9614358 L25.8535534,14.3141997 C26.0488155,14.140672 26.0488155,13.859328 25.8535534,13.6858003 L24,12.0385642 L24,12 L23.9566056,12 L21.8535534,10.1310366 C21.538571,9.85111455 21,10.0493667 21,10.4452363 L21,12 L16,12 L16,7 L17.5547637,7 C17.9506333,7 18.1488855,6.46142904 17.8689634,6.14644661 L14.3141997,2.14644661 C14.140672,1.95118446 13.859328,1.95118446 13.6858003,2.14644661 L10.1310366,6.14644661 C9.85111455,6.46142904 10.0493667,7 10.4452363,7 L12,7 L12,12 L7,12 L7,10.4452363 C7,10.0493667 6.46142904,9.85111455 6.14644661,10.1310366 L2.14644661,13.6858003 C1.95118446,13.859328 1.95118446,14.140672 2.14644661,14.3141997 L6.14644661,17.8689634 C6.46142904,18.1488855 7,17.9506333 7,17.5547637 L7,16 Z"></path>
        </g>
    </g>
</svg>