<?xml version="1.0" encoding="UTF-8"?>
<svg width="28px" height="28px" viewBox="0 0 28 28" version="1.1" xmlns="http://www.w3.org/2000/svg" xmlns:xlink="http://www.w3.org/1999/xlink">
    <!-- Generator: Sketch 46.2 (44496) - http://www.bohemiancoding.com/sketch -->
    <title>notice</title>
    <desc>Created with Sketch.</desc>
    <defs></defs>
    <g id="Icons" stroke="none" stroke-width="1" fill="none" fill-rule="evenodd">
        <g id="notice" fill="#63666A">
            <path d="M14,2 C20.627,2 26,7.37 26,14 C26,20.63 20.627,26 14,26 C7.373,26 2,20.63 2,14 C2,7.37 7.373,2 14,2 Z M20.4478814,10.2715689 C20.6892515,9.86698214 20.6892515,9.86698214 20.7380539,9.78504733 C21.276928,8.90200179 20.9571671,7.75246839 20.028554,7.2477168 C19.1218681,6.73758005 17.943715,7.04151311 17.4081248,7.91917731 L11.8488621,17.2207462 L9.28448835,14.9193905 L9.33153699,14.9641193 C8.60171502,14.2209425 7.38275574,14.1865606 6.60829619,14.8892838 C5.83260014,15.5744955 5.7922772,16.7617347 6.52470519,17.5075652 L6.57148357,17.5520541 L10.9759087,21.4640867 L10.9282561,21.4187064 C11.65713,22.1628865 12.8767849,22.1973048 13.6514078,21.4944333 C13.8173908,21.3507304 14.0839795,20.9091791 17.3045897,15.5309718 C18.0583191,14.2722491 18.8644927,12.9236942 19.6697614,11.57515 C19.9516005,11.1031679 20.2131974,10.6648963 20.4478814,10.2715689 Z"></path>
        </g>
    </g>
</svg>