<?xml version="1.0" encoding="UTF-8"?>
<svg width="28px" height="28px" viewBox="0 0 28 28" version="1.1" xmlns="http://www.w3.org/2000/svg" xmlns:xlink="http://www.w3.org/1999/xlink">
    <!-- Generator: Sketch 46.2 (44496) - http://www.bohemiancoding.com/sketch -->
    <title>rates</title>
    <desc>Created with Sketch.</desc>
    <defs></defs>
    <g id="Icons" stroke="none" stroke-width="1" fill="none" fill-rule="evenodd">
        <g id="rates" fill="#63666A">
            <path d="M12.9999775,23.9921211 C13.3276098,24.0082603 13.6598084,24.0165949 13.9957826,24.0170441 C14.3346528,24.0174972 14.6696604,24.0099132 15,23.9943708 L15,25.0000398 C15,25.5452911 15.4477153,26 16,26 C16.5561352,26 17,25.5523026 17,25.0000398 L17,23.7937797 C21.0495355,23.1558408 23.996913,21.1649196 23.9999993,18.0014634 C23.9979416,15.7942486 22.6298753,14.3523611 20.3335206,13.5560845 C19.367298,13.2210402 18.4427137,13.0168689 17,12.8246286 L17,11.7324356 C17.5978014,11.3866262 18,10.7402824 18,10 C18,8.8954305 17.1045695,8 16,8 C14.8954305,8 14,8.8954305 14,10 C14,10.7402824 14.4021986,11.3866262 15,11.7324356 L15,12.5936914 C14.7306335,12.5657485 14.4470312,12.5371266 14.147701,12.5075086 C14.1465949,12.5073991 14.1465949,12.5073991 14.1454887,12.5072897 C13.7435098,12.4675148 13.3619556,12.4274744 13,12.3868703 L13,6.99496819 C13.3247364,6.97582615 13.6584362,6.9659092 14,6.9659092 C18.0538594,6.96590925 21,8.3628315 21,10 L24,10 C24,6.83118259 21.0417023,4.83143153 16.9822088,4.19034859 C16.9938911,4.12905353 17,4.06576732 17,4.00104344 L17,2.99895656 C17,2.44266033 16.5522847,2 16,2 C15.4438648,2 15,2.44724809 15,2.99895656 L15,3.98979729 C14.6710156,3.97389907 14.3374161,3.96590921 14,3.9659092 C13.6625839,3.9659092 13.3289844,3.97389906 13,3.98979727 L13,2.9999602 C13,2.45470893 12.5522847,2 12,2 C11.4438648,2 11,2.44769743 11,2.9999602 L11,4.19316797 C6.94965713,4.83727898 4,6.83581353 4,10 C4,12.20513 5.36747754,13.6477665 7.66393393,14.4441835 C8.63067306,14.7794511 9.55540991,14.9835919 11,15.1759383 L11,16.2675644 C10.4021986,16.6133738 10,17.2597176 10,18 C10,19.1045695 10.8954305,20 12,20 C13.1045695,20 14,19.1045695 14,18 C14,17.2597176 13.5978014,16.6133738 13,16.2675644 L13,15.4067609 C13.2687012,15.4346279 13.5515706,15.4631731 13.8500884,15.4927107 C13.8511945,15.4928202 13.8511945,15.4928202 13.8523006,15.4929296 C14.2550899,15.5327847 14.6373796,15.5729095 15,15.6136041 L15,20.9894209 C14.6752221,21.0080657 14.3414556,21.0175036 13.999794,21.0170468 C9.9499886,21.0116317 7,19.6164253 7,18 L4,18 C4,21.1550534 6.96112848,23.1487121 11.0215756,23.790786 C11.0074313,23.8579322 11,23.92757 11,23.9989566 L11,25.0010434 C11,25.5573397 11.4477153,26 12,26 C12.5561352,26 13,25.5527519 13,25.0010434 L13,23.9989566 C13,23.9966762 12.9999925,23.9943977 12.9999775,23.9921211 L12.9999775,23.9921211 Z M11,7.247605 C8.57223548,7.73624111 7,8.80401567 7,10 C7,11.067874 8.01536943,11.661529 11,12.1253148 L11,7.247605 L11,7.247605 Z M17,15.8753081 C19.9829548,16.3391709 20.9990035,16.9332242 21.0000007,18.0014002 C20.9988352,19.1939284 19.4277744,20.256404 17,20.7402795 L17,15.8753081 L17,15.8753081 Z"></path>
        </g>
    </g>
</svg>