<?xml version="1.0" encoding="UTF-8"?>
<svg width="28px" height="28px" viewBox="0 0 28 28" version="1.1" xmlns="http://www.w3.org/2000/svg" xmlns:xlink="http://www.w3.org/1999/xlink">
    <!-- Generator: Sketch 46.2 (44496) - http://www.bohemiancoding.com/sketch -->
    <title>refresh</title>
    <desc>Created with Sketch.</desc>
    <defs></defs>
    <g id="Icons" stroke="none" stroke-width="1" fill="none" fill-rule="evenodd">
        <g id="refresh" fill="#63666A">
            <path d="M25.2467989,16.5781585 L17.7147878,16.5781585 C17.2990208,16.5781585 16.9615867,16.9314775 16.9615867,17.3633119 C16.9615867,17.7951463 17.3555109,18.1013562 17.6771278,18.4311206 L19.7702737,20.6138473 C18.198343,22.0035689 16.1707256,22.8515346 13.9472759,22.8515346 C9.47024856,22.8515346 5.76299272,19.4518201 5.04443887,15 L2,15 C2.74340949,21.1948608 7.80266131,25.9921485 13.9472759,25.9921485 C17.003766,25.9921485 19.7875973,24.7987152 21.910118,22.8436831 L24.0687924,25.0970735 C24.4740146,25.5210564 24.8310319,26 25.2467989,26 C25.6625659,26 26,25.6466809 26,25.2148465 L26,17.3633119 C26,17.2690935 26,16.5781585 25.2467989,16.5781585 L25.2467989,16.5781585 Z M2.7532011,11.4218415 L10.2852122,11.4218415 C10.7009792,11.4218415 11.0384133,11.0685225 11.0384133,10.6366881 C11.0384133,10.2048537 10.6444891,9.89864383 10.3228722,9.56887937 L8.22972634,7.38615275 C9.80165704,5.99643112 11.8292744,5.14846538 14.0527241,5.14846538 C18.5297514,5.14846538 22.2370073,8.54817987 22.9555611,13 L26,13 C25.2565905,6.80513919 20.1973387,2.00785153 14.0527241,2.00785153 C10.9969872,2.00785153 8.21240271,3.2012848 6.089882,5.15631692 L3.93196083,2.90292648 C3.52598544,2.47894361 3.16896811,2 2.7532011,2 C2.33743409,2 2,2.35331906 2,2.78515346 L2,10.6366881 C2,10.7309065 2,11.4218415 2.7532011,11.4218415 L2.7532011,11.4218415 Z"></path>
        </g>
    </g>
</svg>