<?xml version="1.0" encoding="UTF-8"?>
<svg width="28px" height="28px" viewBox="0 0 28 28" version="1.1" xmlns="http://www.w3.org/2000/svg" xmlns:xlink="http://www.w3.org/1999/xlink">
    <!-- Generator: Sketch 46.2 (44496) - http://www.bohemiancoding.com/sketch -->
    <title>reports</title>
    <desc>Created with Sketch.</desc>
    <defs></defs>
    <g id="Icons" stroke="none" stroke-width="1" fill="none" fill-rule="evenodd">
        <g id="reports" fill="#63666A">
            <path d="M2,2 L2,3 C2,2.44771525 2.44771525,2 3,2 C3.55228475,2 4,2.44771525 4,3 L4,24 L25,24 C25.5522847,24 26,24.4477153 26,25 C26,25.5522847 25.5522847,26 25,26 L3,26 C2.44771525,26 2,25.5522847 2,25 L2,2 Z M5,16.9981014 C5,15.8945804 5.88772964,15 7,15 C8.1045695,15 9,15.8867064 9,16.9981014 L9,21.0018986 C9,22.1054196 8.11227036,23 7,23 C5.8954305,23 5,22.1132936 5,21.0018986 L5,16.9981014 Z M10,13.0085302 C10,11.8992496 10.8877296,11 12,11 C13.1045695,11 14,11.9019504 14,13.0085302 L14,20.9914698 C14,22.1007504 13.1122704,23 12,23 C10.8954305,23 10,22.0980496 10,20.9914698 L10,13.0085302 Z M15,8.99406028 C15,7.8927712 15.8877296,7 17,7 C18.1045695,7 19,7.89451376 19,8.99406028 L19,21.0059397 C19,22.1072288 18.1122704,23 17,23 C15.8954305,23 15,22.1054862 15,21.0059397 L15,8.99406028 Z M20,4.99079514 C20,3.89130934 20.8877296,3 22,3 C23.1045695,3 24,3.89821238 24,4.99079514 L24,21.0092049 C24,22.1086907 23.1122704,23 22,23 C20.8954305,23 20,22.1017876 20,21.0092049 L20,4.99079514 Z"></path>
        </g>
    </g>
</svg>