<?xml version="1.0" encoding="UTF-8"?>
<svg width="28px" height="28px" viewBox="0 0 28 28" version="1.1" xmlns="http://www.w3.org/2000/svg" xmlns:xlink="http://www.w3.org/1999/xlink">
    <!-- Generator: Sketch 46.2 (44496) - http://www.bohemiancoding.com/sketch -->
    <title>search</title>
    <desc>Created with Sketch.</desc>
    <defs></defs>
    <g id="Icons" stroke="none" stroke-width="1" fill="none" fill-rule="evenodd">
        <g id="search" fill="#63666A">
            <path d="M20.6683633,17.792793 L25.848836,22.9732657 C26.0466859,23.1711157 26.0524591,23.4861206 25.8544445,23.6841352 L23.683898,25.8546817 C23.4891456,26.0494341 23.1731615,26.0492061 22.9730285,25.8490731 L17.7941581,20.6702027 C16.1564127,21.7808481 14.2859922,22.3355247 12.1828967,22.3355247 C9.37311454,22.3355247 6.97351954,21.3392894 4.98411172,19.3468188 C2.99470391,17.3543482 2,14.9613294 2,12.1677624 C2,9.37419534 2.99470391,6.98117652 4.98411172,4.98870591 C6.97351954,2.9962353 9.37311454,2 12.1828967,2 C14.9926789,2 17.3871465,2.99110007 19.3662997,4.97330021 C21.3454528,6.95550035 22.3350294,9.3536544 22.3350294,12.1677624 C22.3350294,14.2762921 21.779474,16.1513023 20.6683633,17.792793 Z M6.42079232,6.4245172 C4.82926606,8.01849369 4.03350294,9.93290875 4.03350294,12.1677624 C4.03350294,14.402616 4.82926606,16.3170311 6.42079232,17.9110075 C8.01231857,19.504984 9.93199457,20.3019723 12.1798203,20.3019723 C14.427646,20.3019723 16.3432202,19.5099139 17.9265427,17.9233321 C19.5098652,16.337572 20.3015264,14.4190488 20.3015264,12.1677624 C20.3015264,9.916476 19.5098652,7.99795275 17.9265427,6.41219264 C16.3432202,4.82643253 14.427646,4.03355247 12.1798203,4.03355247 C9.93199457,4.03355247 8.01231857,4.83054072 6.42079232,6.4245172 Z"></path>
        </g>
    </g>
</svg>