<?xml version="1.0" encoding="UTF-8"?>
<svg width="28px" height="28px" viewBox="0 0 28 28" version="1.1" xmlns="http://www.w3.org/2000/svg" xmlns:xlink="http://www.w3.org/1999/xlink">
    <!-- Generator: Sketch 46.2 (44496) - http://www.bohemiancoding.com/sketch -->
    <title>segment</title>
    <desc>Created with Sketch.</desc>
    <defs></defs>
    <g id="Icons" stroke="none" stroke-width="1" fill="none" fill-rule="evenodd">
        <g id="segment" fill="#63666A">
            <path d="M14.0020037,14.0020037 L3.60969886,8.0020037 C6.92340736,2.26249222 14.2624922,0.295990359 20.0020037,3.60969886 C25.7415152,6.92340736 27.708017,14.2624922 24.3943085,20.0020037 C22.400986,23.4545397 18.9510877,25.5418185 15.2689719,25.9357742 L14.0020037,14.0020037 Z M6.50925665,7.3666631 L15.8833818,12.7788168 L17.0268582,23.5493987 L17.0111159,23.5403099 C19.3597217,22.800238 21.3864065,21.2118429 22.6622577,19.0020037 C25.4236815,14.2190775 23.7849299,8.10317341 19.0020037,5.34174967 C14.8021926,2.9169876 9.57461356,3.8848995 6.49281859,7.39513467 L6.50925665,7.3666631 Z M8.0020037,24.3943085 C2.55412907,21.2489767 0.505576119,14.4769514 3.14526979,8.888566 L13.056358,14.6107354 L14.2702503,26.0007507 C12.1442771,26.0503008 9.97831293,25.5353312 8.0020037,24.3943085 Z"></path>
        </g>
    </g>
</svg>