<?xml version="1.0" encoding="UTF-8"?>
<svg width="28px" height="28px" viewBox="0 0 28 28" version="1.1" xmlns="http://www.w3.org/2000/svg" xmlns:xlink="http://www.w3.org/1999/xlink">
    <!-- Generator: Sketch 46.2 (44496) - http://www.bohemiancoding.com/sketch -->
    <title>summary</title>
    <desc>Created with Sketch.</desc>
    <defs></defs>
    <g id="Icons" stroke="none" stroke-width="1" fill="none" fill-rule="evenodd">
        <g id="summary" fill="#63666A">
            <path d="M2,2.99077797 C2,2.44358641 2.44746922,2 3.00069463,2 L24.9993054,2 C25.5519738,2 26,2.45097518 26,2.99077797 L26,7.00922203 C26,7.55641359 25.5525308,8 24.9993054,8 L3.00069463,8 C2.44802625,8 2,7.54902482 2,7.00922203 L2,2.99077797 Z M15,23.0093689 C15,22.4519098 15.444837,22 15.9955775,22 L25.0044225,22 C25.5542648,22 26,22.4433532 26,23.0093689 L26,24.9906311 C26,25.5480902 25.555163,26 25.0044225,26 L15.9955775,26 C15.4457352,26 15,25.5566468 15,24.9906311 L15,23.0093689 Z M2,23.0093689 C2,22.4519098 2.44483697,22 2.9955775,22 L12.0044225,22 C12.5542648,22 13,22.4433532 13,23.0093689 L13,24.9906311 C13,25.5480902 12.555163,26 12.0044225,26 L2.9955775,26 C2.44573523,26 2,25.5566468 2,24.9906311 L2,23.0093689 Z M15,17.0093689 C15,16.4519098 15.444837,16 15.9955775,16 L25.0044225,16 C25.5542648,16 26,16.4433532 26,17.0093689 L26,18.9906311 C26,19.5480902 25.555163,20 25.0044225,20 L15.9955775,20 C15.4457352,20 15,19.5566468 15,18.9906311 L15,17.0093689 Z M2,17.0093689 C2,16.4519098 2.44483697,16 2.9955775,16 L12.0044225,16 C12.5542648,16 13,16.4433532 13,17.0093689 L13,18.9906311 C13,19.5480902 12.555163,20 12.0044225,20 L2.9955775,20 C2.44573523,20 2,19.5566468 2,18.9906311 L2,17.0093689 Z M15,11.0093689 C15,10.4519098 15.444837,10 15.9955775,10 L25.0044225,10 C25.5542648,10 26,10.4433532 26,11.0093689 L26,12.9906311 C26,13.5480902 25.555163,14 25.0044225,14 L15.9955775,14 C15.4457352,14 15,13.5566468 15,12.9906311 L15,11.0093689 Z M2,11.0093689 C2,10.4519098 2.44483697,10 2.9955775,10 L12.0044225,10 C12.5542648,10 13,10.4433532 13,11.0093689 L13,12.9906311 C13,13.5480902 12.555163,14 12.0044225,14 L2.9955775,14 C2.44573523,14 2,13.5566468 2,12.9906311 L2,11.0093689 Z"></path>
        </g>
    </g>
</svg>