<?xml version="1.0" encoding="UTF-8"?>
<svg width="28px" height="28px" viewBox="0 0 28 28" version="1.1" xmlns="http://www.w3.org/2000/svg" xmlns:xlink="http://www.w3.org/1999/xlink">
    <!-- Generator: Sketch 46.2 (44496) - http://www.bohemiancoding.com/sketch -->
    <title>targeting</title>
    <desc>Created with Sketch.</desc>
    <defs></defs>
    <g id="Icons" stroke="none" stroke-width="1" fill="none" fill-rule="evenodd">
        <g id="targeting" fill="#63666A" fill-rule="nonzero">
            <path d="M25,14 C25,20.0751322 20.0751322,25 14,25 C7.92486775,25 3,20.0751322 3,14 C3,7.92486775 7.92486775,3 14,3 C15.7973243,3 17.4939695,3.43105827 18.9921932,4.1954323 L19.008271,5.35811347 L17.5486421,6.82814148 C16.4792869,6.29800814 15.2744452,6 14,6 C9.581722,6 6,9.581722 6,14 C6,18.418278 9.581722,22 14,22 C18.418278,22 22,18.418278 22,14 C22,12.7441221 21.7106119,11.5558344 21.1948809,10.4981821 L22.6981201,9.03215266 L23.8169504,9.03215266 C24.5735955,10.5244004 25,12.2124041 25,14 Z M19.9693328,14.6104034 C19.6634864,17.6374086 17.1076496,20 14,20 C10.6862915,20 8,17.3137085 8,14 C8,10.8992445 10.3521206,8.3478562 13.3694609,8.03273586 C13.3002528,8.16178179 13.240708,8.29942826 13.1922246,8.44534172 L12.1246499,11.6582666 C11.4390037,12.2080688 11,13.052767 11,14 C11,15.6568542 12.3431458,17 14,17 C14.9507654,17 15.7982298,16.557716 16.347872,15.8676692 L19.5351808,14.8006673 C19.6892997,14.7490736 19.8341465,14.6850998 19.9693328,14.6104034 L19.9693328,14.6104034 Z M17.1751724,9.33316232 L20.4921932,5.99250951 L20.4921932,3.08869211 C20.4921932,2.48742406 20.9778005,2 21.5768276,2 C22.1758547,2 22.6614621,2.48742406 22.6614621,3.08869211 L22.661462,5.35476844 L24.9153655,5.35476844 C25.5143926,5.35476844 26,5.8421925 26,6.44346055 C26,7.0447286 25.5143926,7.53215266 24.9153655,7.53215266 L22.0260979,7.53215266 L18.7090772,10.8728055 L19.4691659,11.6357376 C20.0201456,12.1887785 19.7984275,13.1307217 19.0590058,13.3782548 L14.381546,14.9441082 C13.5618908,15.2185007 12.7823136,14.4360072 13.0556835,13.6132856 L14.6157009,8.91832733 C14.8623114,8.17613944 15.8007438,7.95359196 16.3517235,8.50663286 L17.1751724,9.33316232 Z"></path>
        </g>
    </g>
</svg>