<?xml version="1.0" encoding="UTF-8"?>
<svg width="28px" height="28px" viewBox="0 0 28 28" version="1.1" xmlns="http://www.w3.org/2000/svg" xmlns:xlink="http://www.w3.org/1999/xlink">
    <!-- Generator: Sketch 46.2 (44496) - http://www.bohemiancoding.com/sketch -->
    <title>targets</title>
    <desc>Created with Sketch.</desc>
    <defs></defs>
    <g id="Icons" stroke="none" stroke-width="1" fill="none" fill-rule="evenodd">
        <g id="targets" fill="#63666A" fill-rule="nonzero">
            <path d="M14,26 C7.372583,26 2,20.627417 2,14 C2,7.372583 7.372583,2 14,2 C20.627417,2 26,7.372583 26,14 C26,20.627417 20.627417,26 14,26 Z M23,14 C23,9.02943725 18.9705627,5 14,5 C9.02943725,5 5,9.02943725 5,14 C5,18.9705627 9.02943725,23 14,23 C18.9705627,23 23,18.9705627 23,14 Z M14,21 C10.1340068,21 7,17.8659932 7,14 C7,10.1340068 10.1340068,7 14,7 C17.8659932,7 21,10.1340068 21,14 C21,17.8659932 17.8659932,21 14,21 Z M14,18 C16.209139,18 18,16.209139 18,14 C18,11.790861 16.209139,10 14,10 C11.790861,10 10,11.790861 10,14 C10,16.209139 11.790861,18 14,18 Z M14,16 C12.8954305,16 12,15.1045695 12,14 C12,12.8954305 12.8954305,12 14,12 C15.1045695,12 16,12.8954305 16,14 C16,15.1045695 15.1045695,16 14,16 Z"></path>
        </g>
    </g>
</svg>