<?xml version="1.0" encoding="UTF-8"?>
<svg width="28px" height="28px" viewBox="0 0 28 28" version="1.1" xmlns="http://www.w3.org/2000/svg" xmlns:xlink="http://www.w3.org/1999/xlink">
    <!-- Generator: Sketch 46.2 (44496) - http://www.bohemiancoding.com/sketch -->
    <title>tivo-logo</title>
    <desc>Created with Sketch.</desc>
    <defs></defs>
    <g id="Icons" stroke="none" stroke-width="1" fill="none" fill-rule="evenodd">
        <g id="tivo-logo" fill="#63666A">
            <path d="M22.849282,11.6685452 C22.5580805,10.9614511 22.058677,10.5117337 21.2666653,10.3276955 C21.145683,10.3000206 19.0903915,9.81570958 16.4147142,9.60953146 C16.4259684,9.57355407 16.4358158,9.53757668 16.452697,9.50298304 C16.8705078,8.39183519 17.4965206,7.42598065 18.4151417,6.62340811 C18.6571062,6.40754377 18.9145452,6.2027494 19.2001196,6.0394674 C19.436457,5.9066278 19.6840486,5.83467302 19.9583688,5.84574299 C20.1623505,5.85266172 20.3649255,5.87341791 20.5689072,5.89417409 C20.8108717,5.91769777 21.0472091,5.95090767 21.2948007,5.93153523 C21.6957303,5.89694158 21.9320677,5.70183343 22.0024062,5.33514081 C22.0136604,5.28532596 22.0136604,5.23274362 22.0192875,5.18431252 C22.0305416,4.90341213 22.0080333,4.62804672 21.9419151,4.35544881 C21.7013573,3.35638437 21.0964461,2.62438286 20.1018594,2.18158422 C19.8598949,2.0722683 19.6010491,2.00446476 19.3267289,2.00031352 C18.645852,1.98647606 18.161923,2.4320422 18.1562959,3.0671815 C18.1506689,3.31072076 18.21116,3.53903881 18.3054136,3.76182187 C18.3433964,3.84623037 18.3757521,3.92787137 18.4095146,4.0136636 C18.5136156,4.30425021 18.4700057,4.57546438 18.2997865,4.83284109 C18.1844314,4.99889059 18.0409408,5.1414164 17.8819757,5.26595352 C17.4529107,5.59390126 17.0576083,5.94675643 16.6890344,6.33558899 C15.7929217,7.28483858 15.1444005,8.34617158 14.7884876,9.53619294 L14.6013872,9.52927421 C14.3805242,9.52373922 14.161068,9.52927421 13.9359848,9.52927421 C13.7109015,9.52927421 13.6124276,9.52512297 13.3915646,9.52927421 L13.2213454,9.53619294 C12.8640257,8.34478784 12.2155046,7.28483858 11.3207986,6.33558899 C10.9522247,5.94675643 10.5512952,5.59390126 10.1278573,5.26595352 C9.96326516,5.1414164 9.82540166,4.99889059 9.71004648,4.83284109 C9.53982727,4.57546438 9.49621738,4.30425021 9.59469131,4.0136636 C9.6284538,3.92787137 9.6664366,3.84623037 9.69879232,3.76182187 C9.79867302,3.53903881 9.85353706,3.31072076 9.85353706,3.0671815 C9.84790998,2.4320422 9.36398097,1.98647606 8.68310409,2.00031352 C8.4073771,2.00446476 8.14993811,2.0722683 7.90234652,2.18158422 C6.91338694,2.62438286 6.30847567,3.35638437 6.06651116,4.35544881 C6.00039295,4.62804672 5.97929139,4.90341213 5.99054556,5.18431252 C5.99054556,5.23274362 5.99617264,5.28532596 6.00602003,5.33514081 C6.07776532,5.70183343 6.31410275,5.89694158 6.71503231,5.93153523 C6.95699682,5.95090767 7.19896133,5.91769777 7.44092583,5.89417409 C7.64350077,5.87341791 7.84748248,5.85266172 8.0458371,5.84574299 C8.32015733,5.83467302 8.573376,5.9066278 8.80971343,6.0394674 C9.09528782,6.2027494 9.34709972,6.40754377 9.59469131,6.62340811 C10.5119056,7.42598065 11.1393252,8.39183519 11.557136,9.50298304 C11.5726105,9.53757668 11.5838647,9.57217033 11.5951188,9.60676397 C9.16140603,9.77834844 7.41841751,10.1699485 6.8247604,10.2944856 C6.06651116,10.4550001 5.53334518,10.8701238 5.20978799,11.5287868 C5.0662974,11.8304434 4.99595888,12.1500887 5.0001792,12.4821877 C5.0001792,12.6565396 5.03394169,12.8322753 5.0662974,13.0066273 C5.26465203,14.091484 5.2421437,13.9683306 5.48973529,15.0476523 C5.69934408,15.9595408 6.17623925,18.0766718 6.38584804,18.9871765 C6.60530422,19.9557985 7.19333424,20.6698113 8.11617562,21.1305987 C8.60010464,21.3672192 9.1107623,21.4751514 9.64955536,21.4765351 C10.2207041,21.4806863 11.2926632,21.4765351 11.863812,21.4765351 C11.9636927,22.0992207 11.9355573,22.2458978 11.9355573,22.6374978 C11.9355573,23.0969014 11.5402548,23.725122 10.9789534,23.8496591 C10.4246858,23.97558 9.2767612,24.2122005 8.90256028,24.3229001 C7.98534598,24.5941143 7.72087314,25.2500098 7.72087314,25.7274021 C7.72087314,25.8214968 7.75885594,25.9986163 7.75885594,25.9986163 L7.75885594,26 L20.1890792,26 L20.1890792,25.9986163 C20.1890792,25.9986163 20.2228417,25.8214968 20.2228417,25.7274021 C20.2228417,25.2500098 19.9639959,24.5941143 19.0411545,24.3229001 C18.6669536,24.2122005 17.519029,23.97558 16.9633546,23.8496591 C16.40346,23.725122 16.0081576,23.0969014 16.0081576,22.6374978 C16.0081576,22.2458978 15.9856492,22.0992207 16.0799028,21.4765351 L16.0799028,21.4765351 C16.6510516,21.4751514 17.7384851,21.4834538 18.3096339,21.4765351 C18.5023615,21.4751514 18.695089,21.4654651 18.8821895,21.4308715 C20.1890792,21.1859485 21.0626836,20.4677844 21.4973756,19.2902168 C21.574748,19.0854224 21.6127308,18.8709418 21.6619678,18.657845 C21.9475422,17.4484512 22.2387436,16.2432086 22.5144706,15.0338148 C22.6565544,14.3945243 22.7775367,13.7552338 22.9097731,13.1145595 C22.9477559,12.94851 22.9815184,12.7284944 22.9969929,12.5001764 C23.0138741,12.2165085 22.9590101,11.9369918 22.849282,11.6685452 M13.9739676,24.9635744 C13.5181739,24.0419997 13.2818365,22.7980123 13.3254464,21.4779189 L14.6168616,21.4779189 C14.6675054,22.8021635 14.4255409,24.0419997 13.9739676,24.9635744"></path>
        </g>
    </g>
</svg>