<svg viewBox="0 0 28 28" xmlns="http://www.w3.org/2000/svg"><style>g[id]{display:none}g:target{display:inherit}</style><g id="accounts" fill="currentColor" fill-rule="evenodd"><path d="M24 7V5.01A.995.995 0 0 0 23.01 4h-4.02c-.539 0-.99.452-.99 1.01V7h6zm-7 0V5.01A.995.995 0 0 0 16.01 4h-4.02c-.539 0-.99.452-.99 1.01V7h6zm-7 0V5.01A.995.995 0 0 0 9.01 4H4.99C4.452 4 4 4.452 4 5.01V7h6zM6 24H3c-.552 0-1-.445-1-1V9a1 1 0 0 1 1-1h22c.552 0 1 .445 1 1v14a1 1 0 0 1-1 1h-3a2 2 0 1 0-4 0h-8a2 2 0 1 0-4 0zm.033-8.5c0 .268.222.5.497.5h15.007a.5.5 0 0 0 0-1H6.53a.5.5 0 0 0-.497.5zm0 3c0 .268.224.5.5.5h7c.27 0 .5-.224.5-.5 0-.268-.224-.5-.5-.5h-7c-.269 0-.5.224-.5.5zm0-6c0 .268.222.5.497.5h15.007a.5.5 0 0 0 0-1H6.53a.5.5 0 0 0-.497.5z"/></g><g id="accounts+" fill="currentColor" fill-rule="evenodd"><g><path d="M14.4 11H4.53a.5.5 0 0 0 0 1h11.226c1.102.636 2.38 1 3.744 1a7.467 7.467 0 0 0 4.5-1.5V22a1 1 0 0 1-1 1h-3a2 2 0 1 0-4 0H8a2 2 0 1 0-4 0H1c-.552 0-1-.445-1-1V8a1 1 0 0 1 1-1h11.15a7.49 7.49 0 0 0 2.25 4zM8 6H2V4.01C2 3.451 2.451 3 2.99 3h4.02c.546 0 .99.443.99 1.01V6zm-3.967 8.5c0 .268.222.5.497.5h15.007a.5.5 0 0 0 0-1H4.53a.5.5 0 0 0-.497.5zm0 3c0 .268.224.5.5.5h7c.27 0 .5-.224.5-.5 0-.268-.224-.5-.5-.5h-7c-.269 0-.5.224-.5.5zM12.427 3a7.488 7.488 0 0 0-.41 3H9V4.01C9 3.451 9.451 3 9.99 3h2.437z" transform="translate(2 1)"/><path d="M19.5 11a5.5 5.5 0 1 1 0-11 5.5 5.5 0 0 1 0 11zm-.875-4.625V9h1.75V6.375H23v-1.75h-2.625V2h-1.75v2.625H16v1.75h2.625z" fill="var(--accent-color)" transform="translate(2 1)"/></g></g><g id="campaigns+" fill="currentColor" fill-rule="evenodd"><g><path d="M12.016 6H9.89l-.752-2.052C8.948 3.428 8.34 3 7.783 3H1.008C.448 3 0 3.448 0 4v17a1 1 0 0 0 1.003 1h.068l.857-12.066C2.004 8.854 2.878 8 3.924 8h8.503a7.467 7.467 0 0 1-.41-2zm1.483 4H4.863c-.515 0-.947.39-.985.873l-.875 11.254c-.038.484.342.873.848.873h18.286c.515 0 .947-.39.985-.873l.823-10.586A7.466 7.466 0 0 1 19.5 13a7.489 7.489 0 0 1-6-3z" transform="translate(2 1)"/><path d="M19.5 11a5.5 5.5 0 1 1 0-11 5.5 5.5 0 0 1 0 11zm-.875-4.625V9h1.75V6.375H23v-1.75h-2.625V2h-1.75v2.625H16v1.75h2.625z" fill="var(--accent-color)" transform="translate(2 1)"/></g></g><g id="plus-circle" fill="currentColor" fill-rule="evenodd"><path d="M14 26C7.373 26 2 20.627 2 14S7.373 2 14 2s12 5.373 12 12-5.373 12-12 12zm-2-10v6h4v-6h6v-4h-6V6h-4v6H6v4h6z"/></g><g id="dayparts+" fill="currentColor" fill-rule="evenodd"><g><path d="M14.335 1.227a7.46 7.46 0 0 0-1.199 2.844A9 9 0 0 0 3 13H0C0 6.373 5.373 1 12 1c.8 0 1.58.078 2.335.227zm9.635 10.924c.02.28.03.563.03.849 0 6.627-5.373 12-12 12v-3a9 9 0 0 0 9-9.016 7.455 7.455 0 0 0 2.97-.833zM8.041 14a3.981 3.981 0 0 0 3 3.837v7.125C5.192 24.5.523 19.843.041 14h8zM14 8v4.657l2.143.877a2 2 0 0 1-1.515 3.702l-3.385-1.385A2 2 0 0 1 10 14V8a2 2 0 1 1 4 0z" fill-rule="nonzero" transform="translate(1 1)"/><path d="M20.5 11a5.5 5.5 0 1 1 0-11 5.5 5.5 0 0 1 0 11zm-.875-4.625V9h1.75V6.375H24v-1.75h-2.625V2h-1.75v2.625H17v1.75h2.625z" fill="var(--accent-color)" transform="translate(1 1)"/></g></g><g id="media-plans+" fill="currentColor" fill-rule="evenodd"><g><path d="M16.946 12.98A7.488 7.488 0 0 0 20 12.573V22c0 1.657-1.378 3-3.077 3H3.077C1.377 25 0 23.657 0 22V4c0-1.657 1.378-3 3.077-3l8.407.02A7.467 7.467 0 0 0 10 5.5c0 .514.052 1.015.15 1.5h-2.2a2.5 2.5 0 1 0 0 1h2.477A7.518 7.518 0 0 0 13 11.5a2.5 2.5 0 0 0-.95 1.5H3.498a.497.497 0 0 0-.498.5c0 .268.223.5.498.5h8.552a2.5 2.5 0 1 0 4.896-1.02zM6.05 19H3.498a.497.497 0 0 0-.498.5c0 .268.223.5.498.5H6.05a2.5 2.5 0 0 0 4.9 0h5.552a.497.497 0 0 0 .498-.5c0-.268-.223-.5-.498-.5H10.95a2.5 2.5 0 0 0-4.9 0z" transform="translate(4 1)"/><path d="M17.5 11a5.5 5.5 0 1 1 0-11 5.5 5.5 0 0 1 0 11zm-.875-4.625V9h1.75V6.375H21v-1.75h-2.625V2h-1.75v2.625H14v1.75h2.625z" fill="var(--accent-color)" transform="translate(4 1)"/></g></g><g id="reports+" fill="currentColor" fill-rule="evenodd"><g><path d="M17 12.573v7.433A1.992 1.992 0 0 1 15 22c-1.105 0-2-.895-2-1.994V9.244a7.524 7.524 0 0 0 4 3.33zm5 0v7.436c0 1.1-.888 1.991-2 1.991a2 2 0 0 1-2-1.99v-7.16a7.534 7.534 0 0 0 4-.277zM0 1v1a1 1 0 1 1 2 0v21h21a1 1 0 0 1 0 2H1a1 1 0 0 1-1-1V1zm3 14.998C3 14.895 3.888 14 5 14c1.105 0 2 .887 2 1.998v4.004A1.994 1.994 0 0 1 5 22c-1.105 0-2-.887-2-1.998v-4.004zm5-3.99a2 2 0 1 1 4 0v7.983a2 2 0 1 1-4 0V12.01z" transform="translate(2 1)"/><path d="M19.5 11a5.5 5.5 0 1 1 0-11 5.5 5.5 0 0 1 0 11zm-.875-4.625V9h1.75V6.375H23v-1.75h-2.625V2h-1.75v2.625H16v1.75h2.625z" fill="var(--accent-color)" transform="translate(2 1)"/></g></g><g id="segments+" fill="currentColor" fill-rule="evenodd"><g><path d="M14.438 1.083a7.48 7.48 0 0 0-1.014 1.924 10.015 10.015 0 0 0-7.933 3.386l.016-.028 9.374 5.412 1.144 10.77-.016-.009A9.974 9.974 0 0 0 21.66 18a9.953 9.953 0 0 0 1.332-5.424 7.48 7.48 0 0 0 1.922-1.012A11.947 11.947 0 0 1 23.392 19a11.984 11.984 0 0 1-9.125 5.934L13 13 2.608 7C5.085 2.71 9.81.527 14.438 1.083zM7 23.393C1.552 20.246-.496 13.474 2.143 7.886l9.911 5.722 1.214 11.39A11.944 11.944 0 0 1 7 23.392z" fill-rule="nonzero" transform="translate(1 1)"/><path d="M20.5 11a5.5 5.5 0 1 1 0-11 5.5 5.5 0 0 1 0 11zm-.875-4.625V9h1.75V6.375H24v-1.75h-2.625V2h-1.75v2.625H17v1.75h2.625z" fill="var(--accent-color)" transform="translate(1 1)"/></g></g><g id="targets+" fill="currentColor" fill-rule="evenodd"><g><path d="M13.436 1.085a7.463 7.463 0 0 0-1.286 2.916L12 4a9 9 0 1 0 8.999 8.85 7.463 7.463 0 0 0 2.916-1.286c.056.47.085.95.085 1.436 0 6.627-5.373 12-12 12S0 19.627 0 13 5.373 1 12 1c.486 0 .965.029 1.436.085zM12.016 6a7.455 7.455 0 0 0 .907 3.107 4 4 0 1 0 2.97 2.97 7.455 7.455 0 0 0 3.107.907V13a7 7 0 1 1-6.984-7zM12 15a2 2 0 1 1 0-4 2 2 0 0 1 0 4z" fill-rule="nonzero" transform="translate(2 1)"/><path d="M19.5 11a5.5 5.5 0 1 1 0-11 5.5 5.5 0 0 1 0 11zm-.875-4.625V9h1.75V6.375H23v-1.75h-2.625V2h-1.75v2.625H16v1.75h2.625z" fill="var(--accent-color)" transform="translate(2 1)"/></g></g><g id="plus" fill="currentColor" fill-rule="evenodd"><path d="M12 16H6v-4h6V6h4v6h6v4h-6v6h-4z"/></g><g id="adv-settings!" fill="currentColor" fill-rule="evenodd"><g><path d="M21.854 22.803c-.501.51-1.14.887-1.854 1.071v.616a.5.5 0 0 1-.505.51h-.99a.507.507 0 0 1-.505-.51v-.616a3.996 3.996 0 0 1-1.854-1.071l-.535.308a.5.5 0 0 1-.693-.182l-.496-.858a.507.507 0 0 1 .19-.692l.533-.308a4.004 4.004 0 0 1 0-2.142l-.534-.308a.5.5 0 0 1-.189-.692l.496-.858a.507.507 0 0 1 .693-.182l.535.308A3.996 3.996 0 0 1 18 16.126v-.616a.5.5 0 0 1 .505-.51h.99c.279 0 .505.228.505.51v.616c.715.184 1.353.56 1.854 1.071l.535-.308a.5.5 0 0 1 .693.182l.496.858c.14.241.055.55-.19.692l-.533.308a4.004 4.004 0 0 1 0 2.142l.534.308a.5.5 0 0 1 .189.692l-.496.858a.507.507 0 0 1-.693.182l-.535-.308zM19 22a2 2 0 1 0 0-4 2 2 0 0 0 0 4zM14.078 4.759l-.269.155A6.993 6.993 0 0 0 11 3.29V1.993C11 1.445 10.548 1 9.99 1H8.01A.996.996 0 0 0 7 1.993V3.29a6.993 6.993 0 0 0-2.81 1.624l-1.124-.65a1.002 1.002 0 0 0-1.365.378l-.99 1.716a.996.996 0 0 0 .355 1.37l1.123.65a7.02 7.02 0 0 0 0 3.245l-1.123.648a1.002 1.002 0 0 0-.356 1.371l.991 1.716c.283.49.89.652 1.365.377l1.125-.649A6.993 6.993 0 0 0 7 16.71v1.297c0 .548.452.993 1.01.993h1.98a.996.996 0 0 0 1.01-.993V16.71a6.993 6.993 0 0 0 2.81-1.624l1.124.65a1.002 1.002 0 0 0 1.365-.378l.99-1.716a.996.996 0 0 0-.355-1.37l-.47-.272H14.76c-.792 0-1.46-.316-1.941-.807A4.002 4.002 0 0 1 5 10a4 4 0 0 1 7.348-2.19l.025-.044 1.705-3.007z" transform="translate(2 1)"/><path d="M24.887 8.752c.31.547-.054 1.248-.647 1.248h-9.48c-.593 0-.957-.701-.647-1.248l4.74-8.36a.73.73 0 0 1 1.294 0l4.74 8.36zM18.5 3.01v1.982a1 1 0 1 0 2 0V3.009a1 1 0 1 0-2 0zM19.5 9a1 1 0 1 0 0-2 1 1 0 0 0 0 2z" fill="var(--alert-color)" transform="translate(2 1)"/></g></g><g id="adv-settings" fill="currentColor" fill-rule="evenodd"><path d="M24.218 23.797a3.98 3.98 0 0 1-1.854 1.077v.616c0 .282-.228.51-.503.51h-.987a.506.506 0 0 1-.503-.51v-.616a3.98 3.98 0 0 1-1.854-1.077l-.54.311a.509.509 0 0 1-.692-.18l-.494-.856a.506.506 0 0 1 .19-.69l.544-.314a4.016 4.016 0 0 1 0-2.136l-.544-.314a.509.509 0 0 1-.19-.69l.494-.856a.506.506 0 0 1 .692-.18l.54.311a3.98 3.98 0 0 1 1.854-1.077v-.616c0-.282.229-.51.503-.51h.987c.278 0 .503.228.503.51v.616a3.98 3.98 0 0 1 1.854 1.077l.54-.311a.509.509 0 0 1 .693.18l.494.856c.139.24.054.549-.19.69l-.544.314a4.016 4.016 0 0 1 0 2.136l.544.314c.244.14.327.453.19.69l-.494.856a.506.506 0 0 1-.693.18l-.54-.311zM21.368 23c1.1 0 1.993-.895 1.993-2s-.892-2-1.993-2-1.994.895-1.994 2 .893 2 1.994 2zm-5.163-6.924a6.964 6.964 0 0 1-2.81 1.634v1.297c0 .548-.458.993-1.007.993h-1.975a1 1 0 0 1-1.006-.993V17.71a6.964 6.964 0 0 1-2.81-1.634l-1.133.654c-.476.274-1.09.1-1.364-.375l-.987-1.71a1 1 0 0 1 .357-1.368l1.141-.659a7.042 7.042 0 0 1 0-3.236l-1.14-.659a1.004 1.004 0 0 1-.358-1.368l.987-1.71a1 1 0 0 1 1.364-.375l1.132.654A6.964 6.964 0 0 1 9.407 4.29V2.993c0-.548.458-.993 1.006-.993h1.975a1 1 0 0 1 1.006.993V4.29a6.964 6.964 0 0 1 2.811 1.634l1.133-.654a1.004 1.004 0 0 1 1.363.375l.988 1.71a1 1 0 0 1-.358 1.368l-1.14.659a7.042 7.042 0 0 1 0 3.236l1.14.659c.476.274.632.893.358 1.368l-.988 1.71a1 1 0 0 1-1.363.375l-1.133-.654zM11.401 15a3.993 3.993 0 0 0 3.987-4c0-2.21-1.785-4-3.987-4a3.993 3.993 0 0 0-3.987 4c0 2.21 1.785 4 3.987 4z"/></g><g id="alert" fill="currentColor" fill-rule="evenodd"><path d="M25.754 22.38c.675 1.147-.118 2.62-1.411 2.62H3.657c-1.293 0-2.086-1.473-1.41-2.62L12.588 4.822a1.622 1.622 0 0 1 2.822 0L25.754 22.38zM12 10.997v5.006A2 2 0 0 0 14 18c1.112 0 2-.894 2-1.997v-5.006A2 2 0 0 0 14 9c-1.112 0-2 .894-2 1.997zM14 23a2 2 0 1 0 0-4 2 2 0 0 0 0 4z"/></g><g id="archive" fill="currentColor" fill-rule="evenodd"><path d="M24 22.507c0 .825-.76 1.493-1.67 1.493H5.67C4.749 24 4 23.317 4 22.507V9h20v13.507zM2 5.009C2 4.452 2.447 4 3 4h22a1 1 0 0 1 1 1.01v1.98C26 7.549 25.553 8 25 8H3a1 1 0 0 1-1-1.01V5.01zm6 6.988v6.006c0 .544.449.997 1.002.997h9.996c.546 0 1.002-.446 1.002-.997v-6.006c0-.544-.449-.997-1.002-.997H9.002C8.456 11 8 11.446 8 11.997zm1 .994A1 1 0 0 1 9.995 12h8.01c.55 0 .995.451.995.99v4.02a1 1 0 0 1-.995.99h-8.01A.998.998 0 0 1 9 17.01v-4.02z"/></g><g id="as-run" fill="currentColor" fill-rule="evenodd"><path d="M20.077 11.051c.46-.511.767-1.151.878-1.846C23.91 10.41 26 13.368 26 16.814 26 21.335 22.414 25 18 25h-3.382l1-2.047h2.388c3.3 0 5.994-2.748 5.994-6.139 0-2.64-1.633-4.897-3.923-5.763zm-.812-.24a5.829 5.829 0 0 0-.194-.04L19 10.675l.265.135zm-4.638-.137H3.002A1.01 1.01 0 0 1 2 9.651c0-.565.456-1.023 1.002-1.023H14c0 .747.226 1.457.627 2.046zm4.876 1.258C21.53 12.585 23 14.526 23 16.814c0 2.822-2.242 5.116-4.994 5.116h-1.633c.401-.59.627-1.299.627-2.046h.994c1.657 0 3.006-1.375 3.006-3.07 0-1.485-1.036-2.727-2.411-3.01l.914-1.872zm-4.121-.234l1 2.046h-3.376c-.123 0-.244.008-.363.022a.48.48 0 0 0-.144-.022H3.002A1.01 1.01 0 0 1 2 12.721c0-.565.456-1.023 1.002-1.023H15.382zM11.253 22.69l1.117 2.285C8.246 24.645 5 21.109 5 16.814c0-.707.088-1.392.252-2.047h2.09A6.248 6.248 0 0 0 7 16.814c0 2.765 1.792 5.11 4.253 5.876zm.116.035l.04.011-.01.013a3.54 3.54 0 0 1-.03-.024zm-1.18-1.68A5.15 5.15 0 0 1 8 16.814c0-.727.149-1.42.417-2.047h2.35A3.094 3.094 0 0 0 10 16.814c0 .532.133 1.033.367 1.47a3.656 3.656 0 0 0-.179 2.761zm-3.807-10.37h2.236l1-2.047H5.382l1 2.046zM16 19.883c0-1.413-1.12-2.558-2.5-2.558S11 18.47 11 19.884c0 .837.393 1.58 1 2.047L13.5 25l1.5-3.07c.607-.466 1-1.21 1-2.046zM9 7.605l-1.5 3.07L6 7.604c-.607-.467-1-1.21-1-2.047C5 4.145 6.12 3 7.5 3S10 4.145 10 5.558c0 .837-.393 1.58-1 2.047zm11 1.023c0-1.413-1.12-2.558-2.5-2.558S15 7.215 15 8.628c0 .837.393 1.58 1 2.047l1.5 3.07 1.5-3.07c.607-.467 1-1.21 1-2.047z"/></g><g id="calendar" fill="currentColor" fill-rule="evenodd"><path d="M9 5h10v.49C19 6.889 20.12 8 21.5 8 22.89 8 24 6.877 24 5.49V5c1.105.003 2 .904 2 1.995v17.01A2 2 0 0 1 23.995 26H4.005A2.006 2.006 0 0 1 2 24.005V6.995A2 2 0 0 1 4 5v.49C4 6.889 5.12 8 6.5 8 7.89 8 9 6.877 9 5.49V5zm-5 6.007v11.986A.999.999 0 0 0 4.992 24h18.016c.537 0 .992-.45.992-1.007V11.007A.999.999 0 0 0 23.008 10H4.992C4.455 10 4 10.45 4 11.007zM5 3.5C5 2.672 5.666 2 6.5 2 7.328 2 8 2.674 8 3.5v2C8 6.328 7.334 7 6.5 7 5.672 7 5 6.326 5 5.5v-2zm15 0c0-.828.666-1.5 1.5-1.5.828 0 1.5.674 1.5 1.5v2c0 .828-.666 1.5-1.5 1.5-.828 0-1.5-.674-1.5-1.5v-2zm-2 14.99c0-.27.215-.49.49-.49h3.02c.27 0 .49.215.49.49v3.02c0 .27-.215.49-.49.49h-3.02a.488.488 0 0 1-.49-.49v-3.02zm-6 0c0-.27.215-.49.49-.49h3.02c.27 0 .49.215.49.49v3.02c0 .27-.215.49-.49.49h-3.02a.488.488 0 0 1-.49-.49v-3.02zm-6 0c0-.27.215-.49.49-.49h3.02c.27 0 .49.215.49.49v3.02c0 .27-.215.49-.49.49H6.49a.488.488 0 0 1-.49-.49v-3.02zm12-6c0-.27.215-.49.49-.49h3.02c.27 0 .49.215.49.49v3.02c0 .27-.215.49-.49.49h-3.02a.488.488 0 0 1-.49-.49v-3.02zm-6 0c0-.27.215-.49.49-.49h3.02c.27 0 .49.215.49.49v3.02c0 .27-.215.49-.49.49h-3.02a.488.488 0 0 1-.49-.49v-3.02zm-6 0c0-.27.215-.49.49-.49h3.02c.27 0 .49.215.49.49v3.02c0 .27-.215.49-.49.49H6.49a.488.488 0 0 1-.49-.49v-3.02z"/></g><g id="campaigns" fill="currentColor" fill-rule="evenodd"><path d="M3.07 23h-.067A1 1 0 0 1 2 22V5c0-.552.448-1 1.008-1h6.775c.557 0 1.165.428 1.355.948L11.89 7h12.107A1 1 0 0 1 25 8v1H5.924c-1.046 0-1.92.855-1.996 1.934L3.07 23zm3.793-12H25.15c.506 0 .886.39.848.873l-.875 11.254c-.038.482-.47.873-.985.873H5.85c-.506 0-.886-.39-.848-.873l.875-11.254c.038-.482.47-.873.985-.873z"/></g><g id="checked" fill="currentColor" fill-rule="evenodd"><path d="M23.333 2H4.667A2.675 2.675 0 0 0 2 4.667v18.666C2 24.8 3.2 26 4.667 26h18.666C24.8 26 26 24.8 26 23.333V4.667C26 3.2 24.8 2 23.333 2zM10.786 21L4 14.75 5.9 13l4.886 4.5L21.1 8 23 9.75 10.786 21z"/></g><g id="chevron-left" fill="currentColor" fill-rule="evenodd"><path d="M21 23.165L12.33 14 21 4.813 18.325 2 7 13.98 18.325 26z"/></g><g id="chevron-right" fill="currentColor" fill-rule="evenodd"><path d="M7 23.165L15.67 14 7 4.813 9.675 2 21 13.98 9.675 26z"/></g><g id="close-circle" fill="currentColor" fill-rule="evenodd"><path d="M15.06 14l5.17-5.17-1.06-1.06L14 12.94 8.83 7.77 7.77 8.83 12.94 14l-5.17 5.17 1.06 1.06L14 15.06l5.17 5.17 1.06-1.06L15.06 14zM14 26C7.373 26 2 20.627 2 14S7.373 2 14 2s12 5.373 12 12-5.373 12-12 12z"/></g><g id="close" fill="currentColor" fill-rule="evenodd"><path d="M12.5 14L2 3.5 3.5 2 14 12.5 24.5 2 26 3.5 15.5 14 26 24.5 24.5 26 14 15.5 3.5 26 2 24.5z"/></g><g id="collapse-horiz" fill="currentColor" fill-rule="evenodd"><path d="M22 9.626v8.748c0 .537-.708.824-1.161.47l-5.6-4.374a.582.582 0 0 1 0-.94l5.6-4.374c.453-.354 1.161-.067 1.161.47zm-16 0c0-.537.708-.824 1.161-.47l5.6 4.374a.582.582 0 0 1 0 .94l-5.6 4.374c-.453.354-1.161.067-1.161-.47V9.626zm18-6.625a1 1 0 1 1 2 0v21.998a1 1 0 1 1-2 0V3.001zM2 3a1 1 0 1 1 2 0v21.998a1 1 0 1 1-2 0V3.001z"/></g><g id="collapse-vert" fill="currentColor" fill-rule="evenodd"><path d="M22 9.626v8.748c0 .537-.708.824-1.161.47l-5.6-4.374a.582.582 0 0 1 0-.94l5.6-4.374c.453-.354 1.161-.067 1.161.47zm-16 0c0-.537.708-.824 1.161-.47l5.6 4.374a.582.582 0 0 1 0 .94l-5.6 4.374c-.453.354-1.161.067-1.161-.47V9.626zm18-6.625a1 1 0 1 1 2 0v21.998a1 1 0 1 1-2 0V3.001zM2 3a1 1 0 1 1 2 0v21.998a1 1 0 1 1-2 0V3.001z" transform="rotate(90 14 14)"/></g><g id="constraints!" fill="currentColor" fill-rule="evenodd"><g><path d="M12.006 9c-.021.34.02.68.115 1H6.5A.505.505 0 0 1 6 9.5c0-.276.229-.5.5-.5h5.506zM21 12h3v10a3 3 0 0 1-3 3h-5.513a1.5 1.5 0 0 1 0-3H19.5a1.5 1.5 0 0 0 1.5-1.5V12zm-6.344-8.26A1.5 1.5 0 0 1 15.488 1h.721l-1.553 2.74zM9.95 16h7.55c.276 0 .5.232.5.5 0 .276-.229.5-.5.5H9.95a2.5 2.5 0 1 1 0-1zm-1.437 9H3a3 3 0 0 1-3-3V4a3 3 0 0 1 3-3h5.513a1.5 1.5 0 0 1 0 3H4.5A1.5 1.5 0 0 0 3 5.5v15A1.5 1.5 0 0 0 4.5 22h4.013a1.5 1.5 0 0 1 0 3z" transform="translate(2 1)"/><path d="M24.887 8.752c.31.547-.054 1.248-.647 1.248h-9.48c-.593 0-.957-.701-.647-1.248l4.74-8.36a.73.73 0 0 1 1.294 0l4.74 8.36zM18.5 3.01v1.982a1 1 0 1 0 2 0V3.009a1 1 0 1 0-2 0zM19.5 9a1 1 0 1 0 0-2 1 1 0 0 0 0 2z" fill="var(--alert-color)" transform="translate(2 1)"/></g></g><g id="constraints" fill="currentColor" fill-rule="evenodd"><path d="M11.95 17h7.55c.276 0 .5.232.5.5 0 .276-.229.5-.5.5h-7.55a2.5 2.5 0 1 1 0-1zm4.1-6H8.5a.505.505 0 0 1-.5-.5c0-.276.229-.5.5-.5h7.55a2.5 2.5 0 1 1 0 1zm-5.537 15H5a3 3 0 0 1-3-3V5a3 3 0 0 1 3-3h5.513a1.5 1.5 0 0 1 0 3H6.5A1.5 1.5 0 0 0 5 6.5v15A1.5 1.5 0 0 0 6.5 23h4.013a1.5 1.5 0 0 1 0 3zm6.974 0a1.5 1.5 0 0 1 0-3H21.5a1.5 1.5 0 0 0 1.5-1.5v-15A1.5 1.5 0 0 0 21.5 5h-4.013a1.5 1.5 0 0 1 0-3H23a3 3 0 0 1 3 3v18a3 3 0 0 1-3 3h-5.513z"/></g><g id="creative-lengths" fill="currentColor" fill-rule="evenodd"><path d="M7.004 2H2.99C2.45 2 2 2.444 2 2.99v4.02c0 .539.444.99.99.99h15.011A.995.995 0 0 0 19 7.01V2.99a1 1 0 0 0-.999-.99H7.004zm13.992 18h4.013c.547 0 .991.451.991.99v4.02c0 .546-.451.99-.99.99H9.998A1 1 0 0 1 9 25.01v-4.02c0-.546.447-.99.999-.99h10.997zm1-9h-5.998a.994.994 0 0 0-.998.99v4.02c0 .539.447.99.998.99h9.011c.54 0 .991-.444.991-.99v-4.02c0-.539-.444-.99-.99-.99h-3.013zM6.504 11H2.991c-.54 0-.991.444-.991.99v4.02c0 .539.444.99.99.99h10.013a.994.994 0 0 0 .997-.99v-4.02c0-.539-.447-.99-.998-.99H6.503zM20 2.99c0-.546.451-.99.99-.99h4.02c.546 0 .99.451.99.99v4.02c0 .546-.451.99-.99.99h-4.02a.996.996 0 0 1-.99-.99V2.99zm-18 18c0-.546.451-.99.99-.99h4.02c.546 0 .99.451.99.99v4.02c0 .546-.451.99-.99.99H2.99a.996.996 0 0 1-.99-.99v-4.02z"/></g><g id="currency" fill="currentColor" fill-rule="evenodd"><path d="M14 11C7.373 11 2 9.21 2 7s5.373-4 12-4 12 1.79 12 4-5.373 4-12 4zm11.128-.5c.562.463.872.97.872 1.5 0 2.21-5.373 4-12 4S2 14.21 2 12c0-.53.31-1.037.872-1.5C4.652 11.966 8.964 13 14 13c5.036 0 9.348-1.034 11.128-2.5zm0 5c.562.463.872.97.872 1.5 0 2.21-5.373 4-12 4S2 19.21 2 17c0-.53.31-1.037.872-1.5C4.652 16.966 8.964 18 14 18c5.036 0 9.348-1.034 11.128-2.5zm0 5c.562.463.872.97.872 1.5 0 2.21-5.373 4-12 4S2 24.21 2 22c0-.53.31-1.037.872-1.5C4.652 21.966 8.964 23 14 23c5.036 0 9.348-1.034 11.128-2.5z"/></g><g id="customize-view" fill="currentColor" fill-rule="evenodd"><path d="M2 2.99c0-.546.451-.99.99-.99h4.02c.546 0 .99.451.99.99v4.02c0 .546-.451.99-.99.99H2.99A.996.996 0 0 1 2 7.01V2.99zm18 0c0-.546.451-.99.99-.99h4.02c.546 0 .99.451.99.99v4.02c0 .546-.451.99-.99.99h-4.02a.996.996 0 0 1-.99-.99V2.99zm-18 9c0-.546.451-.99.99-.99h4.02c.546 0 .99.451.99.99v4.02c0 .546-.451.99-.99.99H2.99a.996.996 0 0 1-.99-.99v-4.02zm9 0c0-.546.451-.99.99-.99h4.02c.546 0 .99.451.99.99v4.02c0 .546-.451.99-.99.99h-4.02a.996.996 0 0 1-.99-.99v-4.02zm-9 9c0-.546.451-.99.99-.99h4.02c.546 0 .99.451.99.99v4.02c0 .546-.451.99-.99.99H2.99a.996.996 0 0 1-.99-.99v-4.02zm18 0c0-.546.451-.99.99-.99h4.02c.546 0 .99.451.99.99v4.02c0 .546-.451.99-.99.99h-4.02a.996.996 0 0 1-.99-.99v-4.02zm-9 0c0-.546.451-.99.99-.99h4.02c.546 0 .99.451.99.99v4.02c0 .546-.451.99-.99.99h-4.02a.996.996 0 0 1-.99-.99v-4.02zm0-18c0-.546.451-.99.99-.99h4.02c.546 0 .99.451.99.99v4.02c0 .546-.451.99-.99.99h-4.02a.996.996 0 0 1-.99-.99V2.99z"/></g><g id="dashboard" fill="currentColor" fill-rule="evenodd"><path d="M15.256 11.275l2.971-2.97a1.038 1.038 0 0 1 1.469 1.468l-2.971 2.97a3 3 0 1 1-1.469-1.469zM14 26C7.373 26 2 20.627 2 14S7.373 2 14 2s12 5.373 12 12-5.373 12-12 12zm9-12a9 9 0 1 0-18 0 9 9 0 0 0 18 0zm-6.678-6.257a.453.453 0 0 1 .243.586.437.437 0 0 1-.573.248c-2.928-1.21-6.261.237-7.444 3.232-1.183 2.995.232 6.404 3.16 7.614s6.261-.237 7.444-3.232a.437.437 0 0 1 .573-.249.453.453 0 0 1 .243.586c-1.365 3.455-5.21 5.125-8.59 3.729-3.379-1.396-5.01-5.33-3.646-8.785 1.365-3.455 5.211-5.125 8.59-3.729z"/></g><g id="dayparts" fill="currentColor" fill-rule="evenodd"><path d="M2 14C2 7.373 7.373 2 14 2s12 5.373 12 12-5.373 12-12 12v-3a9 9 0 1 0-9-9H2zm8.041 1a3.981 3.981 0 0 0 3 3.837v7.125C7.192 25.5 2.523 20.843 2.041 15h8zM16 9v4.657l2.143.877a2 2 0 0 1-1.515 3.702l-3.385-1.385A2 2 0 0 1 12 15V9a2 2 0 1 1 4 0z"/></g><g id="dropdown-down" fill="currentColor" fill-rule="evenodd"><path d="M22 9.626v8.748c0 .537-.708.824-1.161.47l-5.6-4.374a.582.582 0 0 1 0-.94l5.6-4.374c.453-.354 1.161-.067 1.161.47z" transform="rotate(-90 16 16)"/></g><g id="dropdown-up" fill="currentColor" fill-rule="evenodd"><path d="M22 9.626v8.748c0 .537-.708.824-1.161.47l-5.6-4.374a.582.582 0 0 1 0-.94l5.6-4.374c.453-.354 1.161-.067 1.161.47z" transform="rotate(90 16 12)"/></g><g id="duplicate" fill="currentColor" fill-rule="evenodd"><path d="M20 18h2.99A3.003 3.003 0 0 0 26 14.99V5.01A3.003 3.003 0 0 0 22.99 2h-9.98A3.003 3.003 0 0 0 10 5.01V8h3V5.841c0-.468.372-.841.841-.841h8.318c.468 0 .841.372.841.841v8.318a.836.836 0 0 1-.841.841H20v3zM2 13.01A3.003 3.003 0 0 1 5.01 10h9.98A3.003 3.003 0 0 1 18 13.01v9.98A3.003 3.003 0 0 1 14.99 26H5.01A3.003 3.003 0 0 1 2 22.99v-9.98zm3 .831v8.318c0 .47.373.841.841.841h8.318c.47 0 .841-.373.841-.841V13.84a.836.836 0 0 0-.841-.841H5.84a.836.836 0 0 0-.841.841z"/></g><g id="edit" fill="currentColor" fill-rule="evenodd"><path d="M14.978 6H5.762A3.753 3.753 0 0 0 2 9.762v12.476A3.753 3.753 0 0 0 5.762 26h12.476A3.753 3.753 0 0 0 22 22.238v-9.332l-3 2.992v5.924A1.17 1.17 0 0 1 17.822 23H6.178A1.17 1.17 0 0 1 5 21.822V10.178C5 9.522 5.52 9 6.178 9h5.793l3.007-3zm8.023 2L26 5l-.558-2.257L23.001 2 20 5l3 3zM12.655 18.568L21 10.236 17.704 7l-8.142 8.131L8 20l4.655-1.432z"/></g><g id="exclude" fill="currentColor" fill-rule="evenodd"><path d="M14 26C7.373 26 2 20.627 2 14S7.373 2 14 2s12 5.373 12 12-5.373 12-12 12zm0-20a7.963 7.963 0 0 0-4.064 1.108l10.818 10.817.138.139A8 8 0 0 0 14 6zm-.064 16.064A7.963 7.963 0 0 0 18 20.956L7.183 10.14 7.043 10a8 8 0 0 0 6.892 12.064z"/></g><g id="expand-down" fill="currentColor" fill-rule="evenodd"><path d="M4.835 12.334L14 20.797l9.186-8.463L26 14.946 14.02 26 2 14.946l2.835-2.612zM4.835 2L14 10.462 23.187 2 26 4.611 14.02 15.666 2 4.61 4.835 2z"/></g><g id="expand-horiz" fill="currentColor" fill-rule="evenodd"><path d="M9 9.626v8.748c0 .537-.708.824-1.161.47l-5.6-4.374a.582.582 0 0 1 0-.94l5.6-4.374C8.292 8.802 9 9.089 9 9.626zm10 0c0-.537.708-.824 1.161-.47l5.6 4.374a.582.582 0 0 1 0 .94l-5.6 4.374c-.453.354-1.161.067-1.161-.47V9.626zm-8-6.625a1 1 0 1 1 2 0v21.998a1 1 0 1 1-2 0V3.001zm4 0a1 1 0 1 1 2 0v21.998a1 1 0 1 1-2 0V3.001z"/></g><g id="expand-up" fill="currentColor" fill-rule="evenodd"><path d="M4.835 15.666L2 13.054 14.02 2 26 13.054l-2.813 2.612L14 7.203l-9.166 8.463zm0 10.334L2 23.389l12.02-11.055L26 23.39 23.187 26 14 17.538 4.835 26z"/></g><g id="expand-vert" fill="currentColor" fill-rule="evenodd"><path d="M9 9.626v8.748c0 .537-.708.824-1.161.47l-5.6-4.374a.582.582 0 0 1 0-.94l5.6-4.374C8.292 8.802 9 9.089 9 9.626zm10 0c0-.537.708-.824 1.161-.47l5.6 4.374a.582.582 0 0 1 0 .94l-5.6 4.374c-.453.354-1.161.067-1.161-.47V9.626zm-8-6.625a1 1 0 1 1 2 0v21.998a1 1 0 1 1-2 0V3.001zm4 0a1 1 0 1 1 2 0v21.998a1 1 0 1 1-2 0V3.001z" transform="rotate(90 14 14)"/></g><g id="export" fill="currentColor" fill-rule="evenodd"><path d="M15 3v3H7.346C6.595 6 6 6.596 6 7.346v13.308C6 21.405 6.596 22 7.346 22h13.308c.751 0 1.346-.596 1.346-1.346v-4.472l3-2.657v7.337A4.129 4.129 0 0 1 20.862 25H7.138A4.129 4.129 0 0 1 3 20.862V7.138A4.129 4.129 0 0 1 7.138 3H15zm2 4.334V2l9 7.969-9 7.969v-5.296c-5.707.238-8.578 2.89-9.737 6.358A7.364 7.364 0 0 1 7 17.052c0-5.16 3.41-9.384 10-9.718z"/></g><g id="filter" fill="currentColor" fill-rule="evenodd"><path d="M16 17v7l-4 2v-9L3.182 7.3C5.119 8.306 9.235 9 14 9s8.881-.694 10.818-1.7L16 17zM14 7c6.627 0 12-1.12 12-2.5S20.627 2 14 2 2 3.12 2 4.5 7.373 7 14 7z"/></g><g id="glossary" fill="currentColor" fill-rule="evenodd"><path d="M21.863 4.311C23.103 4.664 24 5.693 24 6.91v16.364C24 24.779 22.622 26 20.923 26H7.077C5.377 26 4 24.779 4 23.273V4.727C4 3.221 5.233 2 6.753 2l6.194.015L19.142 2a2.746 2.746 0 0 1 2.72 2.311zM12.33 17.155h1.437l-3.096-8.61H9.201l-3.096 8.61h1.426l.81-2.38h3.163l.827 2.38zm-1.183-3.589H8.737l.747-2.235c.196-.57.345-1.096.447-1.577.038.156.107.402.207.739.1.336.178.582.234.739l.776 2.334zm7.487 3.59l-.266-.904h-.045c-.302.395-.606.664-.911.807-.306.142-.698.214-1.178.214-.615 0-1.095-.172-1.44-.516-.345-.344-.518-.831-.518-1.46 0-.67.24-1.174.719-1.514.48-.34 1.21-.526 2.19-.557l1.081-.035v-.346c0-.415-.093-.725-.28-.93-.187-.205-.476-.308-.869-.308-.32 0-.628.049-.922.147a6.818 6.818 0 0 0-.85.346l-.43-.986c.34-.183.712-.323 1.116-.419a4.96 4.96 0 0 1 1.143-.144c.796 0 1.397.18 1.802.54.406.36.609.925.609 1.695v4.37h-.951zm-1.98-.939c.482 0 .87-.14 1.162-.42.293-.279.439-.67.439-1.175v-.563l-.804.035c-.626.023-1.082.132-1.367.325-.284.194-.427.49-.427.889 0 .29.083.513.25.671.165.159.414.238.746.238zM5.052 23.236v.037c0 .862.873 1.636 2.024 1.636h13.846c1.151 0 2.024-.774 2.024-1.636V6.909c0-.596-.416-1.149-1.052-1.434V21.09c0 1.506-1.233 2.727-2.753 2.727H6.753a2.758 2.758 0 0 1-1.7-.582z"/></g><g id="include" fill="currentColor" fill-rule="evenodd"><path d="M14 26C7.373 26 2 20.627 2 14S7.373 2 14 2s12 5.373 12 12-5.373 12-12 12zm0-4a8 8 0 1 0 0-16 8 8 0 0 0 0 16z"/></g><g id="inventory" fill="currentColor" fill-rule="evenodd"><path d="M24 10.99c0 .558-.451 1.01-.99 1.01h-4.02a.995.995 0 0 1-.99-1.01V8h6v2.99zm-11-3c0 .558-.446 1.01-.998 1.01H4.998A.998.998 0 0 1 4 7.99V5h9V7.991zM24 20a1 1 0 0 1-.99 1h-4.02a.993.993 0 0 1-.99-1v-4h6v4zm-9.494-10H2.494a.498.498 0 0 0-.494.495v2.01c0 .28.224.495.5.495.268 0 .5-.222.5-.495V12h11v.505c0 .28.224.495.5.495.268 0 .5-.222.5-.495v-2.01a.49.49 0 0 0-.494-.495zM13 20c0 .552-.446 1-.998 1H4.998A.996.996 0 0 1 4 20v-7h9v7zm0 4H5v.99a1 1 0 1 1-2 0v-1.98A1.05 1.05 0 0 1 3 23a.998.998 0 0 1 1.002-1h19.996a1.01 1.01 0 0 1 .706.29.996.996 0 0 1 .296.72v1.98a1 1 0 1 1-2 0V24h-8v.99a1 1 0 1 1-2 0V24zm1.506-22H2.494A.498.498 0 0 0 2 2.495v2.01c0 .28.224.495.5.495.268 0 .5-.222.5-.495V4h11v.505c0 .28.224.495.5.495.268 0 .5-.222.5-.495v-2.01A.49.49 0 0 0 14.506 2zm1.988 3a.498.498 0 0 0-.494.495v2.01c0 .28.224.495.5.495.268 0 .5-.222.5-.495V7h8v.505c0 .28.224.495.5.495.268 0 .5-.222.5-.495v-2.01A.49.49 0 0 0 25.506 5h-9.012zm0 8a.498.498 0 0 0-.494.495v2.01c0 .28.224.495.5.495.268 0 .5-.222.5-.495V15h8v.505c0 .28.224.495.5.495.268 0 .5-.222.5-.495v-2.01a.49.49 0 0 0-.494-.495h-9.012z"/></g><g id="locked" fill="currentColor" fill-rule="evenodd"><path d="M9 11.755V6.99a5 5 0 0 1 10 0v4.765a8 8 0 1 1-10 0zm3-1.503A8.014 8.014 0 0 1 14 10c.69 0 1.36.088 2 .252V6.99a2.001 2.001 0 0 0-4 0v3.262zm2 13.081a5.333 5.333 0 1 0 0-10.666 5.333 5.333 0 0 0 0 10.666zm1.742-9.423a4.446 4.446 0 1 1-3.484 0 1.778 1.778 0 0 0 3.484 0z"/></g><g id="plan-details!" fill="currentColor" fill-rule="evenodd"><g><path d="M20 12v10c0 1.657-1.378 3-3.077 3H3.077C1.377 25 0 23.657 0 22V4c0-1.657 1.378-3 3.077-3L11 1.019V6.66l-.627 1.106C9.333 9.6 10.578 12 12.76 12H20zm-8-7.104V1l1.41 1.41L12 4.896zM3 17.5c0 .268.223.5.498.5h13.004a.497.497 0 0 0 .498-.5c0-.268-.223-.5-.498-.5H3.498a.497.497 0 0 0-.498.5zm0 3c0 .268.225.5.503.5h5.994c.27 0 .503-.224.503-.5 0-.268-.225-.5-.503-.5H3.503a.507.507 0 0 0-.503.5zm0-6c0 .268.223.5.498.5h13.004a.497.497 0 0 0 .498-.5c0-.268-.223-.5-.498-.5H3.498a.497.497 0 0 0-.498.5z" transform="translate(4 1)"/><path d="M22.887 8.752c.31.547-.054 1.248-.647 1.248h-9.48c-.593 0-.957-.701-.647-1.248l4.74-8.36a.73.73 0 0 1 1.294 0l4.74 8.36zM16.5 3.01v1.982a1 1 0 1 0 2 0V3.009a1 1 0 1 0-2 0zM17.5 9a1 1 0 1 0 0-2 1 1 0 0 0 0 2z" fill="var(--alert-color)" transform="translate(4 1)"/></g></g><g id="plan-details" fill="currentColor" fill-rule="evenodd"><path d="M24 11v12c0 1.657-1.378 3-3.077 3H7.077C5.377 26 4 24.657 4 23V5c0-1.657 1.378-3 3.077-3L15 2.019v5.648A3.335 3.335 0 0 0 18.333 11H24zm-8-3.623V2l8 8h-5.333C17.195 10 16 8.85 16 7.377zM7 18.5c0 .268.223.5.498.5h13.004a.497.497 0 0 0 .498-.5c0-.268-.223-.5-.498-.5H7.498a.497.497 0 0 0-.498.5zm0 3c0 .268.225.5.503.5h5.994c.27 0 .503-.224.503-.5 0-.268-.225-.5-.503-.5H7.503a.507.507 0 0 0-.503.5zm0-6c0 .268.223.5.498.5h13.004a.497.497 0 0 0 .498-.5c0-.268-.223-.5-.498-.5H7.498a.497.497 0 0 0-.498.5z"/></g><g id="media-plans" fill="currentColor" fill-rule="evenodd"><path d="M10.05 20H7.54a.497.497 0 0 0-.498.5c0 .268.223.5.498.5h2.51a2.5 2.5 0 0 0 4.9 0h5.581a.497.497 0 0 0 .498-.5c0-.268-.223-.5-.498-.5H14.95a2.5 2.5 0 0 0-4.9 0zm6-6H7.54a.497.497 0 0 0-.498.5c0 .268.223.5.498.5h8.51a2.5 2.5 0 0 0 4.943-.311.505.505 0 0 0 0-.373A2.5 2.5 0 0 0 16.05 14zm-4.1-5h3.328c.514 1.177 1.69 2 3.055 2H24v12c0 1.657-1.378 3-3.077 3H7.077C5.377 26 4 24.657 4 23V5c0-1.657 1.378-3 3.077-3L15 2.019v5.648c0 .112.006.223.016.333H11.95a2.5 2.5 0 1 0 0 1zM16 7.377V2l8 8h-5.333C17.195 10 16 8.85 16 7.377z"/></g><g id="move" fill="currentColor" fill-rule="evenodd"><path d="M7 16h5v5h-1.555c-.396 0-.594.539-.314.854L12 23.957V24h.039l1.647 1.854a.41.41 0 0 0 .628 0L15.961 24H16v-.043l1.869-2.103c.28-.315.082-.854-.314-.854H16v-5h5v1.555c0 .396.539.594.854.314L23.957 16H24v-.039l1.854-1.647a.41.41 0 0 0 0-.628L24 12.039V12h-.043l-2.103-1.869c-.315-.28-.854-.082-.854.314V12h-5V7h1.555c.396 0 .594-.539.314-.854l-3.555-4a.41.41 0 0 0-.628 0l-3.555 4c-.28.315-.082.854.314.854H12v5H7v-1.555c0-.396-.539-.594-.854-.314l-4 3.555a.41.41 0 0 0 0 .628l4 3.555c.315.28.854.082.854-.314V16z"/></g><g id="nest" fill="currentColor" fill-rule="evenodd"><path d="M9.214 3.162a2.418 2.418 0 0 1 3.13 1.41 2.45 2.45 0 0 1-1.397 3.156C8.522 8.664 6.848 11.15 6.848 14s1.674 5.336 4.1 6.272a2.45 2.45 0 0 1 1.397 3.157 2.418 2.418 0 0 1-3.13 1.409C4.9 23.173 2 18.863 2 14 2 9.137 4.901 4.827 9.214 3.162zm7.839 4.566a2.45 2.45 0 0 1-1.398-3.157 2.418 2.418 0 0 1 3.13-1.409C23.1 4.827 26 9.137 26 14c0 4.863-2.901 9.173-7.214 10.838a2.418 2.418 0 0 1-3.13-1.41 2.45 2.45 0 0 1 1.397-3.156c2.425-.936 4.099-3.422 4.099-6.272s-1.674-5.336-4.1-6.272z"/></g><g id="notice" fill="currentColor" fill-rule="evenodd"><path d="M14 2c6.627 0 12 5.37 12 12s-5.373 12-12 12S2 20.63 2 14 7.373 2 14 2zm6.448 8.272l.29-.487c.539-.883.22-2.033-.71-2.537-.906-.51-2.084-.206-2.62.671l-5.56 9.302-2.564-2.302.048.045a1.981 1.981 0 0 0-2.724-.075 1.799 1.799 0 0 0-.083 2.619l.046.044 4.405 3.912-.048-.045a1.98 1.98 0 0 0 2.723.075c.166-.143.433-.585 3.654-5.963a3810.138 3810.138 0 0 0 3.143-5.26z"/></g><g id="proposal" fill="currentColor" fill-rule="evenodd"><path d="M2 2.993A.997.997 0 0 1 3 2h22c.552 0 1 .443 1 .993v12.802a.997.997 0 0 1-1 .993H3c-.552 0-1-.443-1-.993V2.993zm18.262 6.235c0-1.947-1.128-3.65-2.806-4.566l-2.85 4.566 4 3.738c1.023-.956 1.656-2.278 1.656-3.738zm-7.355 5.452c1.562 0 2.976-.592 4-1.548l-4-3.738 2.85-4.567a5.935 5.935 0 0 0-2.85-.719c-3.124 0-5.657 2.367-5.657 5.286 0 2.92 2.533 5.286 5.657 5.286zm-4.293 3.151h10.772l3.633 6.205a1.96 1.96 0 0 1-.739 2.696 2.014 2.014 0 0 1-2.738-.717l-3.535-6.037v2.809c0 1.088-.89 1.97-2.007 1.97-1.109 0-2.007-.883-2.007-1.97v-2.809l-3.535 6.037a2.014 2.014 0 0 1-2.738.717 1.96 1.96 0 0 1-.739-2.696l3.633-6.205z"/></g><g id="price-adj!" fill="currentColor" fill-rule="evenodd"><g><path d="M11.363 6.02A16.74 16.74 0 0 0 9 5.995v5.392a88.225 88.225 0 0 0 1.148.12c3.316.329 4.701.534 6.186 1.05C18.63 13.351 19.998 14.793 20 17c-.003 3.164-2.95 5.155-7 5.793v1.204A.998.998 0 0 1 12 25c-.552 0-1-.454-1-1.002v-1.004a20.783 20.783 0 0 1-2-.002v1.009A.997.997 0 0 1 8 25c-.552 0-1-.443-1-.999v-1.002c0-.071.007-.141.022-.208C2.962 22.149 0 20.155 0 17h3c0 1.616 2.95 3.012 7 3.017.341 0 .675-.009 1-.028v-5.375c-.363-.041-.745-.081-1.148-.121H9.85L9 14.407v.86a2 2 0 1 1-2 0v-1.091c-1.445-.192-2.37-.397-3.336-.732C1.367 12.648 0 11.205 0 9c0-3.164 2.95-5.163 7-5.807V2c0-.552.444-1 1-1 .552 0 1 .455 1 1v.99a20.724 20.724 0 0 1 2 0v-.991A.997.997 0 0 1 12 1c.552 0 1 .443 1 .999v1.002c0 .052-.004.102-.011.152L11.363 6.02zM7 6.248C4.572 6.736 3 7.804 3 9c0 1.068 1.015 1.662 4 2.125V6.248zm6 8.627c2.983.464 3.999 1.058 4 2.126-.001 1.193-1.572 2.255-4 2.74v-4.866z" transform="translate(4 1)"/><path d="M22.887 8.752c.31.547-.054 1.248-.647 1.248h-9.48c-.593 0-.957-.701-.647-1.248l4.74-8.36a.73.73 0 0 1 1.294 0l4.74 8.36zM16.5 3.01v1.982a1 1 0 1 0 2 0V3.009a1 1 0 1 0-2 0zM17.5 9a1 1 0 1 0 0-2 1 1 0 0 0 0 2z" fill="var(--alert-color)" transform="translate(4 1)"/></g></g><g id="price-adj" fill="currentColor" fill-rule="evenodd"><path d="M13 23.992a20.812 20.812 0 0 0 2 .002V25c0 .545.448 1 1 1 .556 0 1-.448 1-1v-1.206c4.05-.638 6.997-2.63 7-5.793-.002-2.207-1.37-3.649-3.666-4.445-.967-.335-1.891-.54-3.334-.731v-1.093a2 2 0 1 0-2 0v.862c-.27-.028-.553-.057-.852-.086h-.003c-.401-.04-.783-.08-1.145-.121V6.995c.325-.02.658-.03 1-.03 4.054 0 7 1.398 7 3.035h3c0-3.169-2.958-5.169-7.018-5.81A1.01 1.01 0 0 0 17 4.001V2.999A.997.997 0 0 0 16 2c-.556 0-1 .447-1 .999v.99a20.724 20.724 0 0 0-2 0V3c0-.545-.448-1-1-1-.556 0-1 .448-1 1v1.193C6.95 4.837 4 6.836 4 10c0 2.205 1.367 3.648 3.664 4.444.967.335 1.891.54 3.336.732v1.092a2 2 0 1 0 2 0v-.861l.85.086h.002c.403.04.785.08 1.148.12v5.376c-.325.02-.659.029-1 .028-4.05-.005-7-1.4-7-3.017H4c0 3.155 2.961 5.149 7.022 5.79A1.01 1.01 0 0 0 11 24v1.002c0 .556.448.999 1 .999.556 0 1-.447 1-.999v-1.002-.007zM11 7.248C8.572 7.736 7 8.804 7 10c0 1.068 1.015 1.662 4 2.125V7.248zm6 8.627c2.983.464 3.999 1.058 4 2.126-.001 1.193-1.572 2.255-4 2.74v-4.866z"/></g><g id="refresh" fill="currentColor" fill-rule="evenodd"><path d="M25.247 16.578h-7.532c-.416 0-.753.353-.753.785 0 .432.394.738.715 1.068l2.093 2.183c-1.572 1.39-3.6 2.238-5.823 2.238-4.477 0-8.184-3.4-8.903-7.852H2c.743 6.195 5.803 10.992 11.947 10.992 3.057 0 5.84-1.193 7.963-3.148l2.159 2.253c.405.424.762.903 1.178.903.416 0 .753-.353.753-.785v-7.852c0-.094 0-.785-.753-.785zM2.753 11.422h7.532c.416 0 .753-.353.753-.785 0-.432-.394-.738-.715-1.068L8.23 7.386c1.572-1.39 3.6-2.238 5.823-2.238 4.477 0 8.184 3.4 8.903 7.852H26c-.743-6.195-5.803-10.992-11.947-10.992-3.056 0-5.84 1.193-7.963 3.148L3.932 2.903C3.526 2.479 3.169 2 2.753 2 2.337 2 2 2.353 2 2.785v7.852c0 .094 0 .785.753.785z"/></g><g id="reports" fill="currentColor" fill-rule="evenodd"><path d="M2 2v1a1 1 0 1 1 2 0v21h21a1 1 0 0 1 0 2H3a1 1 0 0 1-1-1V2zm3 14.998C5 15.895 5.888 15 7 15c1.105 0 2 .887 2 1.998v4.004A1.994 1.994 0 0 1 7 23c-1.105 0-2-.887-2-1.998v-4.004zm5-3.99a2 2 0 1 1 4 0v7.983a2 2 0 1 1-4 0V13.01zm5-4.014C15 7.893 15.888 7 17 7c1.105 0 2 .895 2 1.994v12.012A1.992 1.992 0 0 1 17 23c-1.105 0-2-.895-2-1.994V8.994zm5-4.003C20 3.89 20.888 3 22 3a2 2 0 0 1 2 1.99v16.02c0 1.099-.888 1.99-2 1.99a2 2 0 0 1-2-1.99V4.99z"/></g><g id="search" fill="currentColor" fill-rule="evenodd"><path d="M20.668 17.793l5.18 5.18a.5.5 0 0 1 .006.711l-2.17 2.17a.5.5 0 0 1-.711-.005l-5.179-5.179c-1.638 1.11-3.508 1.666-5.611 1.666-2.81 0-5.21-.997-7.199-2.99C2.994 17.355 2 14.962 2 12.169c0-2.794.995-5.187 2.984-7.18C6.974 2.997 9.374 2 12.183 2c2.81 0 5.204.991 7.183 2.973 1.98 1.983 2.969 4.38 2.969 7.195 0 2.108-.556 3.983-1.667 5.625zM6.421 6.425c-1.592 1.593-2.387 3.508-2.387 5.743 0 2.235.795 4.149 2.387 5.743 1.591 1.594 3.511 2.391 5.759 2.391s4.163-.792 5.747-2.379c1.583-1.585 2.375-3.504 2.375-5.755 0-2.252-.792-4.17-2.375-5.756-1.584-1.586-3.5-2.378-5.747-2.378-2.248 0-4.168.797-5.76 2.39z"/></g><g id="segment" fill="currentColor" fill-rule="evenodd"><path d="M14.002 14.002l-10.392-6C6.923 2.262 14.262.296 20.002 3.61c5.74 3.313 7.706 10.652 4.392 16.392a11.984 11.984 0 0 1-9.125 5.934l-1.267-11.934zM6.509 7.367l9.374 5.412 1.144 10.77-.016-.009a9.974 9.974 0 0 0 5.651-4.538c2.762-4.783 1.123-10.899-3.66-13.66-4.2-2.425-9.427-1.457-12.51 2.053l.017-.028zm1.493 17.027C2.554 21.25.506 14.477 3.145 8.89l9.911 5.722L14.27 26a11.944 11.944 0 0 1-6.268-1.607z"/></g><g id="settings" fill="currentColor" fill-rule="evenodd"><path d="M16.957 5.512a8.835 8.835 0 0 1 2.875 1.707l1.346-.777a2.005 2.005 0 0 1 2.737.731l.955 1.654a2.003 2.003 0 0 1-.736 2.736l-1.408.813a9.181 9.181 0 0 1 0 3.248l1.408.813a2.005 2.005 0 0 1 .736 2.736l-.955 1.654a2.003 2.003 0 0 1-2.737.731l-1.346-.777a8.835 8.835 0 0 1-2.875 1.707v1.507A2.005 2.005 0 0 1 14.955 26h-1.91a2.003 2.003 0 0 1-2.002-2.005v-1.507a8.835 8.835 0 0 1-2.875-1.707l-1.346.777a2.005 2.005 0 0 1-2.737-.731l-.955-1.654a2.003 2.003 0 0 1 .736-2.736l1.408-.813a9.181 9.181 0 0 1 0-3.248l-1.408-.813a2.005 2.005 0 0 1-.736-2.736l.955-1.654a2.003 2.003 0 0 1 2.737-.731l1.346.777a8.835 8.835 0 0 1 2.875-1.707V4.005c0-1.107.898-2.005 2.002-2.005h1.91c1.105 0 2.002.897 2.002 2.005v1.507zM14 19c2.722 0 4.928-2.239 4.928-5S16.722 9 14 9s-4.928 2.239-4.928 5 2.206 5 4.928 5z"/></g><g id="sort-asc" fill="currentColor" fill-rule="evenodd"><path d="M14 3l12 22H2z"/></g><g id="sort-desc" fill="currentColor" fill-rule="evenodd"><path transform="matrix(1 0 0 -1 0 28)" d="M14 3l12 22H2z"/></g><g id="minus-circle" fill="currentColor" fill-rule="evenodd"><path d="M14 26C7.373 26 2 20.627 2 14S7.373 2 14 2s12 5.373 12 12-5.373 12-12 12zM6 16h16v-4H6v4z"/></g><g id="minus" fill="currentColor" fill-rule="evenodd"><path d="M6 16v-4h16v4z"/></g><g id="summary" fill="currentColor" fill-rule="evenodd"><path d="M2 2.99C2 2.445 2.447 2 3 2h22a1 1 0 0 1 1 .99v4.02c0 .546-.447.99-1 .99H3a1 1 0 0 1-1-.99V2.99zm13 20.02c0-.558.445-1.01.996-1.01h9.008c.55 0 .996.443.996 1.01v1.98c0 .558-.445 1.01-.996 1.01h-9.008A.997.997 0 0 1 15 24.99v-1.98zm-13 0c0-.558.445-1.01.996-1.01h9.008c.55 0 .996.443.996 1.01v1.98c0 .558-.445 1.01-.996 1.01H2.996A.997.997 0 0 1 2 24.99v-1.98zm13-6c0-.558.445-1.01.996-1.01h9.008c.55 0 .996.443.996 1.01v1.98c0 .558-.445 1.01-.996 1.01h-9.008A.997.997 0 0 1 15 18.99v-1.98zm-13 0c0-.558.445-1.01.996-1.01h9.008c.55 0 .996.443.996 1.01v1.98c0 .558-.445 1.01-.996 1.01H2.996A.997.997 0 0 1 2 18.99v-1.98zm13-6c0-.558.445-1.01.996-1.01h9.008c.55 0 .996.443.996 1.01v1.98c0 .558-.445 1.01-.996 1.01h-9.008A.997.997 0 0 1 15 12.99v-1.98zm-13 0c0-.558.445-1.01.996-1.01h9.008c.55 0 .996.443.996 1.01v1.98c0 .558-.445 1.01-.996 1.01H2.996A.997.997 0 0 1 2 12.99v-1.98z"/></g><g id="targeting!" fill="currentColor" fill-rule="evenodd"><g><path d="M14.348 2.519l-1.525 2.69A8 8 0 1 0 18.938 12h3.017c.03.33.045.663.045 1 0 6.075-4.925 11-11 11S0 19.075 0 13 4.925 2 11 2c1.167 0 2.292.182 3.348.519zM16.576 12a1.037 1.037 0 0 1-.517.378l-4.677 1.566c-.82.275-1.6-.508-1.326-1.33l.984-2.963C11.252 10.917 12.294 12 13.76 12h2.816zm.393 1.61a6 6 0 1 1-6.6-6.577 2.62 2.62 0 0 0-.177.412l-1.067 3.213a3 3 0 1 0 4.223 4.21l3.187-1.067a2.61 2.61 0 0 0 .434-.19z" fill-rule="nonzero" transform="translate(3 1)"/><path d="M23.887 8.752c.31.547-.054 1.248-.647 1.248h-9.48c-.593 0-.957-.701-.647-1.248l4.74-8.36a.73.73 0 0 1 1.294 0l4.74 8.36zM17.5 3.01v1.982a1 1 0 1 0 2 0V3.009a1 1 0 1 0-2 0zM18.5 9a1 1 0 1 0 0-2 1 1 0 0 0 0 2z" fill="var(--alert-color)" transform="translate(3 1)"/></g></g><g id="targeting" fill="currentColor" fill-rule="evenodd"><path d="M25 14c0 6.075-4.925 11-11 11S3 20.075 3 14 7.925 3 14 3c1.797 0 3.494.431 4.992 1.195l.016 1.163-1.46 1.47a8 8 0 1 0 3.646 3.67l1.504-1.466h1.119A10.954 10.954 0 0 1 25 14zm-5.03.61a6 6 0 1 1-6.6-6.577 2.62 2.62 0 0 0-.178.412l-1.067 3.213a3 3 0 1 0 4.223 4.21l3.187-1.067a2.61 2.61 0 0 0 .434-.19zm-2.795-5.277l3.317-3.34V3.089c0-.602.486-1.089 1.085-1.089s1.084.487 1.084 1.089v2.266h2.254c.6 0 1.085.487 1.085 1.088 0 .602-.486 1.09-1.085 1.09h-2.889l-3.317 3.34.76.763c.551.553.33 1.495-.41 1.742l-4.677 1.566c-.82.275-1.6-.508-1.326-1.33l1.56-4.696a1.047 1.047 0 0 1 1.736-.411l.823.826z"/></g><g id="targets" fill="currentColor" fill-rule="evenodd"><path d="M14 26C7.373 26 2 20.627 2 14S7.373 2 14 2s12 5.373 12 12-5.373 12-12 12zm9-12a9 9 0 1 0-18 0 9 9 0 0 0 18 0zm-9 7a7 7 0 1 1 0-14 7 7 0 0 1 0 14zm0-3a4 4 0 1 0 0-8 4 4 0 0 0 0 8zm0-2a2 2 0 1 1 0-4 2 2 0 0 1 0 4z"/></g><g id="tivo" fill="currentColor" fill-rule="evenodd"><path d="M22.85 11.669c-.292-.708-.791-1.157-1.583-1.341-.121-.028-2.177-.512-4.852-.718.011-.036.02-.072.038-.107.418-1.111 1.044-2.077 1.962-2.88.242-.215.5-.42.785-.584a1.4 1.4 0 0 1 .758-.193c.204.007.407.027.61.048.243.024.48.057.727.038.4-.035.637-.23.707-.597.012-.05.012-.102.017-.15a2.983 2.983 0 0 0-.077-.83c-.24-.999-.846-1.73-1.84-2.173-.242-.11-.501-.178-.775-.182-.681-.014-1.165.432-1.17 1.067-.006.244.054.472.148.695.038.084.07.166.105.252.104.29.06.561-.11.819a2.016 2.016 0 0 1-.418.433 10 10 0 0 0-1.193 1.07c-.896.949-1.545 2.01-1.9 3.2L14.6 9.53c-.22-.005-.44 0-.665 0-.225 0-.324-.004-.544 0l-.17.007c-.358-1.191-1.006-2.251-1.901-3.2-.369-.39-.77-.742-1.193-1.07a1.89 1.89 0 0 1-.418-.433.893.893 0 0 1-.115-.82c.033-.085.071-.167.104-.251.1-.223.155-.451.155-.695-.006-.635-.49-1.08-1.17-1.067a1.989 1.989 0 0 0-.782.182c-.989.442-1.594 1.174-1.835 2.173a2.983 2.983 0 0 0-.076.83c0 .048.005.1.015.15.072.367.308.562.709.597.242.019.484-.014.726-.038.203-.02.406-.041.605-.048.274-.011.527.06.764.193.285.164.537.369.785.584.917.803 1.544 1.769 1.962 2.88.016.035.027.07.038.104-2.434.171-4.177.563-4.77.687-.758.161-1.292.576-1.615 1.235a2.135 2.135 0 0 0-.21.953c0 .175.034.35.066.525.199 1.084.176.961.424 2.04.21.913.686 3.03.896 3.94.22.969.807 1.683 1.73 2.144.484.236.995.344 1.534.346.57.004 1.643 0 2.214 0 .1.622.072.769.072 1.16 0 .46-.396 1.088-.957 1.213-.554.126-1.702.362-2.076.473-.918.271-1.182.927-1.182 1.404 0 .094.038.272.038.272V26h12.43v-.001s.034-.178.034-.272c0-.477-.259-1.133-1.182-1.404-.374-.11-1.522-.347-2.078-.473-.56-.125-.955-.753-.955-1.213 0-.391-.022-.538.072-1.16.571-.002 1.658.006 2.23 0 .192-.002.385-.012.572-.046 1.307-.245 2.18-.963 2.615-2.14.078-.206.116-.42.165-.633.286-1.21.577-2.415.852-3.624.143-.64.264-1.279.396-1.92a4.12 4.12 0 0 0 .087-.614 1.892 1.892 0 0 0-.148-.831m-8.875 13.295c-.456-.922-.692-2.166-.649-3.486h1.292c.05 1.324-.191 2.564-.643 3.486"/></g><g id="traffic" fill="currentColor" fill-rule="evenodd"><path d="M15 21v3h3.005c.55 0 .995.444.995 1 0 .552-.456 1-.995 1h-8.01A.995.995 0 0 1 9 25c0-.552.456-1 .995-1H13v-3h2zm0-16h-2V3a1 1 0 1 1 2 0v2zM7 6.001h11.993c.556 0 1.007.443 1.007 1.01v1.98c0 .558-.449 1.01-1.007 1.01H7v1.5a.5.5 0 0 1-.83.376l-4-3.5a.5.5 0 0 1 0-.752l4-3.5A.5.5 0 0 1 7 4.5v1.5zm14 5v-1.5a.5.5 0 0 1 .83-.376l4 3.5a.5.5 0 0 1 0 .752l-4 3.5a.5.5 0 0 1-.83-.376v-1.5H10.999c-.552 0-.999-.452-.999-1.01v-1.98c0-.567.447-1.01.999-1.01H21zm-12 5h8.998A1 1 0 0 1 19 17.011v1.98a1.01 1.01 0 0 1-1.002 1.01H9v1.5a.5.5 0 0 1-.83.376l-4-3.5a.5.5 0 0 1 0-.752l4-3.5A.5.5 0 0 1 9 14.5v1.5z"/></g><g id="trash" fill="currentColor" fill-rule="evenodd"><path d="M23.09 24.424c0 .87-.69 1.576-1.518 1.576H6.428c-.839 0-1.519-.721-1.519-1.576L4 7h20l-.91 17.424zM2 5a1 1 0 0 1 1-1h22a1 1 0 1 1 0 2H3c-.552 0-1-.444-1-1zm16-1h-8c0-1.105.887-2 1.998-2h4.004C17.105 2 18 2.888 18 4zm-9 6v13h1V10H9zm3 0v13h1V10h-1zm3 0v13h1V10h-1zm3 0v13h1V10h-1z"/></g><g id="twisty-closed" fill="currentColor" fill-rule="evenodd"><path transform="rotate(90 14 14)" d="M2 20L14 8l12 12z"/></g><g id="twisty-open" fill="currentColor" fill-rule="evenodd"><path transform="matrix(1 0 0 -1 0 28)" d="M2 20L14 8l12 12z"/></g><g id="un-nest" fill="currentColor" fill-rule="evenodd"><path d="M22.64 3.162c1.276-.482 2.707.148 3.196 1.41a2.435 2.435 0 0 1-1.427 3.156c-2.476.936-4.185 3.422-4.185 6.272s1.709 5.336 4.185 6.272a2.435 2.435 0 0 1 1.427 3.157c-.489 1.26-1.92 1.891-3.197 1.409-4.403-1.665-7.366-5.975-7.366-10.838 0-4.863 2.963-9.173 7.366-10.838zM3.59 7.728A2.435 2.435 0 0 1 2.164 4.57c.489-1.26 1.92-1.891 3.197-1.409C9.764 4.827 12.727 9.137 12.727 14c0 4.863-2.963 9.173-7.366 10.838-1.277.482-2.708-.148-3.197-1.41a2.435 2.435 0 0 1 1.427-3.156C6.067 19.336 7.776 16.85 7.776 14S6.067 8.664 3.591 7.728z"/></g><g id="unchecked" fill="currentColor" fill-rule="evenodd"><path d="M23 23V5H5v18h18zm.333 3H4.667A2.675 2.675 0 0 1 2 23.333V4.667C2 3.2 3.2 2 4.667 2h18.666C24.8 2 26 3.2 26 4.667v18.666C26 24.8 24.8 26 23.333 26z"/></g><g id="unlocked" fill="currentColor" fill-rule="evenodd"><path d="M9.019 11.74A1.51 1.51 0 0 1 9 11.5V6.99a2.001 2.001 0 0 0-4 0v4.51a1.5 1.5 0 0 1-3 0V6.99a5 5 0 0 1 10 0v3.262a8 8 0 1 1-2.981 1.487zm4.981.927a5.333 5.333 0 1 0 0 10.666 5.333 5.333 0 0 0 0-10.666zm1.742 9.423a1.778 1.778 0 0 0-3.484 0 4.446 4.446 0 1 1 3.484 0z"/></g><g id="upload!" fill="currentColor" fill-rule="evenodd"><g><path d="M21.11 15.572l-3.874-2.197c-1.834-1.04-4.234.205-4.234 2.387v.24h-7v-6h9v-5l8.996 8-2.888 2.57zM8.002 1.002v4H5.348c-.752 0-1.346.596-1.346 1.346v13.308c0 .751.596 1.346 1.346 1.346h2.654v4H4.328c-2.39 0-4.326-2.005-4.326-4.515V5.516c0-2.493 1.921-4.514 4.326-4.514h3.674z" fill-rule="nonzero" transform="rotate(-90 13.5 12.502)"/><path d="M24.887 8.752c.31.547-.054 1.248-.647 1.248h-9.48c-.593 0-.957-.701-.647-1.248l4.74-8.36a.73.73 0 0 1 1.294 0l4.74 8.36zM18.5 3.01v1.982a1 1 0 1 0 2 0V3.009a1 1 0 1 0-2 0zM19.5 9a1 1 0 1 0 0-2 1 1 0 0 0 0 2z" fill="var(--alert-color)" transform="translate(2 1)"/></g></g><g id="upload" fill="currentColor" fill-rule="evenodd"><path d="M10.001 2v4H7.347C6.595 6 6 6.596 6 7.346v13.308C6 21.405 6.597 22 7.347 22H10v4H6.327C3.937 26 2 23.995 2 21.486V6.514C2 4.021 3.922 2 6.327 2H10zm7.001 9V6L26 14l-8.998 8.002V17H8.001v-6h9.001z" transform="rotate(-90 14 14)"/></g></svg>