<?xml version="1.0" encoding="UTF-8"?>
<svg width="28px" height="28px" viewBox="0 0 28 28" version="1.1" xmlns="http://www.w3.org/2000/svg" xmlns:xlink="http://www.w3.org/1999/xlink">
    <!-- Generator: Sketch 46.2 (44496) - http://www.bohemiancoding.com/sketch -->
    <title>accounts</title>
    <desc>Created with Sketch.</desc>
    <defs></defs>
    <g id="Icons" stroke="none" stroke-width="1" fill="none" fill-rule="evenodd">
        <g id="accounts" fill="#63666A">
            <path d="M23.9999575,7 C23.9999858,6.99688039 24,6.99375741 24,6.9906311 L24,5.0093689 C24,4.44335318 23.5564136,4 23.009222,4 L18.990778,4 C18.4509752,4 18,4.45190985 18,5.0093689 L18,6.9906311 C18,6.99375783 18.0000135,6.99688082 18.0000406,7 L23.9999633,7 Z M16.9999575,7 C16.9999858,6.9968804 17,6.99375741 17,6.9906311 L17,5.0093689 C17,4.44335318 16.5564136,4 16.009222,4 L11.990778,4 C11.4509752,4 11,4.45190985 11,5.0093689 L11,6.9906311 C11,6.99375783 11.0000135,6.99688081 11.0000406,7 L16.9999605,7 Z M9.99995751,7 C9.99998582,6.9968804 10,6.99375741 10,6.9906311 L10,5.0093689 C10,4.44335318 9.55641359,4 9.00922203,4 L4.99077797,4 C4.45097518,4 4,4.45190985 4,5.0093689 L4,6.9906311 C4,6.99375783 4.00001354,6.99688082 4.00004055,7 L9.99996053,7 Z M6,24 L3.00069463,24 C2.44802625,24 2,23.5553691 2,22.9991283 L2,9.00087166 C2,8.4481055 2.44746922,8 3.00069463,8 L24.9993054,8 C25.5519738,8 26,8.44463086 26,9.00087166 L26,22.9991283 C26,23.5518945 25.5525308,24 24.9993054,24 L22,24 C22,22.8954305 21.1045695,22 20,22 C18.8954305,22 18,22.8954305 18,24 L10,24 C10,22.8954305 9.1045695,22 8,22 C6.8954305,22 6,22.8954305 6,24 Z M6.03320312,15.5 C6.03320312,15.7680664 6.25544593,16 6.52959633,16 L21.5368099,16 C21.8070221,16 22.0332031,15.7761424 22.0332031,15.5 C22.0332031,15.2319336 21.8109603,15 21.5368099,15 L6.52959633,15 C6.25938416,15 6.03320312,15.2238576 6.03320312,15.5 Z M6.03320312,18.5 C6.03320312,18.7680664 6.25725588,19 6.53363895,19 L13.5327673,19 C13.8024063,19 14.0332031,18.7761424 14.0332031,18.5 C14.0332031,18.2319336 13.8091504,18 13.5327673,18 L6.53363895,18 C6.26399994,18 6.03320312,18.2238576 6.03320312,18.5 Z M6.03320312,12.5 C6.03320312,12.7680664 6.25544593,13 6.52959633,13 L21.5368099,13 C21.8070221,13 22.0332031,12.7761424 22.0332031,12.5 C22.0332031,12.2319336 21.8109603,12 21.5368099,12 L6.52959633,12 C6.25938416,12 6.03320312,12.2238576 6.03320312,12.5 Z"></path>
        </g>
    </g>
</svg>