<?xml version="1.0" encoding="UTF-8"?>
<svg width="28px" height="28px" viewBox="0 0 28 28" version="1.1" xmlns="http://www.w3.org/2000/svg" xmlns:xlink="http://www.w3.org/1999/xlink">
    <!-- Generator: Sketch 47 (45396) - http://www.bohemiancoding.com/sketch -->
    <title>add-dayparts</title>
    <desc>Created with Sketch.</desc>
    <defs></defs>
    <g id="Icons" stroke="none" stroke-width="1" fill="none" fill-rule="evenodd">
        <g id="add-dayparts">
            <g transform="translate(1.000000, 1.000000)">
                <path d="M14.3353828,1.22711248 C13.752551,2.06639866 13.336715,3.03039549 13.1359721,4.07100551 C12.7639094,4.02414604 12.3847745,4 12,4 C7.02943725,4 3,8.02943725 3,13 L0,13 C0,6.372583 5.372583,1 12,1 C12.7991107,1 13.5799778,1.07811033 14.3353828,1.22711248 Z M23.9703975,12.1505168 C23.9900227,12.4311278 24,12.7143987 24,13 C24,19.627417 18.627417,25 12,25 L12,22 C16.9705627,22 21,17.9705627 21,13 C21,12.9945318 20.9999951,12.9890646 20.9999854,12.9835987 C22.066385,12.9134099 23.0719049,12.6203334 23.9703975,12.1505168 Z M8.04112565,14 C8.05047755,15.8507647 9.32324454,17.4027114 11.0410738,17.8374871 L11.0410738,24.9622442 C5.19204792,24.4997934 0.5231512,19.8434819 0.041073777,14 L8.04112565,14 L8.04112565,14 Z M14,8 L14,12.6574166 L16.1425826,13.5341331 C17.1648791,13.9524434 17.6545068,15.120286 17.2361965,16.1425826 C16.8178862,17.1648791 15.6500436,17.6545068 14.627747,17.2361965 L11.2425822,15.8510317 C10.4910128,15.5434994 10,14.8120547 10,14 L10,8 C10,6.8954305 10.8954305,6 12,6 C13.1045695,6 14,6.8954305 14,8 Z" id="dayparts" fill="#63666A" fill-rule="nonzero"></path>
                <path d="M20.5,11 C17.4624339,11 15,8.53756612 15,5.5 C15,2.46243388 17.4624339,0 20.5,0 C23.5375661,0 26,2.46243388 26,5.5 C26,8.53756612 23.5375661,11 20.5,11 Z M19.625,6.375 L19.625,9 L21.375,9 L21.375,6.375 L24,6.375 L24,4.625 L21.375,4.625 L21.375,2 L19.625,2 L19.625,4.625 L17,4.625 L17,6.375 L19.625,6.375 Z" id="plus-11" fill="#00A7E1"></path>
            </g>
        </g>
    </g>
</svg>