<?xml version="1.0" encoding="UTF-8"?>
<svg width="28px" height="28px" viewBox="0 0 28 28" version="1.1" xmlns="http://www.w3.org/2000/svg" xmlns:xlink="http://www.w3.org/1999/xlink">
    <!-- Generator: Sketch 46.2 (44496) - http://www.bohemiancoding.com/sketch -->
    <title>add-target</title>
    <desc>Created with Sketch.</desc>
    <defs></defs>
    <g id="Icons" stroke="none" stroke-width="1" fill="none" fill-rule="evenodd">
        <g id="add-target">
            <g transform="translate(2.000000, 1.000000)">
                <path d="M13.4364681,1.08509012 C12.8140334,1.93849115 12.3673874,2.92828457 12.1497794,4.00122116 C12.0999503,4.0004081 12.0500228,4 12,4 C7.02943725,4 3,8.02943725 3,13 C3,17.9705627 7.02943725,22 12,22 C16.9705627,22 21,17.9705627 21,13 C21,12.9499772 20.9995919,12.9000497 20.9987788,12.8502206 C22.0717154,12.6326126 23.0615088,12.1859666 23.9149099,11.5635319 C23.971095,12.0345202 24,12.5138845 24,13 C24,19.627417 18.627417,25 12,25 C5.372583,25 0,19.627417 0,13 C0,6.372583 5.372583,1 12,1 C12.4861155,1 12.9654798,1.02890503 13.4364681,1.08509012 Z M12.0164035,6.00001881 C12.090174,7.12075986 12.4101266,8.17425771 12.9226935,9.10694444 C12.6264908,9.03700726 12.3175671,9 12,9 C9.790861,9 8,10.790861 8,13 C8,15.209139 9.790861,17 12,17 C14.209139,17 16,15.209139 16,13 C16,12.6824329 15.9629927,12.3735092 15.8930556,12.0773065 C16.8257423,12.5898734 17.8792401,12.909826 18.9999812,12.9835965 C18.9999937,12.9890629 19,12.9945307 19,13 C19,16.8659932 15.8659932,20 12,20 C8.13400675,20 5,16.8659932 5,13 C5,9.13400675 8.13400675,6 12,6 C12.0054693,6 12.0109371,6.00000627 12.0164035,6.00001881 Z M12,15 C10.8954305,15 10,14.1045695 10,13 C10,11.8954305 10.8954305,11 12,11 C13.1045695,11 14,11.8954305 14,13 C14,14.1045695 13.1045695,15 12,15 Z" id="target-notched" fill="#63666A" fill-rule="nonzero"></path>
                <path d="M19.5,11 C16.4624339,11 14,8.53756612 14,5.5 C14,2.46243388 16.4624339,0 19.5,0 C22.5375661,0 25,2.46243388 25,5.5 C25,8.53756612 22.5375661,11 19.5,11 Z M18.625,6.375 L18.625,9 L20.375,9 L20.375,6.375 L23,6.375 L23,4.625 L20.375,4.625 L20.375,2 L18.625,2 L18.625,4.625 L16,4.625 L16,6.375 L18.625,6.375 Z" id="plus-11" fill="#00A7E1"></path>
            </g>
        </g>
    </g>
</svg>