<?xml version="1.0" encoding="UTF-8"?>
<svg width="28px" height="28px" viewBox="0 0 28 28" version="1.1" xmlns="http://www.w3.org/2000/svg" xmlns:xlink="http://www.w3.org/1999/xlink">
    <!-- Generator: Sketch 46.2 (44496) - http://www.bohemiancoding.com/sketch -->
    <title>add-media-plan</title>
    <desc>Created with Sketch.</desc>
    <defs></defs>
    <g id="Icons" stroke="none" stroke-width="1" fill="none" fill-rule="evenodd">
        <g id="add-media-plan">
            <g transform="translate(4.000000, 1.000000)">
                <path d="M16.9458107,12.9798355 C17.128796,12.9932003 17.3136039,13 17.5,13 C18.3765886,13 19.2180527,12.8496144 20,12.5732357 L20,22 C20,23.65675 18.6223077,25 16.9230769,25 L3.07692308,25 C1.37769231,25 0,23.65675 0,22 L0,4 C0,2.34325 1.37769231,1 3.07692308,1 L11.4843803,1.02013365 C10.5519667,2.2701571 10,3.82061918 10,5.5 C10,6.01369876 10.0516454,6.51533509 10.1500272,7 L7.94999094,7 C7.71835578,5.85887984 6.70947896,5 5.5,5 C4.11928813,5 3,6.11928813 3,7.5 C3,8.88071187 4.11928813,10 5.5,10 C6.70947896,10 7.71835578,9.14112016 7.94999094,8 L10.4267643,8 C10.9239496,9.40666658 11.8288664,10.6207284 12.9995126,11.5001831 C12.5196674,11.8607912 12.1738163,12.3900801 12.0500091,13 L3.49826741,13 C3.21990657,13 3,13.2238576 3,13.5 C3,13.7680664 3.22308192,14 3.49826741,14 L12.0500091,14 C12.2816442,15.1411202 13.290521,16 14.5,16 C15.8807119,16 17,14.8807119 17,13.5 C17,13.3216325 16.9813204,13.1476278 16.9458107,12.9798355 Z M6.05000906,19 L3.49826741,19 C3.21990657,19 3,19.2238576 3,19.5 C3,19.7680664 3.22308192,20 3.49826741,20 L6.05000906,20 C6.28164422,21.1411202 7.29052104,22 8.5,22 C9.70947896,22 10.7183558,21.1411202 10.9499909,20 L16.5017326,20 C16.7800934,20 17,19.7761424 17,19.5 C17,19.2319336 16.7769181,19 16.5017326,19 L10.9499909,19 C10.7183558,17.8588798 9.70947896,17 8.5,17 C7.29052104,17 6.28164422,17.8588798 6.05000906,19 Z" id="media-plan-notched" fill="#63666A"></path>
                <path d="M17.5,11 C14.4624339,11 12,8.53756612 12,5.5 C12,2.46243388 14.4624339,0 17.5,0 C20.5375661,0 23,2.46243388 23,5.5 C23,8.53756612 20.5375661,11 17.5,11 Z M16.625,6.375 L16.625,9 L18.375,9 L18.375,6.375 L21,6.375 L21,4.625 L18.375,4.625 L18.375,2 L16.625,2 L16.625,4.625 L14,4.625 L14,6.375 L16.625,6.375 Z" id="plus-11" fill="#00A7E1"></path>
            </g>
        </g>
    </g>
</svg>