<?xml version="1.0" encoding="UTF-8"?>
<svg width="28px" height="28px" viewBox="0 0 28 28" version="1.1" xmlns="http://www.w3.org/2000/svg" xmlns:xlink="http://www.w3.org/1999/xlink">
    <!-- Generator: Sketch 46.2 (44496) - http://www.bohemiancoding.com/sketch -->
    <title>add-account</title>
    <desc>Created with Sketch.</desc>
    <defs></defs>
    <g id="Icons" stroke="none" stroke-width="1" fill="none" fill-rule="evenodd">
        <g id="add-account">
            <g transform="translate(2.000000, 1.000000)">
                <path d="M14.4009315,11 L4.52959633,11 C4.25938416,11 4.03320312,11.2238576 4.03320312,11.5 C4.03320312,11.7680664 4.25544593,12 4.52959633,12 L15.7558256,12 C16.8576582,12.6360558 18.1363272,13 19.5,13 C21.1884089,13 22.7465092,12.4420828 24,11.5005493 L24,21.9991283 C24,22.5518945 23.5525308,23 22.9993054,23 L20,23 C20,21.8954305 19.1045695,21 18,21 C16.8954305,21 16,21.8954305 16,23 L8,23 C8,21.8954305 7.1045695,21 6,21 C4.8954305,21 4,21.8954305 4,23 L4,23 L1.00069463,23 C0.448026248,23 0,22.5553691 0,21.9991283 L0,8.00087166 C0,7.4481055 0.44746922,7 1.00069463,7 L12.1500272,7 L12.1500272,7 C12.4678211,8.56556995 13.2732749,9.95405562 14.4009315,11 Z M7.99995751,6 L7.99996053,6 L2.00004055,6 C2.00001354,5.99688082 2,5.99375783 2,5.9906311 L2,4.0093689 C2,3.45190985 2.45097518,3 2.99077797,3 L7.00922203,3 C7.55641359,3 8,3.44335318 8,4.0093689 L8,5.9906311 C8,5.99375741 7.99998582,5.9968804 7.99995751,6 Z M4.03320312,14.5 C4.03320312,14.7680664 4.25544593,15 4.52959633,15 L19.5368099,15 C19.8070221,15 20.0332031,14.7761424 20.0332031,14.5 C20.0332031,14.2319336 19.8109603,14 19.5368099,14 L4.52959633,14 C4.25938416,14 4.03320312,14.2238576 4.03320312,14.5 Z M4.03320312,17.5 C4.03320312,17.7680664 4.25725588,18 4.53363895,18 L11.5327673,18 C11.8024063,18 12.0332031,17.7761424 12.0332031,17.5 C12.0332031,17.2319336 11.8091504,17 11.5327673,17 L4.53363895,17 C4.26399994,17 4.03320312,17.2238576 4.03320312,17.5 Z M12.4267643,3 L12.4267643,3 C12.1503856,3.78194731 12,4.62341144 12,5.5 C12,5.66801428 12.0055247,5.83473819 12.0164023,6 L9.00004055,6 C9.00001354,5.99688081 9,5.99375783 9,5.9906311 L9,4.0093689 C9,3.45190985 9.45097518,3 9.99077797,3 L12.4267643,3 Z" id="account-notched" fill="#63666A"></path>
                <path d="M19.5,11 C16.4624339,11 14,8.53756612 14,5.5 C14,2.46243388 16.4624339,0 19.5,0 C22.5375661,0 25,2.46243388 25,5.5 C25,8.53756612 22.5375661,11 19.5,11 Z M18.625,6.375 L18.625,9 L20.375,9 L20.375,6.375 L23,6.375 L23,4.625 L20.375,4.625 L20.375,2 L18.625,2 L18.625,4.625 L16,4.625 L16,6.375 L18.625,6.375 Z" id="plus-11" fill="#00A7E1"></path>
            </g>
        </g>
    </g>
</svg>