<?xml version="1.0" encoding="UTF-8"?>
<svg width="28px" height="28px" viewBox="0 0 28 28" version="1.1" xmlns="http://www.w3.org/2000/svg" xmlns:xlink="http://www.w3.org/1999/xlink">
    <!-- Generator: Sketch 46.2 (44496) - http://www.bohemiancoding.com/sketch -->
    <title>alert</title>
    <desc>Created with Sketch.</desc>
    <defs></defs>
    <g id="Icons" stroke="none" stroke-width="1" fill="none" fill-rule="evenodd">
        <g id="alert" fill="#63666A">
            <path d="M25.7536981,22.3802365 C26.4291317,23.5268975 25.6356575,25 24.3425846,25 L3.6574154,25 C2.36434253,25 1.57086832,23.5268975 2.24630195,22.3802365 L12.5888865,4.82197786 C13.2344612,3.72600738 14.7655388,3.72600738 15.4111135,4.82197786 L25.7536981,22.3802365 Z M12,10.9973917 L12,16.0026083 C12,17.1041422 12.8954305,18 14,18 C15.1122704,18 16,17.1057373 16,16.0026083 L16,10.9973917 C16,9.89585781 15.1045695,9 14,9 C12.8877296,9 12,9.89426273 12,10.9973917 Z M14,23 C15.1045695,23 16,22.1045695 16,21 C16,19.8954305 15.1045695,19 14,19 C12.8954305,19 12,19.8954305 12,21 C12,22.1045695 12.8954305,23 14,23 Z"></path>
        </g>
    </g>
</svg>