<?xml version="1.0" encoding="UTF-8"?>
<svg width="28px" height="28px" viewBox="0 0 28 28" version="1.1" xmlns="http://www.w3.org/2000/svg" xmlns:xlink="http://www.w3.org/1999/xlink">
    <!-- Generator: Sketch 46.2 (44496) - http://www.bohemiancoding.com/sketch -->
    <title>archive</title>
    <desc>Created with Sketch.</desc>
    <defs></defs>
    <g id="Icons" stroke="none" stroke-width="1" fill="none" fill-rule="evenodd">
        <g id="archive" fill="#63666A">
            <path d="M24,22.5069036 C24,23.331518 23.2403984,24 22.3292112,24 L5.67078882,24 C4.74803764,24 4,23.3165034 4,22.5069036 L4,13.4965482 L4,9 L24,9 L24,13.4965482 L24,22.5069036 Z M2,5.0093689 C2,4.45190985 2.44746922,4 3.00069463,4 L24.9993054,4 C25.5519738,4 26,4.44335318 26,5.0093689 L26,6.9906311 C26,7.54809015 25.5525308,8 24.9993054,8 L3.00069463,8 C2.44802625,8 2,7.55664682 2,6.9906311 L2,5.0093689 Z M8,11.9970301 L8,18.0029699 C8,18.5469637 8.44882258,19 9.00247329,19 L18.9975267,19 C19.544239,19 20,18.5536144 20,18.0029699 L20,11.9970301 C20,11.4530363 19.5511774,11 18.9975267,11 L9.00247329,11 C8.45576096,11 8,11.4463856 8,11.9970301 Z M9,12.990778 C9,12.4435864 9.4556644,12 9.99539757,12 L18.0046024,12 C18.5543453,12 19,12.4509752 19,12.990778 L19,17.009222 C19,17.5564136 18.5443356,18 18.0046024,18 L9.99539757,18 C9.44565467,18 9,17.5490248 9,17.009222 L9,12.990778 Z"></path>
        </g>
    </g>
</svg>