<?xml version="1.0" encoding="UTF-8"?>
<svg width="28px" height="28px" viewBox="0 0 28 28" version="1.1" xmlns="http://www.w3.org/2000/svg" xmlns:xlink="http://www.w3.org/1999/xlink">
    <!-- Generator: Sketch 46.2 (44496) - http://www.bohemiancoding.com/sketch -->
    <title>campaigns</title>
    <desc>Created with Sketch.</desc>
    <defs></defs>
    <g id="Icons" stroke="none" stroke-width="1" fill="none" fill-rule="evenodd">
        <g id="campaigns" fill="#63666A">
            <path d="M3.07062505,23 L3.00307055,23 C2.44908998,23 2,22.5553691 2,21.9991283 L2,8.00087166 C2,8.00075846 2.00000002,8.00064526 2.00000006,8.00053207 C2.00000002,8.00041891 2,8.00030571 2,8.00019251 L2,4.99980749 C2,4.44762906 2.44804244,4 3.00846097,4 L9.78272639,4 C10.339684,4 10.9479892,4.42807007 11.1384188,4.94794416 L11.8900858,7 L23.9969294,7 C24.55091,7 25,7.44463086 25,8.00087166 L25,9 L5.92446502,9 C4.87846622,9 4.00419021,9.85475019 3.92754837,10.9339208 L3.07062505,23 Z M6.86320345,11 L25.1486373,11 C25.6549432,11 26.0351029,11.3890642 25.9974244,11.8731528 L25.1215054,23.1268472 C25.0839717,23.6090762 24.6516613,24 24.1367965,24 L5.85136274,24 C5.3450568,24 4.96489712,23.6109358 5.00257563,23.1268472 L5.87849456,11.8731528 C5.91602832,11.3909238 6.3483387,11 6.86320345,11 Z"></path>
        </g>
    </g>
</svg>