<?xml version="1.0" encoding="UTF-8"?>
<svg width="28px" height="28px" viewBox="0 0 28 28" version="1.1" xmlns="http://www.w3.org/2000/svg" xmlns:xlink="http://www.w3.org/1999/xlink">
    <!-- Generator: Sketch 46.2 (44496) - http://www.bohemiancoding.com/sketch -->
    <title>collapse-vert</title>
    <desc>Created with Sketch.</desc>
    <defs></defs>
    <g id="Icons" stroke="none" stroke-width="1" fill="none" fill-rule="evenodd">
        <g id="collapse-vert" fill="#63666A">
            <path d="M22,9.62606385 L22,18.3739362 C22,18.9107798 21.2916548,19.1976962 20.8390468,18.8441822 L15.2390468,14.4702461 C14.9203177,14.2212996 14.9203177,13.7787004 15.2390468,13.5297539 L20.8390468,9.15581779 C21.2916548,8.80230375 22,9.08922017 22,9.62606385 Z M6,9.62606385 C6,9.08922017 6.7083452,8.80230375 7.16095323,9.15581779 L12.7609532,13.5297539 C13.0796823,13.7787004 13.0796823,14.2212996 12.7609532,14.4702461 L7.16095323,18.8441822 C6.7083452,19.1976962 6,18.9107798 6,18.3739362 L6,9.62606385 Z M24,3.00069463 C24,2.44802625 24.4438648,2 25,2 C25.5522847,2 26,2.44746922 26,3.00069463 L26,24.9993054 C26,25.5519738 25.5561352,26 25,26 C24.4477153,26 24,25.5525308 24,24.9993054 L24,3.00069463 Z M2,3.00069463 C2,2.44802625 2.44386482,2 3,2 C3.55228475,2 4,2.44746922 4,3.00069463 L4,24.9993054 C4,25.5519738 3.55613518,26 3,26 C2.44771525,26 2,25.5525308 2,24.9993054 L2,3.00069463 Z" transform="translate(14.000000, 14.000000) rotate(90.000000) translate(-14.000000, -14.000000) "></path>
        </g>
    </g>
</svg>