<?xml version="1.0" encoding="UTF-8"?>
<svg width="28px" height="28px" viewBox="0 0 28 28" version="1.1" xmlns="http://www.w3.org/2000/svg" xmlns:xlink="http://www.w3.org/1999/xlink">
    <!-- Generator: Sketch 46.2 (44496) - http://www.bohemiancoding.com/sketch -->
    <title>currency</title>
    <desc>Created with Sketch.</desc>
    <defs></defs>
    <g id="Icons" stroke="none" stroke-width="1" fill="none" fill-rule="evenodd">
        <g id="currency" fill="#63666A">
            <path d="M14,11 C7.372583,11 2,9.209139 2,7 C2,4.790861 7.372583,3 14,3 C20.627417,3 26,4.790861 26,7 C26,9.209139 20.627417,11 14,11 Z M25.1277244,10.5 C25.6902393,10.9632157 26,11.4695498 26,12 C26,14.209139 20.627417,16 14,16 C7.372583,16 2,14.209139 2,12 C2,11.4695498 2.3097607,10.9632157 2.87227557,10.5 C4.6524377,11.9659152 8.96393367,13 14,13 C19.0360663,13 23.3475623,11.9659152 25.1277244,10.5 L25.1277244,10.5 Z M25.1277244,15.5 C25.6902393,15.9632157 26,16.4695498 26,17 C26,19.209139 20.627417,21 14,21 C7.372583,21 2,19.209139 2,17 C2,16.4695498 2.3097607,15.9632157 2.87227557,15.5 C4.6524377,16.9659152 8.96393367,18 14,18 C19.0360663,18 23.3475623,16.9659152 25.1277244,15.5 L25.1277244,15.5 Z M25.1277244,20.5 C25.6902393,20.9632157 26,21.4695498 26,22 C26,24.209139 20.627417,26 14,26 C7.372583,26 2,24.209139 2,22 C2,21.4695498 2.3097607,20.9632157 2.87227557,20.5 C4.6524377,21.9659152 8.96393367,23 14,23 C19.0360663,23 23.3475623,21.9659152 25.1277244,20.5 L25.1277244,20.5 Z"></path>
        </g>
    </g>
</svg>