<?xml version="1.0" encoding="UTF-8"?>
<svg width="28px" height="28px" viewBox="0 0 28 28" version="1.1" xmlns="http://www.w3.org/2000/svg" xmlns:xlink="http://www.w3.org/1999/xlink">
    <!-- Generator: Sketch 46.2 (44496) - http://www.bohemiancoding.com/sketch -->
    <title>dashboard</title>
    <desc>Created with Sketch.</desc>
    <defs></defs>
    <g id="Icons" stroke="none" stroke-width="1" fill="none" fill-rule="evenodd">
        <g id="dashboard" fill="#63666A" fill-rule="nonzero">
            <path d="M15.2564178,11.2749758 L18.2272353,8.30415834 C18.6327797,7.89861389 19.2902972,7.89861389 19.6958417,8.30415834 C20.1013861,8.7097028 20.1013861,9.36722028 19.6958417,9.77276473 L16.7250242,12.7435822 C16.9015297,13.1257659 17,13.5513835 17,14 C17,15.6568542 15.6568542,17 14,17 C12.3431458,17 11,15.6568542 11,14 C11,12.3431458 12.3431458,11 14,11 C14.4486165,11 14.8742341,11.0984703 15.2564178,11.2749758 Z M14,26 C7.372583,26 2,20.627417 2,14 C2,7.372583 7.372583,2 14,2 C20.627417,2 26,7.372583 26,14 C26,20.627417 20.627417,26 14,26 Z M23,14 C23,9.02943725 18.9705627,5 14,5 C9.02943725,5 5,9.02943725 5,14 C5,18.9705627 9.02943725,23 14,23 C18.9705627,23 23,18.9705627 23,14 Z M16.3217914,7.74316635 C16.5470434,7.83624197 16.6558699,8.09844666 16.5648622,8.32881692 C16.4738545,8.55918717 16.2174754,8.67048646 15.9922234,8.57741083 C13.0639477,7.36742772 9.73101908,8.81431846 8.54791892,11.8091318 C7.36481875,14.8039451 8.77956302,18.2126061 11.7078387,19.4225892 C14.6361144,20.6325723 17.969043,19.1856815 19.1521432,16.1908682 C19.2431509,15.960498 19.49953,15.8491987 19.724782,15.9422743 C19.9500339,16.0353499 20.0588604,16.2975546 19.9678527,16.5279249 C18.6027371,19.9834787 14.7570502,21.652968 11.3782706,20.2568337 C7.99949102,18.8606993 6.36709379,14.9276289 7.73220936,11.4720751 C9.09732494,8.0165213 12.9430118,6.34703198 16.3217914,7.74316635 Z"></path>
        </g>
    </g>
</svg>