<?xml version="1.0" encoding="UTF-8"?>
<svg width="28px" height="28px" viewBox="0 0 28 28" version="1.1" xmlns="http://www.w3.org/2000/svg" xmlns:xlink="http://www.w3.org/1999/xlink">
    <!-- Generator: Sketch 47 (45396) - http://www.bohemiancoding.com/sketch -->
    <title>dayparts</title>
    <desc>Created with Sketch.</desc>
    <defs></defs>
    <g id="Icons" stroke="none" stroke-width="1" fill="none" fill-rule="evenodd">
        <g id="dayparts" fill="#63666A" fill-rule="nonzero">
            <path d="M2,14 C2,7.372583 7.372583,2 14,2 C20.627417,2 26,7.372583 26,14 C26,20.627417 20.627417,26 14,26 L14,23 C18.9705627,23 23,18.9705627 23,14 C23,9.02943725 18.9705627,5 14,5 C9.02943725,5 5,9.02943725 5,14 L2,14 Z M10.0411257,15 C10.0504775,16.8507647 11.3232445,18.4027114 13.0410738,18.8374871 L13.0410738,25.9622442 C7.19204792,25.4997934 2.5231512,20.8434819 2.04107378,15 L10.0411257,15 L10.0411257,15 Z M16,9 L16,13.6574166 L18.1425826,14.5341331 C19.1648791,14.9524434 19.6545068,16.120286 19.2361965,17.1425826 C18.8178862,18.1648791 17.6500436,18.6545068 16.627747,18.2361965 L13.2425822,16.8510317 C12.4910128,16.5434994 12,15.8120547 12,15 L12,9 C12,7.8954305 12.8954305,7 14,7 C15.1045695,7 16,7.8954305 16,9 Z"></path>
        </g>
    </g>
</svg>