<?xml version="1.0" encoding="UTF-8"?>
<svg width="28px" height="28px" viewBox="0 0 28 28" version="1.1" xmlns="http://www.w3.org/2000/svg" xmlns:xlink="http://www.w3.org/1999/xlink">
    <!-- Generator: Sketch 46.2 (44496) - http://www.bohemiancoding.com/sketch -->
    <title>expand-vert</title>
    <desc>Created with Sketch.</desc>
    <defs></defs>
    <g id="Icons" stroke="none" stroke-width="1" fill="none" fill-rule="evenodd">
        <g id="expand-vert" fill="#63666A">
            <path d="M9,9.62606385 L9,18.3739362 C9,18.9107798 8.2916548,19.1976962 7.83904677,18.8441822 L2.23904677,14.4702461 C1.92031774,14.2212996 1.92031774,13.7787004 2.23904677,13.5297539 L7.83904677,9.15581779 C8.2916548,8.80230375 9,9.08922017 9,9.62606385 Z M19,9.62606385 C19,9.08922017 19.7083452,8.80230375 20.1609532,9.15581779 L25.7609532,13.5297539 C26.0796823,13.7787004 26.0796823,14.2212996 25.7609532,14.4702461 L20.1609532,18.8441822 C19.7083452,19.1976962 19,18.9107798 19,18.3739362 L19,9.62606385 Z M11,3.00069463 C11,2.44802625 11.4438648,2 12,2 C12.5522847,2 13,2.44746922 13,3.00069463 L13,24.9993054 C13,25.5519738 12.5561352,26 12,26 C11.4477153,26 11,25.5525308 11,24.9993054 L11,3.00069463 Z M15,3.00069463 C15,2.44802625 15.4438648,2 16,2 C16.5522847,2 17,2.44746922 17,3.00069463 L17,24.9993054 C17,25.5519738 16.5561352,26 16,26 C15.4477153,26 15,25.5525308 15,24.9993054 L15,3.00069463 Z" transform="translate(14.000000, 14.000000) rotate(90.000000) translate(-14.000000, -14.000000) "></path>
        </g>
    </g>
</svg>