<?xml version="1.0" encoding="UTF-8"?>
<svg width="28px" height="28px" viewBox="0 0 28 28" version="1.1" xmlns="http://www.w3.org/2000/svg" xmlns:xlink="http://www.w3.org/1999/xlink">
    <!-- Generator: Sketch 46.2 (44496) - http://www.bohemiancoding.com/sketch -->
    <title>inventory</title>
    <desc>Created with Sketch.</desc>
    <defs></defs>
    <g id="Icons" stroke="none" stroke-width="1" fill="none" fill-rule="evenodd">
        <g id="inventory" fill="#63666A">
            <path d="M24,10.9906311 C24,11.5480902 23.5490248,12 23.009222,12 L18.990778,12 C18.4435864,12 18,11.5566468 18,10.9906311 L18,10 L18,8 L24,8 L24,10 L24,10.9906311 Z M13,7.9906311 C13,8.54809015 12.5536886,9 12.0024554,9 L4.99754465,9 C4.44661595,9 4,8.55664682 4,7.9906311 L4,6.50468445 L4,5 L13,5 L13,6.50468445 L13,7.9906311 Z M24,20.0001925 C24,20.5523709 23.5490248,21 23.009222,21 L18.990778,21 C18.4435864,21 18,20.5562834 18,20.0001925 L18,17.4999037 L18,16 L24,16 L24,17.4999037 L24,20.0001925 Z M14.506259,10 L2.49374104,10 C2.36043631,10 2.23762934,10.0553431 2.14783702,10.144939 C2.05708605,10.2366688 2,10.3596538 2,10.495389 L2,12.504611 C2,12.7842474 2.22385763,13 2.5,13 C2.76806641,13 3,12.7782068 3,12.504611 L3,12 L14,12 L14,12.504611 C14,12.7842474 14.2238576,13 14.5,13 C14.7680664,13 15,12.7782068 15,12.504611 L15,10.495389 C15,10.3566248 14.9448762,10.2335917 14.8555938,10.1448471 C14.7646211,10.0573204 14.64182,10 14.506259,10 Z M13,20.0001925 C13,20.5523709 12.5536886,21 12.0024554,21 L4.99754465,21 C4.44661595,21 4,20.5562834 4,20.0001925 L4,17.4999037 L4,13 L13,13 L13,17.4999037 L13,20.0001925 Z M13,24 L5,24 L5,24.9906311 C5,25.5480902 4.55613518,26 4,26 C3.44771525,26 3,25.5566468 3,24.9906311 L3,23.0093689 C3,23.0078058 3.00000349,23.0062435 3.00001046,23.0046821 C3.00000355,23.0031255 3,23.0015632 3,23 C3,22.7242601 3.10954457,22.4745864 3.28931696,22.2936849 C3.47473389,22.1117154 3.72348992,22 4,22 C4.00041039,22 4.00082073,22.0000002 4.00123101,22.0000007 C4.00164092,22.0000002 4.00205126,22 4.00246167,22 L23.9975383,22 C23.9979487,22 23.9983591,22.0000002 23.9987693,22.0000007 C23.9991793,22.0000002 23.9995896,22 24,22 C24.2746188,22 24.5233829,22.1096186 24.7041051,22.2894293 C24.888125,22.4726667 25,22.7223408 25,23 C25,23.0015631 24.9999965,23.0031254 24.9999894,23.0046868 C24.9999966,23.0062432 25,23.0078056 25,23.0093689 L25,24.9906311 C25,25.5480902 24.5561352,26 24,26 C23.4477153,26 23,25.5566468 23,24.9906311 L23,24 L15,24 L15,24.9906311 C15,25.5480902 14.5561352,26 14,26 C13.4477153,26 13,25.5566468 13,24.9906311 L13,24 L13,24 Z M14.506259,2 L2.49374104,2 C2.36043631,2 2.23762934,2.05534315 2.14783702,2.14493895 C2.05708605,2.23666877 2,2.35965377 2,2.49538898 L2,4.50461102 C2,4.7842474 2.22385763,5 2.5,5 C2.76806641,5 3,4.7782068 3,4.50461102 L3,4 L14,4 L14,4.50461102 C14,4.7842474 14.2238576,5 14.5,5 C14.7680664,5 15,4.7782068 15,4.50461102 L15,2.49538898 C15,2.35662481 14.9448762,2.23359169 14.8555938,2.14484714 C14.7646211,2.05732039 14.64182,2 14.506259,2 Z M16.493741,5 C16.3604363,5 16.2376293,5.05534315 16.147837,5.14493895 C16.057086,5.23666877 16,5.35965377 16,5.49538898 L16,7.50461102 C16,7.7842474 16.2238576,8 16.5,8 C16.7680664,8 17,7.7782068 17,7.50461102 L17,7 L25,7 L25,7.50461102 C25,7.7842474 25.2238576,8 25.5,8 C25.7680664,8 26,7.7782068 26,7.50461102 L26,5.49538898 C26,5.35662481 25.9448762,5.23359169 25.8555938,5.14484714 C25.7646211,5.05732039 25.64182,5 25.506259,5 L16.493741,5 Z M16.493741,13 C16.3604363,13 16.2376293,13.0553431 16.147837,13.144939 C16.057086,13.2366688 16,13.3596538 16,13.495389 L16,15.504611 C16,15.7842474 16.2238576,16 16.5,16 C16.7680664,16 17,15.7782068 17,15.504611 L17,15 L25,15 L25,15.504611 C25,15.7842474 25.2238576,16 25.5,16 C25.7680664,16 26,15.7782068 26,15.504611 L26,13.495389 C26,13.3566248 25.9448762,13.2335917 25.8555938,13.1448471 C25.7646211,13.0573204 25.64182,13 25.506259,13 L16.493741,13 Z"></path>
        </g>
    </g>
</svg>