<?xml version="1.0" encoding="UTF-8"?>
<svg width="28px" height="28px" viewBox="0 0 28 28" version="1.1" xmlns="http://www.w3.org/2000/svg" xmlns:xlink="http://www.w3.org/1999/xlink">
    <!-- Generator: Sketch 46.2 (44496) - http://www.bohemiancoding.com/sketch -->
    <title>locked</title>
    <desc>Created with Sketch.</desc>
    <defs></defs>
    <g id="Icons" stroke="none" stroke-width="1" fill="none" fill-rule="evenodd">
        <g id="locked" fill="#63666A">
            <path d="M9,11.754629 L9,6.99009984 C9,4.2341438 11.2441952,2 14,2 C16.7614237,2 19,4.24331781 19,6.99009984 L19,11.754629 C20.828925,13.2207501 22,15.4736154 22,18 C22,22.418278 18.418278,26 14,26 C9.581722,26 6,22.418278 6,18 C6,15.4736154 7.17107503,13.2207501 9,11.754629 Z M12,10.252035 C12.6392398,10.087506 13.3094009,10 14,10 C14.6905991,10 15.3607602,10.087506 16,10.252035 L16,6.99009984 C16,5.89748257 15.1018774,5 14,5 C12.8972595,5 12,5.89478831 12,6.99009984 L12,10.252035 Z M14,23.3333333 C16.9455187,23.3333333 19.3333333,20.9455187 19.3333333,18 C19.3333333,15.0544813 16.9455187,12.6666667 14,12.6666667 C11.0544813,12.6666667 8.66666667,15.0544813 8.66666667,18 C8.66666667,20.9455187 11.0544813,23.3333333 14,23.3333333 Z M15.7424194,13.9101066 C17.3309729,14.5877462 18.4444444,16.1638405 18.4444444,18 C18.4444444,20.4545989 16.4545989,22.4444444 14,22.4444444 C11.5454011,22.4444444 9.55555556,20.4545989 9.55555556,18 C9.55555556,16.1638405 10.6690271,14.5877462 12.2575806,13.9101066 C12.4219106,14.7220702 13.1395712,15.3333333 14,15.3333333 C14.8604288,15.3333333 15.5780894,14.7220702 15.7424194,13.9101066 L15.7424194,13.9101066 Z"></path>
        </g>
    </g>
</svg>