<?xml version="1.0" encoding="UTF-8"?>
<svg width="28px" height="28px" viewBox="0 0 28 28" version="1.1" xmlns="http://www.w3.org/2000/svg" xmlns:xlink="http://www.w3.org/1999/xlink">
    <!-- Generator: Sketch 46.2 (44496) - http://www.bohemiancoding.com/sketch -->
    <title>media-plan-details</title>
    <desc>Created with Sketch.</desc>
    <defs></defs>
    <g id="Icons" stroke="none" stroke-width="1" fill="none" fill-rule="evenodd">
        <g id="media-plan-details" fill="#63666A">
            <path d="M24,11 L24,23 C24,24.65675 22.6223077,26 20.9230769,26 L7.07692308,26 C5.37769231,26 4,24.65675 4,23 L4,5 C4,3.34325 5.37769231,2 7.07692308,2 L15,2.01897368 L15,7.66666667 C15,9.50666667 16.4933333,11 18.3333333,11 L24,11 Z M16,7.37727865 L16,2 L24,10 L18.6666667,10 C17.1946667,10 16,8.84927865 16,7.37727865 Z M7,18.5 C7,18.7680664 7.22308192,19 7.49826741,19 L20.5017326,19 C20.7800934,19 21,18.7761424 21,18.5 C21,18.2319336 20.7769181,18 20.5017326,18 L7.49826741,18 C7.21990657,18 7,18.2238576 7,18.5 Z M7,21.5 C7,21.7680664 7.22539004,22 7.50342274,22 L13.4965773,22 C13.7670975,22 14,21.7761424 14,21.5 C14,21.2319336 13.77461,21 13.4965773,21 L7.50342274,21 C7.23290253,21 7,21.2238576 7,21.5 Z M7,15.5 C7,15.7680664 7.22308192,16 7.49826741,16 L20.5017326,16 C20.7800934,16 21,15.7761424 21,15.5 C21,15.2319336 20.7769181,15 20.5017326,15 L7.49826741,15 C7.21990657,15 7,15.2238576 7,15.5 Z"></path>
        </g>
    </g>
</svg>