<?xml version="1.0" encoding="UTF-8"?>
<svg width="28px" height="28px" viewBox="0 0 28 28" version="1.1" xmlns="http://www.w3.org/2000/svg" xmlns:xlink="http://www.w3.org/1999/xlink">
    <!-- Generator: Sketch 46.2 (44496) - http://www.bohemiancoding.com/sketch -->
    <title>media-plans</title>
    <desc>Created with Sketch.</desc>
    <defs></defs>
    <g id="Icons" stroke="none" stroke-width="1" fill="none" fill-rule="evenodd">
        <g id="media-plans" fill="#63666A">
            <path d="M10.0500091,20 L7.53980777,20 C7.26169934,20 7.04199219,20.2238576 7.04199219,20.5 C7.04199219,20.7680664 7.26487181,21 7.53980777,21 L10.0500091,21 C10.2816442,22.1411202 11.290521,23 12.5,23 C13.709479,23 14.7183558,22.1411202 14.9499909,21 L20.5314813,21 C20.8095897,21 21.0292969,20.7761424 21.0292969,20.5 C21.0292969,20.2319336 20.8064172,20 20.5314813,20 L14.9499909,20 C14.7183558,18.8588798 13.709479,18 12.5,18 C11.290521,18 10.2816442,18.8588798 10.0500091,20 Z M16.0500091,14 L7.53980777,14 C7.26169934,14 7.04199219,14.2238576 7.04199219,14.5 C7.04199219,14.7680664 7.26487181,15 7.53980777,15 L16.0500091,15 C16.2816442,16.1411202 17.290521,17 18.5,17 C19.8171673,17 20.8964202,15.9813672 20.9929713,14.6888889 C21.0164259,14.6306107 21.0292969,14.5668368 21.0292969,14.5 C21.0292969,14.4358692 21.0165408,14.3738065 20.9933675,14.3164927 C20.8994147,13.0214615 19.8189949,12 18.5,12 C17.290521,12 16.2816442,12.8588798 16.0500091,14 Z M11.9499909,9 L15.2776794,9 C15.7923655,10.1769351 16.9673151,11 18.3333333,11 L24,11 L24,23 C24,24.65675 22.6223077,26 20.9230769,26 L7.07692308,26 C5.37769231,26 4,24.65675 4,23 L4,5 C4,3.34325 5.37769231,2 7.07692308,2 L15,2.01897368 L15,7.66666667 C15,7.77916092 15.0055819,7.89035938 15.0164836,8 L11.9499909,8 C11.7183558,6.85887984 10.709479,6 9.5,6 C8.11928813,6 7,7.11928813 7,8.5 C7,9.88071187 8.11928813,11 9.5,11 C10.709479,11 11.7183558,10.1411202 11.9499909,9 Z M16,7.37727865 L16,2 L24,10 L18.6666667,10 C17.1946667,10 16,8.84927865 16,7.37727865 Z"></path>
        </g>
    </g>
</svg>