<?xml version="1.0" encoding="UTF-8"?>
<svg width="28px" height="28px" viewBox="0 0 28 28" version="1.1" xmlns="http://www.w3.org/2000/svg" xmlns:xlink="http://www.w3.org/1999/xlink">
    <!-- Generator: Sketch 46.2 (44496) - http://www.bohemiancoding.com/sketch -->
    <title>nest</title>
    <desc>Created with Sketch.</desc>
    <defs></defs>
    <g id="Icons" stroke="none" stroke-width="1" fill="none" fill-rule="evenodd">
        <g id="nest" fill="#63666A" fill-rule="nonzero">
            <path d="M9.21425815,3.16215051 C10.4646731,2.67960895 11.8663023,3.3104792 12.3448846,4.57123867 C12.8234669,5.83199813 12.197773,7.24522284 10.947358,7.7277644 C8.52233894,8.66359175 6.84848485,11.1504411 6.84848485,14 C6.84848485,16.8495589 8.52233894,19.3364083 10.947358,20.2722356 C12.197773,20.7547772 12.8234669,22.1680019 12.3448846,23.4287613 C11.8663023,24.6895208 10.4646731,25.3203911 9.21425815,24.8378495 C4.90131837,23.1734638 2,18.8629676 2,14 C2,9.13703242 4.90131837,4.82653617 9.21425815,3.16215051 Z M17.052642,7.7277644 C15.802227,7.24522284 15.1765331,5.83199813 15.6551154,4.57123867 C16.1336977,3.3104792 17.5353269,2.67960895 18.7857419,3.16215051 C23.0986816,4.82653617 26,9.13703242 26,14 C26,18.8629676 23.0986816,23.1734638 18.7857419,24.8378495 C17.5353269,25.3203911 16.1336977,24.6895208 15.6551154,23.4287613 C15.1765331,22.1680019 15.802227,20.7547772 17.052642,20.2722356 C19.4776611,19.3364083 21.1515152,16.8495589 21.1515152,14 C21.1515152,11.1504411 19.4776611,8.66359175 17.052642,7.7277644 Z"></path>
        </g>
    </g>
</svg>