<?xml version="1.0" encoding="UTF-8"?>
<svg width="28px" height="28px" viewBox="0 0 28 28" version="1.1" xmlns="http://www.w3.org/2000/svg" xmlns:xlink="http://www.w3.org/1999/xlink">
    <!-- Generator: Sketch 46.2 (44496) - http://www.bohemiancoding.com/sketch -->
    <title>proposal</title>
    <desc>Created with Sketch.</desc>
    <defs></defs>
    <g id="Icons" stroke="none" stroke-width="1" fill="none" fill-rule="evenodd">
        <g id="proposal" fill="#63666A">
            <path d="M2,2.99324836 C2,2.44469244 2.44746922,2 3.00069463,2 L24.9993054,2 C25.5519738,2 26,2.44257702 26,2.99324836 L26,15.7948037 C26,16.3433596 25.5525308,16.788052 24.9993054,16.788052 L3.00069463,16.788052 C2.44802625,16.788052 2,16.345475 2,15.7948037 L2,2.99324836 Z M20.2619324,9.22847714 C20.2619324,7.28057099 19.1344276,5.57875422 17.4560224,4.66185388 L14.6053939,9.22847714 L18.6051706,12.9662 C19.6288027,12.0096333 20.2619324,10.6881487 20.2619324,9.22847714 Z M12.9065385,14.6799644 C14.4685485,14.6799644 15.8826831,14.0883156 16.9063152,13.1317489 L12.9065385,9.39402602 L15.7571671,4.82740276 C14.9201325,4.37013694 13.9460835,4.10808766 12.9065385,4.10808766 C9.78251855,4.10808766 7.25,6.47468288 7.25,9.39402602 C7.25,12.3133692 9.78251855,14.6799644 12.9065385,14.6799644 Z M8.6143965,17.8314738 L19.3856035,17.8314738 L23.0188948,24.035599 C23.5701421,24.9768964 23.2401757,26.1854513 22.2801004,26.7319189 C21.3133315,27.2821964 20.0942048,26.957202 19.5421543,26.0145332 L16.0072971,19.9784917 L16.0072971,19.9784917 L16.0072971,22.7868396 C16.0072971,23.8753398 15.1163285,24.7577435 14,24.7577435 C12.8914004,24.7577435 11.9927029,23.8737563 11.9927029,22.7868396 L11.9927029,19.9784917 L8.45784571,26.0145332 C7.90579523,26.957202 6.68666849,27.2821964 5.71989965,26.7319189 C4.75982427,26.1854513 4.42985786,24.9768964 4.98110522,24.035599 L8.6143965,17.8314738 Z"></path>
        </g>
    </g>
</svg>