<?xml version="1.0" encoding="UTF-8"?>
<svg width="28px" height="28px" viewBox="0 0 28 28" version="1.1" xmlns="http://www.w3.org/2000/svg" xmlns:xlink="http://www.w3.org/1999/xlink">
    <!-- Generator: Sketch 46.2 (44496) - http://www.bohemiancoding.com/sketch -->
    <title>rates-alerted</title>
    <desc>Created with Sketch.</desc>
    <defs></defs>
    <g id="Icons" stroke="none" stroke-width="1" fill="none" fill-rule="evenodd">
        <g id="rates-alerted">
            <g transform="translate(4.000000, 1.000000)">
                <path d="M11.3627508,6.0204615 C10.9253081,5.98469457 10.4701021,5.96590921 9.99999998,5.9659092 C9.65843625,5.9659092 9.32473637,5.97582615 9,5.99496819 L9,11.3868703 C9.36195559,11.4274744 9.74350981,11.4675148 10.1454887,11.5072897 C10.1465949,11.5073991 10.1465949,11.5073991 10.147701,11.5075086 C13.4636202,11.835611 14.8494554,12.0414747 16.3335206,12.5560845 C18.6298753,13.3523611 19.9979416,14.7942486 19.9999993,17.0014634 C19.996913,20.1649196 17.0495355,22.1558408 13,22.7937797 L13,23.9984178 C13,24.5515764 12.5561352,25 12,25 C11.4477153,25 11,24.5457168 11,23.9984178 L11,22.9943708 C10.6696604,23.0099132 10.3346528,23.0174972 9.99578259,23.0170441 C9.65980844,23.0165949 9.32760983,23.0082603 8.99997745,22.9921211 L8.99997745,22.9921211 C8.99999248,22.9943977 9,22.9966762 9,22.9989566 L9,24.0010434 C9,24.5527519 8.55613518,25 8,25 C7.44771525,25 7,24.5573397 7,24.0010434 L7,22.9989566 C7,22.92757 7.0074313,22.8579322 7.02157557,22.790786 C2.96112848,22.1487121 0,20.1550534 0,17 L3,17 C3,18.6164253 5.9499886,20.0116317 9.99979397,20.0170468 C10.3414556,20.0175036 10.6752221,20.0080657 11,19.9894209 L11,14.6136041 C10.6373796,14.5729095 10.2550899,14.5327847 9.85230056,14.4929296 C9.85119447,14.4928202 9.85119447,14.4928202 9.85008837,14.4927107 C9.55157058,14.4631731 9.26870118,14.4346279 9,14.4067609 L9,15.2675644 C9.59780137,15.6133738 10,16.2597176 10,17 C10,18.1045695 9.1045695,19 8,19 C6.8954305,19 6,18.1045695 6,17 C6,16.2597176 6.40219863,15.6133738 7,15.2675644 L7,14.1759383 C5.55540991,13.9835919 4.63067306,13.7794511 3.66393393,13.4441835 C1.36747754,12.6477665 -2.22044605e-16,11.20513 0,9 C8.09747471e-16,5.83581353 2.94965713,3.83727898 7,3.19316797 L7,1.9999602 C7,1.44769743 7.44386482,1 8,1 C8.55228475,1 9,1.45470893 9,1.9999602 L9,2.98979727 C9.32898443,2.97389906 9.66258389,2.9659092 10,2.9659092 C10.3374161,2.96590921 10.6710156,2.97389907 11,2.98979729 L11,1.99895656 C11,1.44724809 11.4438648,1 12,1 C12.5522847,1 13,1.44266033 13,1.99895656 L13,3.00104344 C13,3.05260121 12.9961237,3.10324671 12.9886417,3.15270019 L11.3627508,6.0204615 L11.3627508,6.0204615 Z M7,6.247605 C4.57223548,6.73624111 3,7.80401567 3,9 C3,10.067874 4.01536943,10.661529 7,11.1253148 L7,6.247605 L7,6.247605 L7,6.247605 Z M13,14.8753081 C15.9829548,15.3391709 16.9990035,15.9332242 17.0000007,17.0014002 C16.9988352,18.1939284 15.4277744,19.256404 13,19.7402795 L13,14.8753081 L13,14.8753081 L13,14.8753081 Z" id="Combined-Shape" fill="#63666A"></path>
                <path d="M22.8871116,8.75249357 C23.1966854,9.29852261 22.8330097,10 22.2403513,10 L12.7596487,10 C12.1669903,10 11.8033146,9.29852261 12.1128884,8.75249357 L16.8532397,0.391418027 C17.1491281,-0.130472676 17.8508719,-0.130472676 18.1467603,0.391418027 L22.8871116,8.75249357 Z M16.5,3.0093689 L16.5,4.9906311 C16.5,5.55664682 16.9477153,6 17.5,6 C18.0561352,6 18.5,5.54809015 18.5,4.9906311 L18.5,3.0093689 C18.5,2.44335318 18.0522847,2 17.5,2 C16.9438648,2 16.5,2.45190985 16.5,3.0093689 Z M17.5,9 C18.0522847,9 18.5,8.55228475 18.5,8 C18.5,7.44771525 18.0522847,7 17.5,7 C16.9477153,7 16.5,7.44771525 16.5,8 C16.5,8.55228475 16.9477153,9 17.5,9 Z" id="alert-copy-2" fill="#FFC842"></path>
            </g>
        </g>
    </g>
</svg>