<?xml version="1.0" encoding="UTF-8"?>
<svg width="28px" height="28px" viewBox="0 0 28 28" version="1.1" xmlns="http://www.w3.org/2000/svg" xmlns:xlink="http://www.w3.org/1999/xlink">
    <!-- Generator: Sketch 46.2 (44496) - http://www.bohemiancoding.com/sketch -->
    <title>selling-title-groups-alerted</title>
    <desc>Created with Sketch.</desc>
    <defs></defs>
    <g id="Icons" stroke="none" stroke-width="1" fill="none" fill-rule="evenodd">
        <g id="selling-title-groups-alerted">
            <g transform="translate(2.000000, 1.000000)">
                <path d="M15.6421705,2 L4.50370994,2 C3.66197696,2 3,2.67157288 3,3.5 C3,4.33420277 3.67323387,5 4.50370994,5 L13.9413063,5 L15.6421705,2 Z M0,8.5 C0,7.67157288 0.679554462,7 1.49554521,7 L10.5044548,7 C11.3304216,7 12,7.66579723 12,8.5 C12,9.32842712 11.3204455,10 10.5044548,10 L1.49554521,10 C0.669578397,10 0,9.33420277 0,8.5 Z M6,13.5 C6,12.6715729 6.67955446,12 7.49554521,12 L16.5044548,12 C17.3304216,12 18,12.6657972 18,13.5 C18,14.3284271 17.3204455,15 16.5044548,15 L7.49554521,15 C6.6695784,15 6,14.3342028 6,13.5 Z M12,18.5 C12,17.6715729 12.6795545,17 13.4955452,17 L22.5044548,17 C23.3304216,17 24,17.6657972 24,18.5 C24,19.3284271 23.3204455,20 22.5044548,20 L13.4955452,20 C12.6695784,20 12,19.3342028 12,18.5 Z M3,23.5 C3,22.6715729 3.66197696,22 4.50370994,22 L19.4962901,22 C20.3267661,22 21,22.6657972 21,23.5 C21,24.3284271 20.338023,25 19.4962901,25 L4.50370994,25 C3.67323387,25 3,24.3342028 3,23.5 Z" id="selling-title-groups-notched" fill="#63666A"></path>
                <path d="M24.8871116,8.75249357 C25.1966854,9.29852261 24.8330097,10 24.2403513,10 L14.7596487,10 C14.1669903,10 13.8033146,9.29852261 14.1128884,8.75249357 L18.8532397,0.391418027 C19.1491281,-0.130472676 19.8508719,-0.130472676 20.1467603,0.391418027 L24.8871116,8.75249357 Z M18.5,3.0093689 L18.5,4.9906311 C18.5,5.55664682 18.9477153,6 19.5,6 C20.0561352,6 20.5,5.54809015 20.5,4.9906311 L20.5,3.0093689 C20.5,2.44335318 20.0522847,2 19.5,2 C18.9438648,2 18.5,2.45190985 18.5,3.0093689 Z M19.5,9 C20.0522847,9 20.5,8.55228475 20.5,8 C20.5,7.44771525 20.0522847,7 19.5,7 C18.9477153,7 18.5,7.44771525 18.5,8 C18.5,8.55228475 18.9477153,9 19.5,9 Z" id="alert-copy" fill="#FFC842"></path>
            </g>
        </g>
    </g>
</svg>