<?xml version="1.0" encoding="UTF-8"?>
<svg width="28px" height="28px" viewBox="0 0 28 28" version="1.1" xmlns="http://www.w3.org/2000/svg" xmlns:xlink="http://www.w3.org/1999/xlink">
    <!-- Generator: Sketch 46.2 (44496) - http://www.bohemiancoding.com/sketch -->
    <title>selling-title-groups</title>
    <desc>Created with Sketch.</desc>
    <defs></defs>
    <g id="Icons" stroke="none" stroke-width="1" fill="none" fill-rule="evenodd">
        <g id="selling-title-groups" fill="#63666A">
            <path d="M5,4.5 C5,3.67157288 5.66197696,3 6.50370994,3 L21.4962901,3 C22.3267661,3 23,3.66579723 23,4.5 C23,5.32842712 22.338023,6 21.4962901,6 L6.50370994,6 C5.67323387,6 5,5.33420277 5,4.5 L5,4.5 Z M2,9.5 C2,8.67157288 2.67955446,8 3.49554521,8 L12.5044548,8 C13.3304216,8 14,8.66579723 14,9.5 C14,10.3284271 13.3204455,11 12.5044548,11 L3.49554521,11 C2.6695784,11 2,10.3342028 2,9.5 L2,9.5 Z M8,14.5 C8,13.6715729 8.67955446,13 9.49554521,13 L18.5044548,13 C19.3304216,13 20,13.6657972 20,14.5 C20,15.3284271 19.3204455,16 18.5044548,16 L9.49554521,16 C8.6695784,16 8,15.3342028 8,14.5 L8,14.5 Z M14,19.5 C14,18.6715729 14.6795545,18 15.4955452,18 L24.5044548,18 C25.3304216,18 26,18.6657972 26,19.5 C26,20.3284271 25.3204455,21 24.5044548,21 L15.4955452,21 C14.6695784,21 14,20.3342028 14,19.5 L14,19.5 Z M5,24.5 C5,23.6715729 5.66197696,23 6.50370994,23 L21.4962901,23 C22.3267661,23 23,23.6657972 23,24.5 C23,25.3284271 22.338023,26 21.4962901,26 L6.50370994,26 C5.67323387,26 5,25.3342028 5,24.5 L5,24.5 Z"></path>
        </g>
    </g>
</svg>