<?xml version="1.0" encoding="UTF-8"?>
<svg width="28px" height="28px" viewBox="0 0 28 28" version="1.1" xmlns="http://www.w3.org/2000/svg" xmlns:xlink="http://www.w3.org/1999/xlink">
    <!-- Generator: Sketch 46.2 (44496) - http://www.bohemiancoding.com/sketch -->
    <title>settings</title>
    <desc>Created with Sketch.</desc>
    <defs></defs>
    <g id="Icons" stroke="none" stroke-width="1" fill="none" fill-rule="evenodd">
        <g id="settings" fill="#63666A">
            <path d="M16.9568149,5.51211712 C18.0236952,5.89471265 18.9968987,6.47851205 19.8321359,7.21857898 L21.1775627,6.44179644 C22.1365139,5.88814573 23.3629739,6.21714655 23.91494,7.17317989 L24.8696697,8.82682011 C25.4225303,9.78440275 25.0938648,11.00919 24.1343776,11.5631501 L22.7264182,12.3760359 C22.8210276,12.9027889 22.8704448,13.4455392 22.8704448,14 C22.8704448,14.5544608 22.8210276,15.0972111 22.7264182,15.6239641 L24.1343776,16.4368499 C25.0933288,16.9905006 25.4216358,18.2171465 24.8696697,19.1731799 L23.91494,20.8268201 C23.3620794,21.7844027 22.1370499,22.1121637 21.1775627,21.5582036 L19.8321359,20.781421 C18.9968987,21.5214879 18.0236952,22.1052873 16.9568149,22.4878829 L16.9568149,23.9950534 C16.9568149,25.1023548 16.0586618,26 14.9547296,26 L13.0452704,26 C11.9395492,26 11.0431851,25.1029738 11.0431851,23.9950534 L11.0431851,22.4878829 C9.97630481,22.1052873 9.00310133,21.5214879 8.16786411,20.781421 L6.8224373,21.5582036 C5.86348614,22.1118543 4.63702608,21.7828535 4.08505997,20.8268201 L3.13033034,19.1731799 C2.57746975,18.2155973 2.90613519,16.99081 3.86562237,16.4368499 L5.27358177,15.6239641 C5.17897236,15.0972111 5.12955519,14.5544608 5.12955519,14 C5.12955519,13.4455392 5.17897236,12.9027889 5.27358177,12.3760359 L3.86562237,11.5631501 C2.9066712,11.0094994 2.57836423,9.78285345 3.13033034,8.82682011 L4.08505997,7.17317989 C4.63792056,6.21559725 5.86295012,5.88783626 6.8224373,6.44179644 L8.16786411,7.21857898 C9.00310133,6.47851205 9.97630481,5.89471265 11.0431851,5.51211712 L11.0431851,4.00494659 C11.0431851,2.89764516 11.9413382,2 13.0452704,2 L14.9547296,2 C16.0604508,2 16.9568149,2.89702623 16.9568149,4.00494659 L16.9568149,5.51211712 Z M14,19 C16.721673,19 18.9280249,16.7614237 18.9280249,14 C18.9280249,11.2385763 16.721673,9 14,9 C11.278327,9 9.0719751,11.2385763 9.0719751,14 C9.0719751,16.7614237 11.278327,19 14,19 Z"></path>
        </g>
    </g>
</svg>