<?xml version="1.0" encoding="UTF-8"?>
<svg width="28px" height="28px" viewBox="0 0 28 28" version="1.1" xmlns="http://www.w3.org/2000/svg" xmlns:xlink="http://www.w3.org/1999/xlink">
    <!-- Generator: Sketch 46.2 (44496) - http://www.bohemiancoding.com/sketch -->
    <title>targeting-alerted</title>
    <desc>Created with Sketch.</desc>
    <defs></defs>
    <g id="Icons" stroke="none" stroke-width="1" fill="none" fill-rule="evenodd">
        <g id="targeting-alerted">
            <g transform="translate(3.000000, 1.000000)">
                <path d="M14.3480386,2.51879251 L12.8230163,5.20864099 C12.2374328,5.07216391 11.6271438,5 11,5 C6.581722,5 3,8.581722 3,13 C3,17.418278 6.581722,21 11,21 C15.418278,21 19,17.418278 19,13 C19,12.6613397 18.9789567,12.3275942 18.9381062,12 L21.955157,12 C21.9848374,12.329362 22,12.6629103 22,13 C22,19.0751322 17.0751322,24 11,24 C4.92486775,24 0,19.0751322 0,13 C0,6.92486775 4.92486775,2 11,2 C12.1674164,2 13.2923574,2.18185896 14.3480386,2.51879251 Z M16.5758325,12 C16.4541612,12.1687213 16.2796279,12.304398 16.0590058,12.3782548 L11.381546,13.9441082 C10.5618908,14.2185007 9.78231363,13.4360072 10.0556835,12.6132856 L11.0400296,9.65084162 C11.251721,10.9173998 12.294216,12 13.7596487,12 L16.5758325,12 Z M16.9693328,13.6104034 C16.6634864,16.6374086 14.1076496,19 11,19 C7.6862915,19 5,16.3137085 5,13 C5,9.8992445 7.35212057,7.3478562 10.3694609,7.03273586 C10.3002528,7.16178179 10.240708,7.29942826 10.1922246,7.44534172 L9.12464993,10.6582666 C8.43900371,11.2080688 8,12.052767 8,13 C8,14.6568542 9.34314575,16 11,16 C11.9507654,16 12.7982298,15.557716 13.347872,14.8676692 L16.5351808,13.8006673 C16.6892997,13.7490736 16.8341465,13.6850998 16.9693328,13.6104034 L16.9693328,13.6104034 Z" id="targeting-notched" fill="#63666A" fill-rule="nonzero"></path>
                <path d="M23.8871116,8.75249357 C24.1966854,9.29852261 23.8330097,10 23.2403513,10 L13.7596487,10 C13.1669903,10 12.8033146,9.29852261 13.1128884,8.75249357 L17.8532397,0.391418027 C18.1491281,-0.130472676 18.8508719,-0.130472676 19.1467603,0.391418027 L23.8871116,8.75249357 Z M17.5,3.0093689 L17.5,4.9906311 C17.5,5.55664682 17.9477153,6 18.5,6 C19.0561352,6 19.5,5.54809015 19.5,4.9906311 L19.5,3.0093689 C19.5,2.44335318 19.0522847,2 18.5,2 C17.9438648,2 17.5,2.45190985 17.5,3.0093689 Z M18.5,9 C19.0522847,9 19.5,8.55228475 19.5,8 C19.5,7.44771525 19.0522847,7 18.5,7 C17.9477153,7 17.5,7.44771525 17.5,8 C17.5,8.55228475 17.9477153,9 18.5,9 Z" id="alert-copy-2" fill="#FFC842"></path>
            </g>
        </g>
    </g>
</svg>