<?xml version="1.0" encoding="UTF-8"?>
<svg width="28px" height="28px" viewBox="0 0 28 28" version="1.1" xmlns="http://www.w3.org/2000/svg" xmlns:xlink="http://www.w3.org/1999/xlink">
    <!-- Generator: Sketch 46.2 (44496) - http://www.bohemiancoding.com/sketch -->
    <title>traffic</title>
    <desc>Created with Sketch.</desc>
    <defs></defs>
    <g id="Icons" stroke="none" stroke-width="1" fill="none" fill-rule="evenodd">
        <g id="traffic" fill="#63666A">
            <path d="M15,21 L15,24 L18.0046024,24 C18.5543453,24 19,24.4438648 19,25 C19,25.5522847 18.5443356,26 18.0046024,26 L9.99539757,26 C9.44565467,26 9,25.5561352 9,25 C9,24.4477153 9.4556644,24 9.99539757,24 L13,24 L13,21 L15,21 L15,21 Z M15,5 L13,5 L13,3.00069463 C13,2.44802625 13.4438648,2 14,2 C14.5522847,2 15,2.44746922 15,3.00069463 L15,5 Z M7,6.0009729 L18.992516,6.0009729 C19.5489341,6.0009729 20,6.44432607 20,7.01034179 L20,8.991604 C20,9.54906305 19.5510798,10.0009729 18.992516,10.0009729 L7,10.0009729 L7,11.5009729 C7,11.9305523 6.49403914,12.1601413 6.1707477,11.8772612 L2.1707477,8.37726124 C1.9430841,8.1780556 1.9430841,7.8238902 2.1707477,7.62468455 L6.1707477,4.12468455 C6.49403914,3.84180453 7,4.07139349 7,4.5009729 L7,6.0009729 Z M21,11.0009729 L21,9.5009729 C21,9.07139349 21.5059609,8.84180453 21.8292523,9.12468455 L25.8292523,12.6246845 C26.0569159,12.8238902 26.0569159,13.1780556 25.8292523,13.3772612 L21.8292523,16.8772612 C21.5059609,17.1601413 21,16.9305523 21,16.5009729 L21,15.0009729 L10.9985023,15.0009729 C10.4474894,15.0009729 10,14.549063 10,13.991604 L10,12.0103418 C10,11.4443261 10.4470447,11.0009729 10.9985023,11.0009729 L21,11.0009729 Z M9,16.0009729 L17.9975267,16.0009729 C18.5511774,16.0009729 19,16.4443261 19,17.0103418 L19,18.991604 C19,19.549063 18.544239,20.0009729 17.9975267,20.0009729 L9,20.0009729 L9,21.5009729 C9,21.9305523 8.49403914,22.1601413 8.1707477,21.8772612 L4.1707477,18.3772612 C3.9430841,18.1780556 3.9430841,17.8238902 4.1707477,17.6246845 L8.1707477,14.1246845 C8.49403914,13.8418045 9,14.0713935 9,14.5009729 L9,16.0009729 Z"></path>
        </g>
    </g>
</svg>