<?xml version="1.0" encoding="UTF-8"?>
<svg width="28px" height="28px" viewBox="0 0 28 28" version="1.1" xmlns="http://www.w3.org/2000/svg" xmlns:xlink="http://www.w3.org/1999/xlink">
    <!-- Generator: Sketch 46.2 (44496) - http://www.bohemiancoding.com/sketch -->
    <title>un-nest</title>
    <desc>Created with Sketch.</desc>
    <defs></defs>
    <g id="Icons" stroke="none" stroke-width="1" fill="none" fill-rule="evenodd">
        <g id="un-nest" fill="#63666A" fill-rule="nonzero">
            <path d="M22.6393385,3.16215051 C23.9160481,2.67960895 25.3471518,3.3104792 25.8357981,4.57123867 C26.3244444,5.83199813 25.6855929,7.24522284 24.4088833,7.7277644 C21.9328691,8.66359175 20.223816,11.1504411 20.223816,14 C20.223816,16.8495589 21.9328691,19.3364083 24.4088833,20.2722356 C25.6855929,20.7547772 26.3244444,22.1680019 25.8357981,23.4287613 C25.3471518,24.6895208 23.9160481,25.3203911 22.6393385,24.8378495 C18.235703,23.1734638 15.2733736,18.8629676 15.2733736,14 C15.2733736,9.13703242 18.235703,4.82653617 22.6393385,3.16215051 Z M3.59111673,7.7277644 C2.31440714,7.24522284 1.67555561,5.83199813 2.16420191,4.57123867 C2.6528482,3.3104792 4.08395191,2.67960895 5.3606615,3.16215051 C9.76429696,4.82653617 12.7266264,9.13703242 12.7266264,14 C12.7266264,18.8629676 9.76429696,23.1734638 5.3606615,24.8378495 C4.08395191,25.3203911 2.6528482,24.6895208 2.16420191,23.4287613 C1.67555561,22.1680019 2.31440714,20.7547772 3.59111673,20.2722356 C6.06713089,19.3364083 7.77618403,16.8495589 7.77618403,14 C7.77618403,11.1504411 6.06713089,8.66359175 3.59111673,7.7277644 Z"></path>
        </g>
    </g>
</svg>