<?xml version="1.0" encoding="UTF-8"?>
<svg width="28px" height="28px" viewBox="0 0 28 28" version="1.1" xmlns="http://www.w3.org/2000/svg" xmlns:xlink="http://www.w3.org/1999/xlink">
    <!-- Generator: Sketch 46.2 (44496) - http://www.bohemiancoding.com/sketch -->
    <title>unlocked</title>
    <desc>Created with Sketch.</desc>
    <defs></defs>
    <g id="Icons" stroke="none" stroke-width="1" fill="none" fill-rule="evenodd">
        <g id="unlocked" fill="#63666A">
            <path d="M9.01900677,11.7394398 C9.00649892,11.6614711 9,11.5814945 9,11.5 L9,6.99009984 C9,5.89748257 8.10187737,5 7,5 C5.89725949,5 5,5.89478831 5,6.99009984 L5,11.5 C5,12.3284271 4.32842712,13 3.5,13 C2.67157288,13 2,12.3284271 2,11.5 L2,6.99009984 C2,4.2341438 4.24419519,2 7,2 C9.76142375,2 12,4.24331781 12,6.99009984 L12,10.252035 C12.6392398,10.087506 13.3094009,10 14,10 C18.418278,10 22,13.581722 22,18 C22,22.418278 18.418278,26 14,26 C9.581722,26 6,22.418278 6,18 C6,15.4648746 7.17919243,13.2051644 9.01900677,11.7394398 Z M14,12.6666667 C11.0544813,12.6666667 8.66666667,15.0544813 8.66666667,18 C8.66666667,20.9455187 11.0544813,23.3333333 14,23.3333333 C16.9455187,23.3333333 19.3333333,20.9455187 19.3333333,18 C19.3333333,15.0544813 16.9455187,12.6666667 14,12.6666667 Z M15.7424194,22.0898934 L15.7424194,22.0898934 C15.5780894,21.2779298 14.8604288,20.6666667 14,20.6666667 C13.1395712,20.6666667 12.4219106,21.2779298 12.2575806,22.0898934 C10.6690271,21.4122538 9.55555556,19.8361595 9.55555556,18 C9.55555556,15.5454011 11.5454011,13.5555556 14,13.5555556 C16.4545989,13.5555556 18.4444444,15.5454011 18.4444444,18 C18.4444444,19.8361595 17.3309729,21.4122538 15.7424194,22.0898934 Z"></path>
        </g>
    </g>
</svg>