<?xml version="1.0" encoding="UTF-8"?>
<svg width="28px" height="28px" viewBox="0 0 28 28" version="1.1" xmlns="http://www.w3.org/2000/svg" xmlns:xlink="http://www.w3.org/1999/xlink">
    <!-- Generator: Sketch 46.2 (44496) - http://www.bohemiancoding.com/sketch -->
    <title>upload-alerted</title>
    <desc>Created with Sketch.</desc>
    <defs></defs>
    <g id="Icons" stroke="none" stroke-width="1" fill="none" fill-rule="evenodd">
        <g id="upload-alerted">
            <g transform="translate(2.000000, 1.000000)">
                <path d="M21.1095439,15.5715678 L17.2355894,13.3752109 C15.4017818,12.335525 13.0016785,13.5798405 13.0016785,15.7618006 L13.0016785,16.0016785 L6.00167847,16.0016785 L6.00167847,10.0016785 L15.0016785,10.0016785 L15.0016785,5.00167847 L23.9983215,13.002533 L21.1095439,15.5715678 Z M8.00167847,1.00167847 L8.00167847,5.00167847 L5.34764862,5.00167847 C4.59637771,5.00167847 4.00167847,5.59784977 4.00167847,6.34764862 L4.00167847,19.6557083 C4.00167847,20.4069792 4.59784977,21.0016785 5.34764862,21.0016785 L8.00167847,21.0016785 L8.00167847,25.0016785 L4.32780254,25.0016785 C1.93855019,25.0016785 0.0016784668,22.9967319 0.0016784668,20.487462 L0.0016784668,5.51589489 C0.0016784668,3.022762 1.92308562,1.00167847 4.32780254,1.00167847 L8.00167847,1.00167847 Z" id="upload-copy" fill="#63666A" fill-rule="nonzero" transform="translate(12.000000, 13.001678) rotate(-90.000000) translate(-12.000000, -13.001678) "></path>
                <path d="M24.8871116,8.75249357 C25.1966854,9.29852261 24.8330097,10 24.2403513,10 L14.7596487,10 C14.1669903,10 13.8033146,9.29852261 14.1128884,8.75249357 L18.8532397,0.391418027 C19.1491281,-0.130472676 19.8508719,-0.130472676 20.1467603,0.391418027 L24.8871116,8.75249357 Z M18.5,3.0093689 L18.5,4.9906311 C18.5,5.55664682 18.9477153,6 19.5,6 C20.0561352,6 20.5,5.54809015 20.5,4.9906311 L20.5,3.0093689 C20.5,2.44335318 20.0522847,2 19.5,2 C18.9438648,2 18.5,2.45190985 18.5,3.0093689 Z M19.5,9 C20.0522847,9 20.5,8.55228475 20.5,8 C20.5,7.44771525 20.0522847,7 19.5,7 C18.9477153,7 18.5,7.44771525 18.5,8 C18.5,8.55228475 18.9477153,9 19.5,9 Z" id="alert-copy" fill="#FFC842"></path>
            </g>
        </g>
    </g>
</svg>